G04 #@! TF.GenerationSoftware,KiCad,Pcbnew,6.0.4-6f826c9f35~116~ubuntu20.04.1*
G04 #@! TF.CreationDate,2022-04-24T22:14:44+02:00*
G04 #@! TF.ProjectId,keyboard,6b657962-6f61-4726-942e-6b696361645f,rev?*
G04 #@! TF.SameCoordinates,Original*
G04 #@! TF.FileFunction,Copper,L1,Top*
G04 #@! TF.FilePolarity,Positive*
%FSLAX46Y46*%
G04 Gerber Fmt 4.6, Leading zero omitted, Abs format (unit mm)*
G04 Created by KiCad (PCBNEW 6.0.4-6f826c9f35~116~ubuntu20.04.1) date 2022-04-24 22:14:44*
%MOMM*%
%LPD*%
G01*
G04 APERTURE LIST*
G04 Aperture macros list*
%AMFreePoly0*
4,1,103,0.422812,1.999002,0.439619,1.993171,0.440305,1.991756,0.441755,1.991155,0.448553,1.974744,0.456314,1.958736,0.455799,1.957251,0.456400,1.955800,0.456400,-0.935780,2.413800,-2.023224,2.413800,1.422400,2.417334,1.430931,2.417061,1.440161,2.424368,1.447914,2.428445,1.457755,2.436975,1.461288,2.443309,1.468008,2.453957,1.468323,2.463800,1.472400,2.472331,1.468866,
2.481561,1.469139,3.751561,0.986539,3.759314,0.979232,3.769155,0.975155,3.772688,0.966625,3.779408,0.960291,3.779723,0.949643,3.783800,0.939800,3.783800,-2.260600,3.782370,-2.264052,3.783297,-2.267671,3.775221,-2.281311,3.769155,-2.295955,3.765704,-2.297385,3.763800,-2.300600,3.560600,-2.453000,3.554370,-2.454596,3.549831,-2.459154,3.245031,-2.586154,3.241949,-2.586160,
3.239536,-2.588076,2.883936,-2.689676,2.881796,-2.689430,2.880006,-2.690629,2.499006,-2.766829,2.493956,-2.765830,2.489200,-2.767800,2.032000,-2.767800,2.028200,-2.766226,2.024202,-2.767188,1.541602,-2.690988,1.537909,-2.688727,1.533589,-2.689034,1.076389,-2.536634,1.071884,-2.532727,1.065995,-2.531783,0.735795,-2.328583,0.733473,-2.325375,0.729703,-2.324169,0.399503,-2.044769,
0.398489,-2.042802,0.396444,-2.041955,0.117045,-1.762555,0.115214,-1.758134,0.111198,-1.755527,-0.168202,-1.349126,-0.169400,-1.343493,-0.173424,-1.339370,-0.325824,-0.958370,-0.325797,-0.956186,-0.327189,-0.954504,-0.428789,-0.624304,-0.428380,-0.619972,-0.430561,-0.616208,-0.481361,-0.235208,-0.480462,-0.231830,-0.481800,-0.228600,-0.481800,0.203200,-0.480370,0.206652,-0.481297,0.210271,
-0.430498,0.565871,-0.428402,0.569410,-0.428789,0.573504,-0.327189,0.903704,-0.324938,0.906424,-0.324798,0.909953,-0.172398,1.240153,-0.171085,1.241365,-0.170895,1.243143,-0.018495,1.522543,-0.015193,1.525207,-0.014068,1.529297,0.163733,1.757897,0.165256,1.758763,0.165830,1.760418,0.369030,1.989019,0.370444,1.989705,0.371045,1.991155,0.387459,1.997954,0.403464,2.005714,
0.404949,2.005199,0.406400,2.005800,0.422812,1.999002,0.422812,1.999002,$1*%
%AMFreePoly1*
4,1,94,-2.235111,2.741264,-2.232081,2.742303,-1.825681,2.716903,-1.821113,2.714668,-1.816075,2.715354,-1.333475,2.588354,-1.329741,2.585515,-1.325056,2.585309,-0.944056,2.407509,-0.941067,2.404245,-0.936740,2.403310,-0.606540,2.174710,-0.605988,2.173853,-0.605000,2.173600,-0.300200,1.945000,-0.297615,1.940634,-0.293035,1.938448,-0.064435,1.684448,-0.062855,1.679982,-0.059017,1.677205,
0.144183,1.347005,0.144553,1.344694,0.146321,1.343161,0.324121,0.987561,0.324386,0.983834,0.326834,0.981011,0.453834,0.600012,0.453469,0.594877,0.456014,0.590402,0.506814,0.184001,0.505943,0.180834,0.507200,0.177800,0.507200,-0.203200,0.505543,-0.207200,0.506520,-0.211419,0.430320,-0.668620,0.428143,-0.672110,0.428434,-0.676211,0.276034,-1.133411,0.273146,-1.136741,
0.272718,-1.141129,0.069518,-1.522129,0.064272,-1.526442,0.061877,-1.532797,-0.319123,-1.939197,-0.319914,-1.939555,-0.320245,-1.940355,-0.337228,-1.947390,-0.353988,-1.954974,-0.354799,-1.954668,-0.355600,-1.955000,-0.372581,-1.947966,-0.389797,-1.941477,-0.390155,-1.940686,-0.390955,-1.940355,-0.397990,-1.923372,-0.405574,-1.906612,-0.405268,-1.905801,-0.405600,-1.905000,-0.405600,1.311106,
-2.413800,2.036962,-2.413800,-1.320800,-2.419036,-1.333440,-2.421184,-1.346951,-2.426114,-1.350528,-2.428445,-1.356155,-2.441085,-1.361391,-2.452158,-1.369425,-2.458172,-1.368469,-2.463800,-1.370800,-2.476440,-1.365564,-2.489951,-1.363416,-3.607551,-0.677616,-3.611128,-0.672686,-3.616755,-0.670355,-3.621990,-0.657716,-3.630025,-0.646643,-3.629069,-0.640628,-3.631400,-0.635000,-3.631400,2.362200,
-3.627829,2.370821,-3.628067,2.380149,-3.620795,2.387803,-3.616755,2.397555,-3.608136,2.401125,-3.601707,2.407891,-3.144507,2.611091,-3.139306,2.611224,-3.135047,2.614209,-2.677846,2.715809,-2.673713,2.715082,-2.669936,2.716914,-2.238137,2.742314,-2.235111,2.741264,-2.235111,2.741264,$1*%
G04 Aperture macros list end*
G04 #@! TA.AperFunction,SMDPad,CuDef*
%ADD10FreePoly0,0.000000*%
G04 #@! TD*
G04 #@! TA.AperFunction,SMDPad,CuDef*
%ADD11FreePoly1,0.000000*%
G04 #@! TD*
G04 #@! TA.AperFunction,ViaPad*
%ADD12C,0.800000*%
G04 #@! TD*
G04 #@! TA.AperFunction,Conductor*
%ADD13C,0.250000*%
G04 #@! TD*
G04 APERTURE END LIST*
D10*
X21446000Y-24214600D03*
D11*
X25992600Y-24214600D03*
D10*
X26446000Y-51214600D03*
D11*
X30992600Y-51214600D03*
D10*
X22446000Y-65214600D03*
D11*
X26992600Y-65214600D03*
D10*
X21446000Y-78214600D03*
D11*
X25992600Y-78214600D03*
D10*
X32446000Y-24214600D03*
D11*
X36992600Y-24214600D03*
D10*
X38446000Y-38214600D03*
D11*
X42992600Y-38214600D03*
D10*
X43446000Y-51214600D03*
D11*
X47992600Y-51214600D03*
D10*
X35446000Y-65214600D03*
D11*
X39992600Y-65214600D03*
D10*
X33446000Y-78214600D03*
D11*
X37992600Y-78214600D03*
D10*
X49446000Y-38214600D03*
D11*
X53992600Y-38214600D03*
D10*
X55446000Y-51214600D03*
D11*
X59992600Y-51214600D03*
D10*
X47446000Y-65214600D03*
D11*
X51992600Y-65214600D03*
D10*
X45446000Y-78214600D03*
D11*
X49992600Y-78214600D03*
D10*
X61446000Y-38214600D03*
D11*
X65992600Y-38214600D03*
D10*
X67446000Y-51214600D03*
D11*
X71992600Y-51214600D03*
D10*
X59446000Y-65214600D03*
D11*
X63992600Y-65214600D03*
D10*
X57446000Y-78214600D03*
D11*
X61992600Y-78214600D03*
D10*
X69446000Y-24214600D03*
D11*
X73992600Y-24214600D03*
D10*
X74446000Y-38214600D03*
D11*
X78992600Y-38214600D03*
D10*
X79446000Y-51214600D03*
D11*
X83992600Y-51214600D03*
D10*
X71446000Y-65214600D03*
D11*
X75992600Y-65214600D03*
D10*
X77446000Y-78214600D03*
D11*
X81992600Y-78214600D03*
D10*
X81446000Y-24214600D03*
D11*
X85992600Y-24214600D03*
D10*
X85446000Y-38214600D03*
D11*
X89992600Y-38214600D03*
D10*
X91446000Y-51214600D03*
D11*
X95992600Y-51214600D03*
D10*
X83446000Y-65214600D03*
D11*
X87992600Y-65214600D03*
D10*
X145446000Y-78214600D03*
D11*
X149992600Y-78214600D03*
D10*
X97446000Y-38214600D03*
D11*
X101992600Y-38214600D03*
D10*
X103446000Y-51214600D03*
D11*
X107992600Y-51214600D03*
D10*
X95446000Y-65214600D03*
D11*
X99992600Y-65214600D03*
D10*
X157446000Y-78214600D03*
D11*
X161992600Y-78214600D03*
D10*
X105446000Y-24214600D03*
D11*
X109992600Y-24214600D03*
D10*
X110446000Y-38214600D03*
D11*
X114992600Y-38214600D03*
D10*
X115446000Y-51214600D03*
D11*
X119992600Y-51214600D03*
D10*
X107446000Y-65214600D03*
D11*
X111992600Y-65214600D03*
D10*
X169446000Y-78214600D03*
D11*
X173992600Y-78214600D03*
D10*
X117446000Y-24214600D03*
D11*
X121992600Y-24214600D03*
D10*
X121446000Y-38214600D03*
D11*
X125992600Y-38214600D03*
D10*
X127446000Y-51214600D03*
D11*
X131992600Y-51214600D03*
D10*
X119446000Y-65214600D03*
D11*
X123992600Y-65214600D03*
D10*
X181446000Y-78214600D03*
D11*
X185992600Y-78214600D03*
D10*
X129446000Y-24214600D03*
D11*
X133992600Y-24214600D03*
D10*
X133446000Y-38214600D03*
D11*
X137992600Y-38214600D03*
D10*
X139446000Y-51214600D03*
D11*
X143992600Y-51214600D03*
D10*
X131446000Y-65214600D03*
D11*
X135992600Y-65214600D03*
D10*
X151446000Y-51214600D03*
D11*
X155992600Y-51214600D03*
D10*
X143446000Y-65214600D03*
D11*
X147992600Y-65214600D03*
D10*
X153446000Y-24214600D03*
D11*
X157992600Y-24214600D03*
D10*
X157446000Y-38214600D03*
D11*
X161992600Y-38214600D03*
D10*
X163446000Y-51214600D03*
D11*
X167992600Y-51214600D03*
D10*
X155446000Y-65214600D03*
D11*
X159992600Y-65214600D03*
D10*
X165446000Y-24214600D03*
D11*
X169992600Y-24214600D03*
D10*
X169446000Y-38214600D03*
D11*
X173992600Y-38214600D03*
D10*
X167446000Y-65214600D03*
D11*
X171992600Y-65214600D03*
D10*
X179446000Y-24214600D03*
D11*
X183992600Y-24214600D03*
D10*
X181446000Y-44214600D03*
D11*
X185992600Y-44214600D03*
D10*
X180446000Y-65214600D03*
D11*
X184992600Y-65214600D03*
D10*
X141446000Y-24214600D03*
D11*
X145992600Y-24214600D03*
D10*
X23446000Y-38214600D03*
D11*
X27992600Y-38214600D03*
D10*
X44446000Y-24214600D03*
D11*
X48992600Y-24214600D03*
D10*
X55446000Y-24214600D03*
D11*
X59992600Y-24214600D03*
D10*
X93446000Y-24214600D03*
D11*
X97992600Y-24214600D03*
D10*
X125446000Y-78214600D03*
D11*
X129992600Y-78214600D03*
D10*
X145446000Y-38214600D03*
D11*
X149992600Y-38214600D03*
D12*
X175024990Y-65250000D03*
X31500000Y-65250006D03*
X21750000Y-75000000D03*
X21500000Y-38250000D03*
X55446000Y-51214600D03*
X32987338Y-58237342D03*
X173000000Y-22249998D03*
X65074979Y-64585907D03*
X64249992Y-59250000D03*
X174499999Y-81750000D03*
X111750000Y-51000000D03*
X47475010Y-65214600D03*
X55500000Y-38500000D03*
X55000000Y-78250000D03*
X95512660Y-62512660D03*
X103000000Y-48500000D03*
X118000000Y-39250000D03*
X29939027Y-26343879D03*
X119987340Y-80987340D03*
X34750000Y-39250000D03*
X150250000Y-24750000D03*
X84664496Y-81475001D03*
X95445992Y-65214608D03*
X52500002Y-78250000D03*
X145000000Y-45000000D03*
X67524990Y-78000000D03*
X124500000Y-52750000D03*
X58250000Y-38250000D03*
X150925021Y-52183290D03*
X89750000Y-53000000D03*
X107446000Y-65214600D03*
X109750000Y-54750000D03*
X98250000Y-54750000D03*
X107750000Y-38250000D03*
X58224500Y-28500000D03*
X152500000Y-78250000D03*
X65750000Y-57250000D03*
X186012660Y-69262660D03*
X186000000Y-62250000D03*
X64250000Y-24250000D03*
X149500000Y-58425021D03*
X119446000Y-65214600D03*
X72624968Y-44221934D03*
X156250004Y-34750000D03*
X72624968Y-38221934D03*
X110750000Y-43000000D03*
X115500010Y-61250000D03*
X77500000Y-42000000D03*
X161992600Y-78214600D03*
X175000000Y-52750000D03*
X172000000Y-24500000D03*
X153262660Y-65237340D03*
X83750000Y-28250004D03*
X152000006Y-56250000D03*
X70512660Y-46762660D03*
X81250000Y-38250000D03*
X76250000Y-48750002D03*
X68500000Y-80500000D03*
X135992600Y-65214600D03*
X142080504Y-56580504D03*
X78000000Y-23999992D03*
X173417940Y-24304707D03*
X175012663Y-54012657D03*
X30750000Y-78250000D03*
X41500000Y-51250000D03*
X178725010Y-45750000D03*
X70250000Y-72750000D03*
X143262660Y-40012660D03*
X101000000Y-24500000D03*
X104000000Y-64749990D03*
X136675020Y-49613870D03*
X100250000Y-20250000D03*
X104656162Y-27957840D03*
X136499998Y-24249998D03*
X104000000Y-38250000D03*
X70500000Y-67750000D03*
X55446000Y-24214600D03*
X71250000Y-56000000D03*
X71250000Y-69250000D03*
X65000000Y-48750000D03*
X127538775Y-26050639D03*
X179475010Y-34000000D03*
X171250000Y-59250008D03*
X116250000Y-34000000D03*
X75000000Y-33250000D03*
X113250000Y-24250000D03*
X129231400Y-34000000D03*
X71250000Y-70750000D03*
X75349862Y-35175457D03*
X73500000Y-70000000D03*
X135750000Y-28249986D03*
X155500000Y-78250000D03*
X160823664Y-33556929D03*
X75250000Y-57000000D03*
X131000000Y-38250000D03*
X160975010Y-24750000D03*
X152500000Y-47250000D03*
X152750002Y-39500000D03*
X133524990Y-57370369D03*
X186000000Y-68000002D03*
X133475001Y-47250321D03*
X145960670Y-51314635D03*
X175750000Y-57000000D03*
X77974832Y-24999695D03*
X175762660Y-78237340D03*
X78250000Y-47502016D03*
X83250000Y-47000000D03*
X125500000Y-24750000D03*
X129000000Y-73750000D03*
X78250000Y-48750006D03*
X125750000Y-49500000D03*
X143000000Y-78000000D03*
X160500471Y-23489590D03*
X149500000Y-67582400D03*
X42750000Y-65250000D03*
X78250000Y-56499994D03*
X85466470Y-80775500D03*
X40500000Y-78250000D03*
X150475010Y-50250000D03*
X28749994Y-27000000D03*
X85000000Y-47000000D03*
X81900000Y-64400000D03*
X35750000Y-42500000D03*
D13*
X34224680Y-57000000D02*
X32987338Y-58237342D01*
X23446000Y-38214600D02*
X21535400Y-38214600D01*
X172600001Y-21849999D02*
X173000000Y-22249998D01*
X21535400Y-38214600D02*
X21500000Y-38250000D01*
X35446000Y-65214600D02*
X31535406Y-65214600D01*
X75992600Y-65214600D02*
X75992600Y-63633298D01*
X64999988Y-58500004D02*
X64649991Y-58850001D01*
X65290998Y-81000000D02*
X67173002Y-81000000D01*
X75243178Y-62883876D02*
X67812022Y-62883876D01*
X49660600Y-57000000D02*
X34224680Y-57000000D01*
X145592358Y-21709311D02*
X153177104Y-21709311D01*
X171992600Y-65214600D02*
X174989590Y-65214600D01*
X23887617Y-82250000D02*
X54920384Y-82250000D01*
X21446000Y-75304000D02*
X21750000Y-75000000D01*
X141446000Y-22287254D02*
X142585977Y-21147277D01*
X55920383Y-83250000D02*
X63040998Y-83250000D01*
X75176994Y-58500004D02*
X64999988Y-58500004D01*
X79446000Y-54230998D02*
X75176994Y-58500004D01*
X63040998Y-83250000D02*
X65290998Y-81000000D01*
X54920384Y-82250000D02*
X55920383Y-83250000D01*
X55446000Y-51214600D02*
X49660600Y-57000000D01*
X174049988Y-82200011D02*
X174499999Y-81750000D01*
X153177104Y-21709311D02*
X153739139Y-21147277D01*
X67812022Y-62883876D02*
X66109991Y-64585907D01*
X153739139Y-21147277D02*
X171897278Y-21147276D01*
X21446000Y-78214600D02*
X21446000Y-75304000D01*
X21446000Y-78214600D02*
X21446000Y-79808383D01*
X142585977Y-21147277D02*
X145030324Y-21147277D01*
X68373013Y-82200011D02*
X174049988Y-82200011D01*
X145030324Y-21147277D02*
X145592358Y-21709311D01*
X31535406Y-65214600D02*
X31500000Y-65250006D01*
X67173002Y-81000000D02*
X68373013Y-82200011D01*
X64649991Y-58850001D02*
X64249992Y-59250000D01*
X174989590Y-65214600D02*
X175024990Y-65250000D01*
X79446000Y-51214600D02*
X79446000Y-54230998D01*
X141446000Y-24214600D02*
X141446000Y-22287254D01*
X171897278Y-21147276D02*
X172600001Y-21849999D01*
X21446000Y-79808383D02*
X23887617Y-82250000D01*
X66109991Y-64585907D02*
X65074979Y-64585907D01*
X75992600Y-63633298D02*
X75243178Y-62883876D01*
X118000000Y-39250000D02*
X120410600Y-39250000D01*
X83446000Y-65214600D02*
X83446000Y-66808383D01*
X83446000Y-65214600D02*
X78785400Y-65214600D01*
X48349978Y-68349978D02*
X47475010Y-67475010D01*
X55035400Y-78214600D02*
X55000000Y-78250000D01*
X103100001Y-48600001D02*
X106959303Y-48600001D01*
X122132201Y-40494584D02*
X121446000Y-39808383D01*
X55214600Y-38214600D02*
X55500000Y-38500000D01*
X75524983Y-68475017D02*
X69901999Y-68475017D01*
X57446000Y-78214600D02*
X55035400Y-78214600D01*
X83446000Y-66808383D02*
X84576136Y-67938519D01*
X128160003Y-40494584D02*
X122132201Y-40494584D01*
X111535400Y-51214600D02*
X111750000Y-51000000D01*
X107992600Y-51214600D02*
X111535400Y-51214600D01*
X69901999Y-68475017D02*
X69776960Y-68349978D01*
X90086801Y-67938519D02*
X95112661Y-62912659D01*
X120410600Y-39250000D02*
X121446000Y-38214600D01*
X103000000Y-48500000D02*
X103100001Y-48600001D01*
X145446000Y-38214600D02*
X144035400Y-38214600D01*
X133101398Y-40464988D02*
X128189599Y-40464988D01*
X128189599Y-40464988D02*
X128160003Y-40494584D01*
X95112661Y-62912659D02*
X95512660Y-62512660D01*
X107992600Y-49633298D02*
X107992600Y-51214600D01*
X144035400Y-38214600D02*
X140942590Y-41307410D01*
X106959303Y-48600001D02*
X107992600Y-49633298D01*
X133943820Y-41307410D02*
X133101398Y-40464988D01*
X47475010Y-67475010D02*
X47475010Y-65214600D01*
X140942590Y-41307410D02*
X133943820Y-41307410D01*
X121446000Y-39808383D02*
X121446000Y-38214600D01*
X78785400Y-65214600D02*
X75524983Y-68475017D01*
X84576136Y-67938519D02*
X90086801Y-67938519D01*
X69776960Y-68349978D02*
X48349978Y-68349978D01*
X53992600Y-38214600D02*
X55214600Y-38214600D01*
X32446000Y-24214600D02*
X30316721Y-26343879D01*
X52464602Y-78214600D02*
X52500002Y-78250000D01*
X38446000Y-38214600D02*
X37410600Y-39250000D01*
X79112618Y-81475001D02*
X84098811Y-81475001D01*
X37410600Y-39250000D02*
X34750000Y-39250000D01*
X30316721Y-26343879D02*
X29939027Y-26343879D01*
X33585978Y-21147276D02*
X36030324Y-21147276D01*
X32446000Y-22287254D02*
X33585978Y-21147276D01*
X77446000Y-78214600D02*
X67739590Y-78214600D01*
X141852724Y-48147276D02*
X123059924Y-48147276D01*
X49992600Y-78214600D02*
X52464602Y-78214600D01*
X125446000Y-78214600D02*
X125446000Y-78804000D01*
X77446000Y-79808383D02*
X79112618Y-81475001D01*
X32446000Y-24214600D02*
X32446000Y-22287254D01*
X123262660Y-80987340D02*
X119987340Y-80987340D01*
X66378676Y-21147276D02*
X68998582Y-23767182D01*
X45585978Y-21147276D02*
X66378676Y-21147276D01*
X125446000Y-78804000D02*
X123262660Y-80987340D01*
X52500002Y-78250000D02*
X56599978Y-82349978D01*
X119992600Y-51214600D02*
X122964600Y-51214600D01*
X123059924Y-48147276D02*
X120463546Y-50743654D01*
X62609327Y-82349978D02*
X66959305Y-78000000D01*
X66959305Y-78000000D02*
X67524990Y-78000000D01*
X77446000Y-78214600D02*
X77446000Y-79808383D01*
X84098811Y-81475001D02*
X84664496Y-81475001D01*
X145000000Y-45000000D02*
X141852724Y-48147276D01*
X36030324Y-21147276D02*
X36083059Y-21200011D01*
X56599978Y-82349978D02*
X62609327Y-82349978D01*
X95446000Y-65214600D02*
X95445992Y-65214608D01*
X67739590Y-78214600D02*
X67524990Y-78000000D01*
X122964600Y-51214600D02*
X124500000Y-52750000D01*
X45533243Y-21200011D02*
X45585978Y-21147276D01*
X150785400Y-24214600D02*
X150250000Y-24750000D01*
X153446000Y-24214600D02*
X150785400Y-24214600D01*
X68998582Y-23767182D02*
X69446000Y-24214600D01*
X36083059Y-21200011D02*
X45533243Y-21200011D01*
X120463546Y-50743654D02*
X119992600Y-51214600D01*
X89750000Y-52910600D02*
X89750000Y-53000000D01*
X131977623Y-54750000D02*
X134477623Y-57250000D01*
X152500000Y-78250000D02*
X150028000Y-78250000D01*
X64934315Y-57500000D02*
X65184315Y-57250000D01*
X150028000Y-78250000D02*
X149992600Y-78214600D01*
X107785400Y-38214600D02*
X107750000Y-38250000D01*
X145316710Y-52183290D02*
X150925021Y-52183290D01*
X110446000Y-38214600D02*
X107785400Y-38214600D01*
X107750000Y-38250000D02*
X103949511Y-34449511D01*
X54057188Y-26500000D02*
X54972187Y-27414999D01*
X150925021Y-51735579D02*
X150925021Y-52183290D01*
X61410600Y-38250000D02*
X61446000Y-38214600D01*
X57139499Y-27414999D02*
X58224500Y-28500000D01*
X65184315Y-57250000D02*
X65750000Y-57250000D01*
X34750000Y-57500000D02*
X64934315Y-57500000D01*
X109750000Y-54750000D02*
X98250000Y-54750000D01*
X26992600Y-65214600D02*
X27035400Y-65214600D01*
X134477623Y-57250000D02*
X140250000Y-57250000D01*
X62050489Y-34449511D02*
X58250000Y-38250000D01*
X27035400Y-65214600D02*
X34750000Y-57500000D01*
X91446000Y-51214600D02*
X89750000Y-52910600D01*
X44446000Y-24214600D02*
X44446000Y-24414051D01*
X109750000Y-54750000D02*
X131977623Y-54750000D01*
X54972187Y-27414999D02*
X57139499Y-27414999D01*
X58250000Y-38250000D02*
X61410600Y-38250000D01*
X103949511Y-34449511D02*
X62050489Y-34449511D01*
X140250000Y-57250000D02*
X145316710Y-52183290D01*
X44446000Y-24414051D02*
X46531949Y-26500000D01*
X151446000Y-51214600D02*
X150925021Y-51735579D01*
X46531949Y-26500000D02*
X54057188Y-26500000D01*
X74446000Y-38214600D02*
X72632302Y-38214600D01*
X76569064Y-44221934D02*
X72624968Y-44221934D01*
X180446000Y-65214600D02*
X180446000Y-63446000D01*
X185992600Y-78214600D02*
X185992600Y-69282720D01*
X143446000Y-63238315D02*
X148259294Y-58425021D01*
X148259294Y-58425021D02*
X148934315Y-58425021D01*
X175250000Y-58250000D02*
X150240706Y-58250000D01*
X123750000Y-61250000D02*
X115500010Y-61250000D01*
X181834316Y-61850001D02*
X185600001Y-61850001D01*
X180446000Y-63238317D02*
X181834316Y-61850001D01*
X64250000Y-24250000D02*
X60028000Y-24250000D01*
X72632302Y-38214600D02*
X72624968Y-38221934D01*
X109500000Y-41750000D02*
X86500000Y-41750000D01*
X180446000Y-63446000D02*
X175250000Y-58250000D01*
X157446000Y-38214600D02*
X156250004Y-37018604D01*
X141457200Y-34750000D02*
X156250004Y-34750000D01*
X148934315Y-58425021D02*
X149500000Y-58425021D01*
X110750000Y-43000000D02*
X109500000Y-41750000D01*
X180446000Y-65214600D02*
X180446000Y-63238317D01*
X150240706Y-58250000D02*
X150065685Y-58425021D01*
X80425519Y-40365479D02*
X76569064Y-44221934D01*
X140353190Y-68307410D02*
X130807410Y-68307410D01*
X185600001Y-61850001D02*
X186000000Y-62250000D01*
X60028000Y-24250000D02*
X59992600Y-24214600D01*
X86500000Y-41750000D02*
X85115479Y-40365479D01*
X143446000Y-65214600D02*
X143446000Y-63238315D01*
X185992600Y-69282720D02*
X186012660Y-69262660D01*
X150065685Y-58425021D02*
X149500000Y-58425021D01*
X143446000Y-65214600D02*
X140353190Y-68307410D01*
X130807410Y-68307410D02*
X123750000Y-61250000D01*
X85115479Y-40365479D02*
X80425519Y-40365479D01*
X156250004Y-37018604D02*
X156250004Y-34750000D01*
X137992600Y-38214600D02*
X141457200Y-34750000D01*
X26446000Y-49287254D02*
X33975833Y-41757421D01*
X102310599Y-27350001D02*
X104993599Y-24667001D01*
X71992600Y-51214600D02*
X73785402Y-51214600D01*
X77500000Y-42000000D02*
X81285400Y-38214600D01*
X71992600Y-48242600D02*
X70512660Y-46762660D01*
X175000000Y-52875000D02*
X171099519Y-56775481D01*
X171099519Y-56775481D02*
X152525487Y-56775481D01*
X102310599Y-27350001D02*
X85715684Y-27350001D01*
X85715684Y-27350001D02*
X84815681Y-28250004D01*
X84815681Y-28250004D02*
X84315685Y-28250004D01*
X175000000Y-52750000D02*
X175000000Y-52875000D01*
X152525487Y-56775481D02*
X152000006Y-56250000D01*
X71992600Y-51214600D02*
X71992600Y-48242600D01*
X169446000Y-78214600D02*
X161992600Y-78214600D01*
X81285400Y-38214600D02*
X85446000Y-38214600D01*
X57250000Y-39500000D02*
X59989844Y-39500000D01*
X103023003Y-27350001D02*
X102310599Y-27350001D01*
X153285400Y-65214600D02*
X153262660Y-65237340D01*
X84315685Y-28250004D02*
X83750000Y-28250004D01*
X75850001Y-49150001D02*
X76250000Y-48750002D01*
X169992600Y-26192746D02*
X167185346Y-29000000D01*
X62489844Y-42000000D02*
X77500000Y-42000000D01*
X26446000Y-51214600D02*
X26446000Y-49287254D01*
X169992600Y-24214600D02*
X171714600Y-24214600D01*
X104673002Y-29000000D02*
X103023003Y-27350001D01*
X167185346Y-29000000D02*
X104673002Y-29000000D01*
X59989844Y-39500000D02*
X62489844Y-42000000D01*
X169992600Y-24214600D02*
X169992600Y-26192746D01*
X104993599Y-24667001D02*
X105446000Y-24214600D01*
X155446000Y-65214600D02*
X153285400Y-65214600D01*
X171714600Y-24214600D02*
X172000000Y-24500000D01*
X73785402Y-51214600D02*
X75850001Y-49150001D01*
X81285400Y-38214600D02*
X81250000Y-38250000D01*
X33975833Y-41757421D02*
X54992579Y-41757421D01*
X54992579Y-41757421D02*
X57250000Y-39500000D01*
X178325011Y-46149999D02*
X178725010Y-45750000D01*
X142725001Y-57225001D02*
X171285717Y-57225001D01*
X179446000Y-24214600D02*
X178935598Y-24725002D01*
X114490700Y-21259300D02*
X114602724Y-21147276D01*
X62854598Y-82799989D02*
X56299989Y-82799989D01*
X81446000Y-22287254D02*
X81446000Y-22667216D01*
X142080504Y-56580504D02*
X142725001Y-57225001D01*
X178998582Y-23767182D02*
X179446000Y-24214600D01*
X179910600Y-45750000D02*
X178725010Y-45750000D01*
X178935598Y-24725002D02*
X173838235Y-24725002D01*
X145216724Y-20697265D02*
X145778758Y-21259300D01*
X167992600Y-51214600D02*
X173260410Y-51214600D01*
X33446000Y-79808383D02*
X33446000Y-78214600D01*
X145778758Y-21259300D02*
X152990702Y-21259300D01*
X35387617Y-81750000D02*
X33446000Y-79808383D01*
X171285717Y-57225001D02*
X174498061Y-54012657D01*
X173260410Y-51214600D02*
X178325011Y-46149999D01*
X55250000Y-81750000D02*
X35387617Y-81750000D01*
X175928665Y-20697265D02*
X178998582Y-23767182D01*
X91514401Y-21515012D02*
X87949599Y-21515012D01*
X81446000Y-22667216D02*
X81446000Y-24214600D01*
X152990702Y-21259300D02*
X153552735Y-20697265D01*
X173838235Y-24725002D02*
X173817939Y-24704706D01*
X117446000Y-24214600D02*
X114490700Y-21259300D01*
X33446000Y-78214600D02*
X30785400Y-78214600D01*
X114602724Y-21147276D02*
X141949567Y-21147276D01*
X30785400Y-78214600D02*
X30750000Y-78250000D01*
X81446000Y-24214600D02*
X78214608Y-24214600D01*
X141949567Y-21147276D02*
X142399578Y-20697265D01*
X114378676Y-21147276D02*
X91882136Y-21147276D01*
X56299989Y-82799989D02*
X55250000Y-81750000D01*
X87581864Y-21147276D02*
X82585978Y-21147276D01*
X43410600Y-51250000D02*
X43446000Y-51214600D01*
X82585978Y-21147276D02*
X81446000Y-22287254D01*
X91882136Y-21147276D02*
X91514401Y-21515012D01*
X153552735Y-20697265D02*
X175928665Y-20697265D01*
X68500000Y-80500000D02*
X65154587Y-80500000D01*
X173817939Y-24704706D02*
X173417940Y-24304707D01*
X87949599Y-21515012D02*
X87581864Y-21147276D01*
X181446000Y-44214600D02*
X179910600Y-45750000D01*
X78214608Y-24214600D02*
X78000000Y-23999992D01*
X41500000Y-51250000D02*
X43410600Y-51250000D01*
X65154587Y-80500000D02*
X62854598Y-82799989D01*
X174498061Y-54012657D02*
X175012663Y-54012657D01*
X114490700Y-21259300D02*
X114378676Y-21147276D01*
X142399578Y-20697265D02*
X145216724Y-20697265D01*
X91328001Y-21065001D02*
X92143002Y-20250000D01*
X133992600Y-24214600D02*
X136464600Y-24214600D01*
X31979737Y-20697262D02*
X87768260Y-20697262D01*
X25992600Y-24214600D02*
X28462399Y-24214600D01*
X69934315Y-67750000D02*
X70500000Y-67750000D01*
X122811907Y-25475001D02*
X120329068Y-27957840D01*
X144557410Y-41307410D02*
X143662659Y-40412659D01*
X72200000Y-74700000D02*
X94049990Y-74700000D01*
X133992600Y-24214600D02*
X133992600Y-22633298D01*
X102028000Y-38250000D02*
X101992600Y-38214600D01*
X88135999Y-21065001D02*
X91328001Y-21065001D01*
X173442590Y-41307410D02*
X144557410Y-41307410D01*
X120329068Y-27957840D02*
X105221847Y-27957840D01*
X173992600Y-38214600D02*
X173992600Y-40757400D01*
X94049990Y-74700000D02*
X104000000Y-64749990D01*
X129689126Y-21883876D02*
X126098001Y-25475001D01*
X92143002Y-20250000D02*
X99684315Y-20250000D01*
X138275750Y-51214600D02*
X136675020Y-49613870D01*
X69934299Y-67750016D02*
X69934315Y-67750000D01*
X105221847Y-27957840D02*
X104656162Y-27957840D01*
X131992600Y-51214600D02*
X135074290Y-51214600D01*
X97992600Y-24214600D02*
X100714600Y-24214600D01*
X87768260Y-20697262D02*
X88135999Y-21065001D01*
X136464600Y-24214600D02*
X136499998Y-24249998D01*
X70250000Y-72750000D02*
X72200000Y-74700000D01*
X173992600Y-40757400D02*
X173442590Y-41307410D01*
X59446000Y-66808383D02*
X60387633Y-67750016D01*
X139446000Y-51214600D02*
X138275750Y-51214600D01*
X104000000Y-38250000D02*
X102028000Y-38250000D01*
X60387633Y-67750016D02*
X69934299Y-67750016D01*
X59446000Y-65214600D02*
X59446000Y-66808383D01*
X28462399Y-24214600D02*
X31979737Y-20697262D01*
X133243178Y-21883876D02*
X129689126Y-21883876D01*
X143662659Y-40412659D02*
X143262660Y-40012660D01*
X133992600Y-22633298D02*
X133243178Y-21883876D01*
X135074290Y-51214600D02*
X136675020Y-49613870D01*
X99684315Y-20250000D02*
X100250000Y-20250000D01*
X100714600Y-24214600D02*
X101000000Y-24500000D01*
X126098001Y-25475001D02*
X122811907Y-25475001D01*
X85992600Y-24214600D02*
X85992600Y-26192746D01*
X84877936Y-27307410D02*
X57667614Y-27307410D01*
X69590564Y-68799989D02*
X70040575Y-69250000D01*
X85992600Y-26192746D02*
X84877936Y-27307410D01*
X48243178Y-21883876D02*
X48992600Y-22633298D01*
X45852724Y-75147276D02*
X52200011Y-68799989D01*
X55446000Y-24214600D02*
X52981400Y-21750000D01*
X71250000Y-56000000D02*
X69000000Y-56000000D01*
X52200011Y-68799989D02*
X69590564Y-68799989D01*
X93446000Y-24214600D02*
X85992600Y-24214600D01*
X70684315Y-69250000D02*
X71250000Y-69250000D01*
X51457200Y-21750000D02*
X48992600Y-24214600D01*
X39323324Y-21883876D02*
X48243178Y-21883876D01*
X69000000Y-56000000D02*
X67446000Y-54446000D01*
X25992600Y-78214600D02*
X29059924Y-75147276D01*
X67446000Y-54446000D02*
X67446000Y-51214600D01*
X55446000Y-25085796D02*
X55446000Y-24214600D01*
X67446000Y-51214600D02*
X65000000Y-48768600D01*
X65000000Y-48768600D02*
X65000000Y-48750000D01*
X57667614Y-27307410D02*
X55446000Y-25085796D01*
X29059924Y-75147276D02*
X45852724Y-75147276D01*
X52981400Y-21750000D02*
X51457200Y-21750000D01*
X36992600Y-24214600D02*
X39323324Y-21883876D01*
X70040575Y-69250000D02*
X70684315Y-69250000D01*
X48992600Y-22633298D02*
X48992600Y-24214600D01*
X114992600Y-35122602D02*
X115127398Y-35122602D01*
X47957200Y-33250000D02*
X42992600Y-38214600D01*
X129231400Y-34000000D02*
X133446000Y-38214600D01*
X127609961Y-26050639D02*
X127538775Y-26050639D01*
X167446000Y-63054008D02*
X170850001Y-59650007D01*
X129231400Y-34000000D02*
X133731400Y-29500000D01*
X174975010Y-29500000D02*
X179075011Y-33600001D01*
X129446000Y-24214600D02*
X127609961Y-26050639D01*
X105885704Y-35750000D02*
X114365202Y-35750000D01*
X179475010Y-34000000D02*
X183992600Y-29482410D01*
X114365202Y-35750000D02*
X114992600Y-35122602D01*
X133731400Y-29500000D02*
X174975010Y-29500000D01*
X75000000Y-33250000D02*
X75947598Y-33250000D01*
X179075011Y-33600001D02*
X179475010Y-34000000D01*
X75000000Y-33250000D02*
X47957200Y-33250000D01*
X61992600Y-78214600D02*
X69457200Y-70750000D01*
X110028000Y-24250000D02*
X109992600Y-24214600D01*
X115127398Y-35122602D02*
X116250000Y-34000000D01*
X104135704Y-34000000D02*
X105885704Y-35750000D01*
X183992600Y-29482410D02*
X183992600Y-24214600D01*
X69457200Y-70750000D02*
X71250000Y-70750000D01*
X170850001Y-59650007D02*
X171250000Y-59250008D01*
X113250000Y-24250000D02*
X110028000Y-24250000D01*
X116250000Y-34000000D02*
X129231400Y-34000000D01*
X114992600Y-35122602D02*
X114992600Y-38214600D01*
X75947598Y-33250000D02*
X76697598Y-34000000D01*
X76697598Y-34000000D02*
X104135704Y-34000000D01*
X167446000Y-65214600D02*
X167446000Y-63054008D01*
X185243178Y-41883876D02*
X167997465Y-41883876D01*
X69154176Y-69250000D02*
X69904176Y-70000000D01*
X66028000Y-38250000D02*
X70750000Y-38250000D01*
X89992600Y-38214600D02*
X90499800Y-38214600D01*
X97446000Y-39808383D02*
X97446000Y-38214600D01*
X45446000Y-76287254D02*
X51733254Y-70000000D01*
X46360611Y-41299989D02*
X48993599Y-38667001D01*
X98937606Y-41299989D02*
X97446000Y-39808383D01*
X185992600Y-42633298D02*
X185243178Y-41883876D01*
X41877936Y-41307410D02*
X41885357Y-41299989D01*
X48993599Y-38667001D02*
X49446000Y-38214600D01*
X167871010Y-41757421D02*
X133757421Y-41757421D01*
X57225001Y-38975001D02*
X60101255Y-38975001D01*
X109693821Y-41307410D02*
X109686400Y-41299989D01*
X51733254Y-70000000D02*
X51750000Y-70000000D01*
X109686400Y-41299989D02*
X98937606Y-41299989D01*
X133757421Y-41757421D02*
X133307410Y-41307410D01*
X185992600Y-44214600D02*
X185992600Y-42633298D01*
X78992600Y-36633298D02*
X77534759Y-35175457D01*
X167997465Y-41883876D02*
X167871010Y-41757421D01*
X133307410Y-41307410D02*
X109693821Y-41307410D01*
X41885357Y-41299989D02*
X46360611Y-41299989D01*
X78992600Y-38214600D02*
X78992600Y-36633298D01*
X49446000Y-38214600D02*
X49446000Y-36287254D01*
X45446000Y-78214600D02*
X45446000Y-76287254D01*
X89243178Y-35883876D02*
X89992600Y-36633298D01*
X72934315Y-70000000D02*
X73500000Y-70000000D01*
X73824543Y-35175457D02*
X74784177Y-35175457D01*
X81323324Y-35883876D02*
X89243178Y-35883876D01*
X53397276Y-35147276D02*
X57225001Y-38975001D01*
X74784177Y-35175457D02*
X75349862Y-35175457D01*
X69904176Y-70000000D02*
X72934315Y-70000000D01*
X65992600Y-38214600D02*
X66028000Y-38250000D01*
X89992600Y-36633298D02*
X89992600Y-38214600D01*
X90499800Y-38214600D02*
X97446000Y-38214600D01*
X51750000Y-70000000D02*
X52500000Y-69250000D01*
X62626254Y-41500000D02*
X67500000Y-41500000D01*
X31085410Y-41307410D02*
X41877936Y-41307410D01*
X60101255Y-38975001D02*
X62626254Y-41500000D01*
X52500000Y-69250000D02*
X69154176Y-69250000D01*
X49446000Y-36287254D02*
X50585978Y-35147276D01*
X77534759Y-35175457D02*
X75915547Y-35175457D01*
X70750000Y-38250000D02*
X73824543Y-35175457D01*
X27992600Y-38214600D02*
X31085410Y-41307410D01*
X50585978Y-35147276D02*
X53397276Y-35147276D01*
X67500000Y-41500000D02*
X70750000Y-38250000D01*
X75915547Y-35175457D02*
X75349862Y-35175457D01*
X78992600Y-38214600D02*
X81323324Y-35883876D01*
X152500000Y-47250000D02*
X159481400Y-47250000D01*
X145992600Y-26192746D02*
X143935360Y-28249986D01*
X157446000Y-78214600D02*
X155535400Y-78214600D01*
X136315685Y-28249986D02*
X135750000Y-28249986D01*
X161992600Y-38214600D02*
X169446000Y-38214600D01*
X126028000Y-38250000D02*
X125992600Y-38214600D01*
X160439610Y-24214600D02*
X160975010Y-24750000D01*
X131000000Y-38250000D02*
X126028000Y-38250000D01*
X153363500Y-22159322D02*
X153638946Y-21883876D01*
X153638946Y-21883876D02*
X157243178Y-21883876D01*
X22446000Y-66808383D02*
X23132201Y-67494584D01*
X161992600Y-38214600D02*
X161992600Y-34725865D01*
X74250000Y-58000000D02*
X74850001Y-57399999D01*
X145992600Y-24214600D02*
X148047878Y-22159322D01*
X27824810Y-65193644D02*
X35018454Y-58000000D01*
X148047878Y-22159322D02*
X153363500Y-22159322D01*
X155535400Y-78214600D02*
X155500000Y-78250000D01*
X157243178Y-21883876D02*
X157992600Y-22633298D01*
X74850001Y-57399999D02*
X75250000Y-57000000D01*
X22446000Y-65214600D02*
X22446000Y-66808383D01*
X145992600Y-24214600D02*
X145992600Y-26192746D01*
X35018454Y-58000000D02*
X74250000Y-58000000D01*
X27824810Y-66462098D02*
X27824810Y-65193644D01*
X26792324Y-67494584D02*
X27824810Y-66462098D01*
X157992600Y-24214600D02*
X160439610Y-24214600D01*
X159481400Y-47250000D02*
X163446000Y-51214600D01*
X161992600Y-34725865D02*
X160823664Y-33556929D01*
X143935360Y-28249986D02*
X136315685Y-28249986D01*
X157992600Y-22633298D02*
X157992600Y-24214600D01*
X23132201Y-67494584D02*
X26792324Y-67494584D01*
X94109302Y-47750000D02*
X79063669Y-47750000D01*
X145860635Y-51214600D02*
X145960670Y-51314635D01*
X65182202Y-46024998D02*
X72848001Y-46024999D01*
X72848001Y-46024999D02*
X74325018Y-47502016D01*
X73992600Y-24214600D02*
X74777695Y-24999695D01*
X79063669Y-47750000D02*
X78815685Y-47502016D01*
X59992600Y-51214600D02*
X65182202Y-46024998D01*
X133124991Y-57770368D02*
X133524990Y-57370369D01*
X95992600Y-51214600D02*
X95992600Y-49633298D01*
X77684315Y-47502016D02*
X78250000Y-47502016D01*
X131446000Y-59449359D02*
X133124991Y-57770368D01*
X95992600Y-49633298D02*
X94109302Y-47750000D01*
X173992600Y-78214600D02*
X175739920Y-78214600D01*
X74325018Y-47502016D02*
X77684315Y-47502016D01*
X78815685Y-47502016D02*
X78250000Y-47502016D01*
X149992600Y-38214600D02*
X151464602Y-38214600D01*
X175739920Y-78214600D02*
X175762660Y-78237340D01*
X186000000Y-66222000D02*
X186000000Y-68000002D01*
X175049989Y-57700011D02*
X133854632Y-57700011D01*
X131446000Y-65214600D02*
X131446000Y-59449359D01*
X143992600Y-51214600D02*
X145860635Y-51214600D01*
X74777695Y-24999695D02*
X77409147Y-24999695D01*
X95992600Y-51214600D02*
X99956879Y-47250321D01*
X77409147Y-24999695D02*
X77974832Y-24999695D01*
X99956879Y-47250321D02*
X132909316Y-47250321D01*
X133854632Y-57700011D02*
X133524990Y-57370369D01*
X175750000Y-57000000D02*
X175049989Y-57700011D01*
X184992600Y-65214600D02*
X186000000Y-66222000D01*
X151464602Y-38214600D02*
X152750002Y-39500000D01*
X132909316Y-47250321D02*
X133475001Y-47250321D01*
X84456962Y-51678962D02*
X83992600Y-51214600D01*
X142981400Y-75750000D02*
X131000000Y-75750000D01*
X175926996Y-79000000D02*
X180660600Y-79000000D01*
X62570790Y-48000000D02*
X64995803Y-45574987D01*
X180660600Y-79000000D02*
X180993599Y-78667001D01*
X78649999Y-48350007D02*
X78250000Y-48750006D01*
X83992600Y-51214600D02*
X83992600Y-49633298D01*
X82709297Y-48349995D02*
X78650011Y-48349995D01*
X78650011Y-48349995D02*
X78649999Y-48350007D01*
X145446000Y-79808383D02*
X147387617Y-81750000D01*
X127446000Y-51214600D02*
X125166016Y-53494584D01*
X83992600Y-49633298D02*
X82709297Y-48349995D01*
X30992600Y-53242600D02*
X34250000Y-56500000D01*
X104132201Y-53494584D02*
X103446000Y-52808383D01*
X74209412Y-46750000D02*
X82434315Y-46750000D01*
X30992600Y-51214600D02*
X30992600Y-53242600D01*
X54639190Y-51360810D02*
X54639190Y-49941788D01*
X116132201Y-53494584D02*
X115446000Y-52808383D01*
X147387617Y-81750000D02*
X173176996Y-81750000D01*
X121992600Y-24214600D02*
X124964600Y-24214600D01*
X131000000Y-75750000D02*
X129000000Y-73750000D01*
X125750000Y-49518600D02*
X127446000Y-51214600D01*
X97119588Y-54307410D02*
X87085410Y-54307410D01*
X34250000Y-56500000D02*
X49500000Y-56500000D01*
X125750000Y-49500000D02*
X125750000Y-49518600D01*
X173176996Y-81750000D02*
X175926996Y-79000000D01*
X100212398Y-51214600D02*
X97119588Y-54307410D01*
X56580978Y-48000000D02*
X62570790Y-48000000D01*
X49500000Y-56500000D02*
X54639190Y-51360810D01*
X145446000Y-78214600D02*
X142981400Y-75750000D01*
X145446000Y-78214600D02*
X145446000Y-79808383D01*
X124964600Y-24214600D02*
X125500000Y-24750000D01*
X87085410Y-54307410D02*
X84456962Y-51678962D01*
X103446000Y-52808383D02*
X103446000Y-51214600D01*
X64995803Y-45574987D02*
X73034402Y-45574990D01*
X180993599Y-78667001D02*
X181446000Y-78214600D01*
X73034402Y-45574990D02*
X74209412Y-46750000D01*
X125166016Y-53494584D02*
X116132201Y-53494584D01*
X113166016Y-53494584D02*
X104132201Y-53494584D01*
X115446000Y-52808383D02*
X115446000Y-51214600D01*
X115446000Y-51214600D02*
X113166016Y-53494584D01*
X82684315Y-47000000D02*
X83250000Y-47000000D01*
X103446000Y-51214600D02*
X100212398Y-51214600D01*
X82434315Y-46750000D02*
X82684315Y-47000000D01*
X54639190Y-49941788D02*
X56580978Y-48000000D01*
X51992600Y-63633298D02*
X51992600Y-65214600D01*
X40028000Y-65250000D02*
X39992600Y-65214600D01*
X164720990Y-23489590D02*
X161066156Y-23489590D01*
X147992600Y-65214600D02*
X149500000Y-66722000D01*
X128435346Y-81750000D02*
X86338847Y-81750000D01*
X42830524Y-62883876D02*
X51243178Y-62883876D01*
X129992600Y-78214600D02*
X133214600Y-78214600D01*
X63243178Y-62883876D02*
X63992600Y-63633298D01*
X37992600Y-78214600D02*
X40464600Y-78214600D01*
X85364347Y-80775500D02*
X85466470Y-80775500D01*
X51992600Y-65214600D02*
X54323324Y-62883876D01*
X40464600Y-78214600D02*
X40500000Y-78250000D01*
X39992600Y-65214600D02*
X40499800Y-65214600D01*
X77850001Y-56899993D02*
X78250000Y-56499994D01*
X155992600Y-51214600D02*
X155992600Y-49633298D01*
X68475901Y-59149997D02*
X75599997Y-59149997D01*
X51243178Y-62883876D02*
X51992600Y-63633298D01*
X82803447Y-78214600D02*
X85364347Y-80775500D01*
X150475010Y-49684315D02*
X150475010Y-50250000D01*
X165446000Y-24214600D02*
X164720990Y-23489590D01*
X155243178Y-48883876D02*
X151275449Y-48883876D01*
X149500000Y-66722000D02*
X149500000Y-67582400D01*
X40499800Y-65214600D02*
X42830524Y-62883876D01*
X155992600Y-49633298D02*
X155243178Y-48883876D01*
X54323324Y-62883876D02*
X63243178Y-62883876D01*
X42750000Y-65250000D02*
X40028000Y-65250000D01*
X151275449Y-48883876D02*
X150475010Y-49684315D01*
X63992600Y-63633298D02*
X63992600Y-65214600D01*
X85466470Y-80877623D02*
X85466470Y-80775500D01*
X142785400Y-78214600D02*
X143000000Y-78000000D01*
X75599997Y-59149997D02*
X77850001Y-56899993D01*
X86338847Y-81750000D02*
X85466470Y-80877623D01*
X129992600Y-80192746D02*
X128435346Y-81750000D01*
X133214600Y-78214600D02*
X142785400Y-78214600D01*
X81992600Y-78214600D02*
X82803447Y-78214600D01*
X161066156Y-23489590D02*
X160500471Y-23489590D01*
X129992600Y-78214600D02*
X129992600Y-80192746D01*
X63992600Y-63633298D02*
X68475901Y-59149997D01*
X97884301Y-61524999D02*
X95475001Y-61524999D01*
X37065685Y-42250000D02*
X46250000Y-42250000D01*
X111992600Y-63633298D02*
X110109302Y-61750000D01*
X49285400Y-51214600D02*
X47992600Y-51214600D01*
X46250000Y-42250000D02*
X47992600Y-43992600D01*
X28349995Y-27399999D02*
X28749994Y-27000000D01*
X23037636Y-27400019D02*
X28349975Y-27400019D01*
X158427925Y-68757421D02*
X130621703Y-68757421D01*
X28349975Y-27400019D02*
X28349995Y-27399999D01*
X111992600Y-65214600D02*
X111992600Y-63633298D01*
X72179009Y-67494584D02*
X75792324Y-67494584D01*
X112463546Y-64743654D02*
X111992600Y-65214600D01*
X21446000Y-25808383D02*
X23037636Y-27400019D01*
X99992600Y-63633298D02*
X97884301Y-61524999D01*
X35750000Y-42500000D02*
X36815685Y-42500000D01*
X99992600Y-65214600D02*
X99992600Y-63633298D01*
X53000000Y-47500000D02*
X49285400Y-51214600D01*
X86412130Y-62659280D02*
X83640720Y-62659280D01*
X71446000Y-65214600D02*
X70993599Y-65667001D01*
X70993599Y-66309174D02*
X72179009Y-67494584D01*
X87992600Y-64239750D02*
X86412130Y-62659280D01*
X123992600Y-63633298D02*
X123109302Y-62750000D01*
X95475001Y-61524999D02*
X91785400Y-65214600D01*
X83640720Y-62659280D02*
X81900000Y-64400000D01*
X47992600Y-43992600D02*
X47992600Y-51214600D01*
X73220803Y-45124980D02*
X64809398Y-45124980D01*
X159992600Y-65214600D02*
X159992600Y-67192746D01*
X123109302Y-62750000D02*
X114457200Y-62750000D01*
X84274998Y-46274998D02*
X74370821Y-46274998D01*
X64809398Y-45124980D02*
X62434378Y-47500000D01*
X85000000Y-47000000D02*
X84274998Y-46274998D01*
X123992600Y-65214600D02*
X123992600Y-63633298D01*
X75792324Y-67494584D02*
X78886908Y-64400000D01*
X70993599Y-65667001D02*
X70993599Y-66309174D01*
X74370821Y-46274998D02*
X73220803Y-45124980D01*
X103457200Y-61750000D02*
X100463546Y-64743654D01*
X130621703Y-68757421D02*
X127078882Y-65214600D01*
X62434378Y-47500000D02*
X53000000Y-47500000D01*
X78886908Y-64400000D02*
X81900000Y-64400000D01*
X21446000Y-24214600D02*
X21446000Y-25808383D01*
X159992600Y-67192746D02*
X158427925Y-68757421D01*
X87992600Y-65214600D02*
X87992600Y-64239750D01*
X127078882Y-65214600D02*
X123992600Y-65214600D01*
X110109302Y-61750000D02*
X103457200Y-61750000D01*
X36815685Y-42500000D02*
X37065685Y-42250000D01*
X114457200Y-62750000D02*
X112463546Y-64743654D01*
X91785400Y-65214600D02*
X87992600Y-65214600D01*
X100463546Y-64743654D02*
X99992600Y-65214600D01*
M02*
