G04 #@! TF.GenerationSoftware,KiCad,Pcbnew,6.0.4-6f826c9f35~116~ubuntu20.04.1*
G04 #@! TF.CreationDate,2022-04-24T22:14:46+02:00*
G04 #@! TF.ProjectId,keyboard,6b657962-6f61-4726-942e-6b696361645f,rev?*
G04 #@! TF.SameCoordinates,Original*
G04 #@! TF.FileFunction,Soldermask,Bot*
G04 #@! TF.FilePolarity,Negative*
%FSLAX46Y46*%
G04 Gerber Fmt 4.6, Leading zero omitted, Abs format (unit mm)*
G04 Created by KiCad (PCBNEW 6.0.4-6f826c9f35~116~ubuntu20.04.1) date 2022-04-24 22:14:46*
%MOMM*%
%LPD*%
G01*
G04 APERTURE LIST*
%ADD10C,5.000000*%
%ADD11C,3.000000*%
%ADD12R,0.610000X2.000000*%
%ADD13R,2.680000X3.600000*%
G04 APERTURE END LIST*
D10*
X53732000Y-30240000D03*
X101732000Y-30240000D03*
X81732000Y-43240000D03*
X31732000Y-70240000D03*
X66232000Y-84240000D03*
X177732000Y-84240000D03*
X103732000Y-71240000D03*
X79732000Y-71240000D03*
D11*
X53750000Y-17750000D03*
X89732000Y-17740000D03*
X125232000Y-17740000D03*
X162232000Y-17740000D03*
X189732000Y-57240000D03*
X189732000Y-84240000D03*
X153732000Y-84240000D03*
X125732000Y-85740000D03*
X89732000Y-85740000D03*
X53232000Y-84240000D03*
X17232000Y-84240000D03*
X17232000Y-57240000D03*
X57732000Y-43740000D03*
X129732000Y-43740000D03*
X165732000Y-43740000D03*
X87232000Y-57240000D03*
D12*
X64250000Y-62050000D03*
X65250000Y-62050000D03*
X66250000Y-62050000D03*
X67250000Y-62050000D03*
X68250000Y-62050000D03*
X69250000Y-62050000D03*
X70250000Y-62050000D03*
X71250000Y-62050000D03*
X72250000Y-62050000D03*
X73250000Y-62050000D03*
X74250000Y-62050000D03*
X75250000Y-62050000D03*
X76250000Y-62050000D03*
X77250000Y-62050000D03*
X78250000Y-62050000D03*
X79250000Y-62050000D03*
D13*
X82240000Y-59250000D03*
X61260000Y-59250000D03*
M02*
