M48
; DRILL file {KiCad 6.0.4-6f826c9f35~116~ubuntu20.04.1} date So 24 Apr 2022 22:15:15 CEST
; FORMAT={-:-/ absolute / inch / decimal}
; #@! TF.CreationDate,2022-04-24T22:15:15+02:00
; #@! TF.GenerationSoftware,Kicad,Pcbnew,6.0.4-6f826c9f35~116~ubuntu20.04.1
; #@! TF.FileFunction,Plated,1,2,PTH
FMAT,2
INCH
; #@! TA.AperFunction,Plated,PTH,ViaDrill
T1C0.0157
%
G90
G05
T1
X0.8465Y-1.5059
X0.8563Y-2.9528
X1.1319Y-1.063
X1.1787Y-1.0372
X1.2106Y-3.0807
X1.2402Y-2.5689
X1.2987Y-2.2928
X1.3681Y-1.5453
X1.4075Y-1.6732
X1.5945Y-3.0807
X1.6339Y-2.0177
X1.6831Y-2.5689
X1.8691Y-2.5675
X2.0669Y-3.0807
X2.1654Y-3.0807
X2.1829Y-0.9533
X2.1829Y-2.0163
X2.185Y-1.5157
X2.2923Y-1.122
X2.2933Y-1.5059
X2.5295Y-2.3327
X2.5295Y-0.9547
X2.5591Y-1.9193
X2.562Y-2.5428
X2.5886Y-2.2539
X2.6585Y-3.0709
X2.6969Y-3.1693
X2.7657Y-2.8642
X2.7756Y-2.6673
X2.7761Y-1.841
X2.8051Y-2.2047
X2.8051Y-2.7264
X2.8051Y-2.7854
X2.8593Y-1.5048
X2.8593Y-1.741
X2.8937Y-2.7559
X2.9528Y-1.3091
X2.9626Y-2.2441
X2.9665Y-1.3849
X3.002Y-1.9193
X3.0512Y-1.6535
X3.0699Y-0.9842
X3.0709Y-0.9449
X3.0807Y-1.8702
X3.0807Y-1.9193
X3.0807Y-2.2244
X3.1988Y-1.5059
X3.2244Y-2.5354
X3.2776Y-1.8504
X3.2972Y-1.1122
X3.3332Y-3.2077
X3.3465Y-1.8504
X3.3648Y-3.1801
X3.5335Y-2.0866
X3.7577Y-2.5675
X3.7603Y-2.4611
X3.8681Y-2.1555
X3.9469Y-0.7972
X3.9764Y-0.9646
X4.0551Y-1.9094
X4.0945Y-1.5059
X4.0945Y-2.5492
X4.1203Y-1.1007
X4.2302Y-2.5675
X4.2421Y-1.5059
X4.3209Y-2.1555
X4.3602Y-1.6929
X4.3996Y-2.0079
X4.4587Y-0.9547
X4.5472Y-2.4114
X4.5768Y-1.3386
X4.6457Y-1.5453
X4.7026Y-2.5675
X4.7239Y-3.1885
X4.9016Y-2.0768
X4.9409Y-0.9744
X4.9508Y-1.9488
X5.0212Y-1.0256
X5.0787Y-2.9035
X5.0879Y-1.3386
X5.1575Y-1.5059
X5.2549Y-1.8602
X5.2569Y-2.2587
X5.3445Y-1.1122
X5.354Y-2.5675
X5.374Y-0.9547
X5.3809Y-1.9533
X5.5937Y-2.2276
X5.6299Y-3.0709
X5.6403Y-1.5753
X5.7087Y-1.7717
X5.7465Y-2.0203
X5.8858Y-2.3002
X5.8858Y-2.6607
X5.9154Y-0.9744
X5.9242Y-1.9783
X5.9419Y-2.0545
X5.9843Y-2.2146
X6.0039Y-1.8602
X6.0039Y-3.0807
X6.0138Y-1.5551
X6.034Y-2.5684
X6.122Y-3.0807
X6.1516Y-1.3681
X6.3189Y-0.9248
X6.3316Y-1.3211
X6.3376Y-0.9744
X6.3777Y-3.0793
X6.7421Y-2.3327
X6.7717Y-0.9646
X6.811Y-0.876
X6.8275Y-0.9569
X6.8701Y-3.2185
X6.8898Y-2.0768
X6.8903Y-2.1265
X6.8907Y-2.5689
X6.9193Y-2.2441
X6.9198Y-3.0802
X7.0364Y-1.8012
X7.0659Y-1.3386
X7.3228Y-2.4508
X7.3228Y-2.6772
X7.3233Y-2.7269
T0
M30
