G04 #@! TF.GenerationSoftware,KiCad,Pcbnew,6.0.4-6f826c9f35~116~ubuntu20.04.1*
G04 #@! TF.CreationDate,2022-04-24T22:14:45+02:00*
G04 #@! TF.ProjectId,keyboard,6b657962-6f61-4726-942e-6b696361645f,rev?*
G04 #@! TF.SameCoordinates,Original*
G04 #@! TF.FileFunction,Paste,Top*
G04 #@! TF.FilePolarity,Positive*
%FSLAX46Y46*%
G04 Gerber Fmt 4.6, Leading zero omitted, Abs format (unit mm)*
G04 Created by KiCad (PCBNEW 6.0.4-6f826c9f35~116~ubuntu20.04.1) date 2022-04-24 22:14:45*
%MOMM*%
%LPD*%
G01*
G04 APERTURE LIST*
G04 Aperture macros list*
%AMFreePoly0*
4,1,103,0.422812,1.999002,0.439619,1.993171,0.440305,1.991756,0.441755,1.991155,0.448553,1.974744,0.456314,1.958736,0.455799,1.957251,0.456400,1.955800,0.456400,-0.935780,2.413800,-2.023224,2.413800,1.422400,2.417334,1.430931,2.417061,1.440161,2.424368,1.447914,2.428445,1.457755,2.436975,1.461288,2.443309,1.468008,2.453957,1.468323,2.463800,1.472400,2.472331,1.468866,
2.481561,1.469139,3.751561,0.986539,3.759314,0.979232,3.769155,0.975155,3.772688,0.966625,3.779408,0.960291,3.779723,0.949643,3.783800,0.939800,3.783800,-2.260600,3.782370,-2.264052,3.783297,-2.267671,3.775221,-2.281311,3.769155,-2.295955,3.765704,-2.297385,3.763800,-2.300600,3.560600,-2.453000,3.554370,-2.454596,3.549831,-2.459154,3.245031,-2.586154,3.241949,-2.586160,
3.239536,-2.588076,2.883936,-2.689676,2.881796,-2.689430,2.880006,-2.690629,2.499006,-2.766829,2.493956,-2.765830,2.489200,-2.767800,2.032000,-2.767800,2.028200,-2.766226,2.024202,-2.767188,1.541602,-2.690988,1.537909,-2.688727,1.533589,-2.689034,1.076389,-2.536634,1.071884,-2.532727,1.065995,-2.531783,0.735795,-2.328583,0.733473,-2.325375,0.729703,-2.324169,0.399503,-2.044769,
0.398489,-2.042802,0.396444,-2.041955,0.117045,-1.762555,0.115214,-1.758134,0.111198,-1.755527,-0.168202,-1.349126,-0.169400,-1.343493,-0.173424,-1.339370,-0.325824,-0.958370,-0.325797,-0.956186,-0.327189,-0.954504,-0.428789,-0.624304,-0.428380,-0.619972,-0.430561,-0.616208,-0.481361,-0.235208,-0.480462,-0.231830,-0.481800,-0.228600,-0.481800,0.203200,-0.480370,0.206652,-0.481297,0.210271,
-0.430498,0.565871,-0.428402,0.569410,-0.428789,0.573504,-0.327189,0.903704,-0.324938,0.906424,-0.324798,0.909953,-0.172398,1.240153,-0.171085,1.241365,-0.170895,1.243143,-0.018495,1.522543,-0.015193,1.525207,-0.014068,1.529297,0.163733,1.757897,0.165256,1.758763,0.165830,1.760418,0.369030,1.989019,0.370444,1.989705,0.371045,1.991155,0.387459,1.997954,0.403464,2.005714,
0.404949,2.005199,0.406400,2.005800,0.422812,1.999002,0.422812,1.999002,$1*%
%AMFreePoly1*
4,1,94,-2.235111,2.741264,-2.232081,2.742303,-1.825681,2.716903,-1.821113,2.714668,-1.816075,2.715354,-1.333475,2.588354,-1.329741,2.585515,-1.325056,2.585309,-0.944056,2.407509,-0.941067,2.404245,-0.936740,2.403310,-0.606540,2.174710,-0.605988,2.173853,-0.605000,2.173600,-0.300200,1.945000,-0.297615,1.940634,-0.293035,1.938448,-0.064435,1.684448,-0.062855,1.679982,-0.059017,1.677205,
0.144183,1.347005,0.144553,1.344694,0.146321,1.343161,0.324121,0.987561,0.324386,0.983834,0.326834,0.981011,0.453834,0.600012,0.453469,0.594877,0.456014,0.590402,0.506814,0.184001,0.505943,0.180834,0.507200,0.177800,0.507200,-0.203200,0.505543,-0.207200,0.506520,-0.211419,0.430320,-0.668620,0.428143,-0.672110,0.428434,-0.676211,0.276034,-1.133411,0.273146,-1.136741,
0.272718,-1.141129,0.069518,-1.522129,0.064272,-1.526442,0.061877,-1.532797,-0.319123,-1.939197,-0.319914,-1.939555,-0.320245,-1.940355,-0.337228,-1.947390,-0.353988,-1.954974,-0.354799,-1.954668,-0.355600,-1.955000,-0.372581,-1.947966,-0.389797,-1.941477,-0.390155,-1.940686,-0.390955,-1.940355,-0.397990,-1.923372,-0.405574,-1.906612,-0.405268,-1.905801,-0.405600,-1.905000,-0.405600,1.311106,
-2.413800,2.036962,-2.413800,-1.320800,-2.419036,-1.333440,-2.421184,-1.346951,-2.426114,-1.350528,-2.428445,-1.356155,-2.441085,-1.361391,-2.452158,-1.369425,-2.458172,-1.368469,-2.463800,-1.370800,-2.476440,-1.365564,-2.489951,-1.363416,-3.607551,-0.677616,-3.611128,-0.672686,-3.616755,-0.670355,-3.621990,-0.657716,-3.630025,-0.646643,-3.629069,-0.640628,-3.631400,-0.635000,-3.631400,2.362200,
-3.627829,2.370821,-3.628067,2.380149,-3.620795,2.387803,-3.616755,2.397555,-3.608136,2.401125,-3.601707,2.407891,-3.144507,2.611091,-3.139306,2.611224,-3.135047,2.614209,-2.677846,2.715809,-2.673713,2.715082,-2.669936,2.716914,-2.238137,2.742314,-2.235111,2.741264,-2.235111,2.741264,$1*%
G04 Aperture macros list end*
%ADD10FreePoly0,0.000000*%
%ADD11FreePoly1,0.000000*%
G04 APERTURE END LIST*
D10*
X21446000Y-24214600D03*
D11*
X25992600Y-24214600D03*
D10*
X26446000Y-51214600D03*
D11*
X30992600Y-51214600D03*
D10*
X22446000Y-65214600D03*
D11*
X26992600Y-65214600D03*
D10*
X21446000Y-78214600D03*
D11*
X25992600Y-78214600D03*
D10*
X32446000Y-24214600D03*
D11*
X36992600Y-24214600D03*
D10*
X38446000Y-38214600D03*
D11*
X42992600Y-38214600D03*
D10*
X43446000Y-51214600D03*
D11*
X47992600Y-51214600D03*
D10*
X35446000Y-65214600D03*
D11*
X39992600Y-65214600D03*
D10*
X33446000Y-78214600D03*
D11*
X37992600Y-78214600D03*
D10*
X49446000Y-38214600D03*
D11*
X53992600Y-38214600D03*
D10*
X55446000Y-51214600D03*
D11*
X59992600Y-51214600D03*
D10*
X47446000Y-65214600D03*
D11*
X51992600Y-65214600D03*
D10*
X45446000Y-78214600D03*
D11*
X49992600Y-78214600D03*
D10*
X61446000Y-38214600D03*
D11*
X65992600Y-38214600D03*
D10*
X67446000Y-51214600D03*
D11*
X71992600Y-51214600D03*
D10*
X59446000Y-65214600D03*
D11*
X63992600Y-65214600D03*
D10*
X57446000Y-78214600D03*
D11*
X61992600Y-78214600D03*
D10*
X69446000Y-24214600D03*
D11*
X73992600Y-24214600D03*
D10*
X74446000Y-38214600D03*
D11*
X78992600Y-38214600D03*
D10*
X79446000Y-51214600D03*
D11*
X83992600Y-51214600D03*
D10*
X71446000Y-65214600D03*
D11*
X75992600Y-65214600D03*
D10*
X77446000Y-78214600D03*
D11*
X81992600Y-78214600D03*
D10*
X81446000Y-24214600D03*
D11*
X85992600Y-24214600D03*
D10*
X85446000Y-38214600D03*
D11*
X89992600Y-38214600D03*
D10*
X91446000Y-51214600D03*
D11*
X95992600Y-51214600D03*
D10*
X83446000Y-65214600D03*
D11*
X87992600Y-65214600D03*
D10*
X145446000Y-78214600D03*
D11*
X149992600Y-78214600D03*
D10*
X97446000Y-38214600D03*
D11*
X101992600Y-38214600D03*
D10*
X103446000Y-51214600D03*
D11*
X107992600Y-51214600D03*
D10*
X95446000Y-65214600D03*
D11*
X99992600Y-65214600D03*
D10*
X157446000Y-78214600D03*
D11*
X161992600Y-78214600D03*
D10*
X105446000Y-24214600D03*
D11*
X109992600Y-24214600D03*
D10*
X110446000Y-38214600D03*
D11*
X114992600Y-38214600D03*
D10*
X115446000Y-51214600D03*
D11*
X119992600Y-51214600D03*
D10*
X107446000Y-65214600D03*
D11*
X111992600Y-65214600D03*
D10*
X169446000Y-78214600D03*
D11*
X173992600Y-78214600D03*
D10*
X117446000Y-24214600D03*
D11*
X121992600Y-24214600D03*
D10*
X121446000Y-38214600D03*
D11*
X125992600Y-38214600D03*
D10*
X127446000Y-51214600D03*
D11*
X131992600Y-51214600D03*
D10*
X119446000Y-65214600D03*
D11*
X123992600Y-65214600D03*
D10*
X181446000Y-78214600D03*
D11*
X185992600Y-78214600D03*
D10*
X129446000Y-24214600D03*
D11*
X133992600Y-24214600D03*
D10*
X133446000Y-38214600D03*
D11*
X137992600Y-38214600D03*
D10*
X139446000Y-51214600D03*
D11*
X143992600Y-51214600D03*
D10*
X131446000Y-65214600D03*
D11*
X135992600Y-65214600D03*
D10*
X151446000Y-51214600D03*
D11*
X155992600Y-51214600D03*
D10*
X143446000Y-65214600D03*
D11*
X147992600Y-65214600D03*
D10*
X153446000Y-24214600D03*
D11*
X157992600Y-24214600D03*
D10*
X157446000Y-38214600D03*
D11*
X161992600Y-38214600D03*
D10*
X163446000Y-51214600D03*
D11*
X167992600Y-51214600D03*
D10*
X155446000Y-65214600D03*
D11*
X159992600Y-65214600D03*
D10*
X165446000Y-24214600D03*
D11*
X169992600Y-24214600D03*
D10*
X169446000Y-38214600D03*
D11*
X173992600Y-38214600D03*
D10*
X167446000Y-65214600D03*
D11*
X171992600Y-65214600D03*
D10*
X179446000Y-24214600D03*
D11*
X183992600Y-24214600D03*
D10*
X181446000Y-44214600D03*
D11*
X185992600Y-44214600D03*
D10*
X180446000Y-65214600D03*
D11*
X184992600Y-65214600D03*
D10*
X141446000Y-24214600D03*
D11*
X145992600Y-24214600D03*
D10*
X23446000Y-38214600D03*
D11*
X27992600Y-38214600D03*
D10*
X44446000Y-24214600D03*
D11*
X48992600Y-24214600D03*
D10*
X55446000Y-24214600D03*
D11*
X59992600Y-24214600D03*
D10*
X93446000Y-24214600D03*
D11*
X97992600Y-24214600D03*
D10*
X125446000Y-78214600D03*
D11*
X129992600Y-78214600D03*
D10*
X145446000Y-38214600D03*
D11*
X149992600Y-38214600D03*
M02*
