M48
; DRILL file {KiCad 6.0.4-6f826c9f35~116~ubuntu20.04.1} date So 24 Apr 2022 22:15:15 CEST
; FORMAT={-:-/ absolute / inch / decimal}
; #@! TF.CreationDate,2022-04-24T22:15:15+02:00
; #@! TF.GenerationSoftware,Kicad,Pcbnew,6.0.4-6f826c9f35~116~ubuntu20.04.1
; #@! TF.FileFunction,NonPlated,1,2,NPTH
FMAT,2
INCH
; #@! TA.AperFunction,NonPlated,NPTH,ComponentDrill
T1C0.1181
; #@! TA.AperFunction,NonPlated,NPTH,ComponentDrill
T2C0.1969
%
G90
G05
T1
X0.6784Y-2.2535
X0.6784Y-3.3165
X2.0957Y-3.3165
X2.1161Y-0.6988
X2.2729Y-1.722
X3.4343Y-2.2535
X3.5328Y-0.6984
X3.5328Y-3.3756
X4.9304Y-0.6984
X4.9501Y-3.3756
X5.1076Y-1.722
X6.0524Y-3.3165
X6.3871Y-0.6984
X6.5249Y-1.722
X7.4698Y-2.2535
X7.4698Y-3.3165
T2
X1.2493Y-2.7654
X2.1154Y-1.1906
X2.6076Y-3.3165
X3.1391Y-2.8047
X3.2178Y-1.7024
X4.0052Y-1.1906
X4.0839Y-2.8047
X6.9973Y-3.3165
T0
M30
