G04 #@! TF.GenerationSoftware,KiCad,Pcbnew,6.0.4-6f826c9f35~116~ubuntu20.04.1*
G04 #@! TF.CreationDate,2022-04-24T22:14:45+02:00*
G04 #@! TF.ProjectId,keyboard,6b657962-6f61-4726-942e-6b696361645f,rev?*
G04 #@! TF.SameCoordinates,Original*
G04 #@! TF.FileFunction,Copper,L2,Bot*
G04 #@! TF.FilePolarity,Positive*
%FSLAX46Y46*%
G04 Gerber Fmt 4.6, Leading zero omitted, Abs format (unit mm)*
G04 Created by KiCad (PCBNEW 6.0.4-6f826c9f35~116~ubuntu20.04.1) date 2022-04-24 22:14:45*
%MOMM*%
%LPD*%
G01*
G04 APERTURE LIST*
G04 #@! TA.AperFunction,SMDPad,CuDef*
%ADD10R,0.610000X2.000000*%
G04 #@! TD*
G04 #@! TA.AperFunction,SMDPad,CuDef*
%ADD11R,2.680000X3.600000*%
G04 #@! TD*
G04 #@! TA.AperFunction,ViaPad*
%ADD12C,0.800000*%
G04 #@! TD*
G04 #@! TA.AperFunction,Conductor*
%ADD13C,0.250000*%
G04 #@! TD*
G04 APERTURE END LIST*
D10*
X64250000Y-62050000D03*
X65250000Y-62050000D03*
X66250000Y-62050000D03*
X67250000Y-62050000D03*
X68250000Y-62050000D03*
X69250000Y-62050000D03*
X70250000Y-62050000D03*
X71250000Y-62050000D03*
X72250000Y-62050000D03*
X73250000Y-62050000D03*
X74250000Y-62050000D03*
X75250000Y-62050000D03*
X76250000Y-62050000D03*
X77250000Y-62050000D03*
X78250000Y-62050000D03*
X79250000Y-62050000D03*
D11*
X82240000Y-59250000D03*
X61260000Y-59250000D03*
D12*
X175024990Y-65250000D03*
X31500000Y-65250006D03*
X21750000Y-75000000D03*
X21500000Y-38250000D03*
X55446000Y-51214600D03*
X32987338Y-58237342D03*
X173000000Y-22249998D03*
X65074979Y-64585907D03*
X64249992Y-59250000D03*
X174499999Y-81750000D03*
X111750000Y-51000000D03*
X47475010Y-65214600D03*
X55500000Y-38500000D03*
X55000000Y-78250000D03*
X95512660Y-62512660D03*
X103000000Y-48500000D03*
X118000000Y-39250000D03*
X29939027Y-26343879D03*
X119987340Y-80987340D03*
X34750000Y-39250000D03*
X150250000Y-24750000D03*
X84664496Y-81475001D03*
X95445992Y-65214608D03*
X52500002Y-78250000D03*
X145000000Y-45000000D03*
X67524990Y-78000000D03*
X124500000Y-52750000D03*
X58250000Y-38250000D03*
X150925021Y-52183290D03*
X89750000Y-53000000D03*
X107446000Y-65214600D03*
X109750000Y-54750000D03*
X98250000Y-54750000D03*
X107750000Y-38250000D03*
X58224500Y-28500000D03*
X152500000Y-78250000D03*
X65750000Y-57250000D03*
X186012660Y-69262660D03*
X186000000Y-62250000D03*
X64250000Y-24250000D03*
X149500000Y-58425021D03*
X119446000Y-65214600D03*
X72624968Y-44221934D03*
X156250004Y-34750000D03*
X72624968Y-38221934D03*
X110750000Y-43000000D03*
X115500010Y-61250000D03*
X77500000Y-42000000D03*
X161992600Y-78214600D03*
X175000000Y-52750000D03*
X172000000Y-24500000D03*
X153262660Y-65237340D03*
X83750000Y-28250004D03*
X152000006Y-56250000D03*
X70512660Y-46762660D03*
X81250000Y-38250000D03*
X76250000Y-48750002D03*
X68500000Y-80500000D03*
X135992600Y-65214600D03*
X142080504Y-56580504D03*
X78000000Y-23999992D03*
X173417940Y-24304707D03*
X175012663Y-54012657D03*
X30750000Y-78250000D03*
X41500000Y-51250000D03*
X178725010Y-45750000D03*
X70250000Y-72750000D03*
X143262660Y-40012660D03*
X101000000Y-24500000D03*
X104000000Y-64749990D03*
X136675020Y-49613870D03*
X100250000Y-20250000D03*
X104656162Y-27957840D03*
X136499998Y-24249998D03*
X104000000Y-38250000D03*
X70500000Y-67750000D03*
X55446000Y-24214600D03*
X71250000Y-56000000D03*
X71250000Y-69250000D03*
X65000000Y-48750000D03*
X127538775Y-26050639D03*
X179475010Y-34000000D03*
X171250000Y-59250008D03*
X116250000Y-34000000D03*
X75000000Y-33250000D03*
X113250000Y-24250000D03*
X129231400Y-34000000D03*
X71250000Y-70750000D03*
X75349862Y-35175457D03*
X73500000Y-70000000D03*
X135750000Y-28249986D03*
X155500000Y-78250000D03*
X160823664Y-33556929D03*
X75250000Y-57000000D03*
X131000000Y-38250000D03*
X160975010Y-24750000D03*
X152500000Y-47250000D03*
X152750002Y-39500000D03*
X133524990Y-57370369D03*
X186000000Y-68000002D03*
X133475001Y-47250321D03*
X145960670Y-51314635D03*
X175750000Y-57000000D03*
X77974832Y-24999695D03*
X175762660Y-78237340D03*
X78250000Y-47502016D03*
X83250000Y-47000000D03*
X125500000Y-24750000D03*
X129000000Y-73750000D03*
X78250000Y-48750006D03*
X125750000Y-49500000D03*
X143000000Y-78000000D03*
X160500471Y-23489590D03*
X149500000Y-67582400D03*
X42750000Y-65250000D03*
X78250000Y-56499994D03*
X85466470Y-80775500D03*
X40500000Y-78250000D03*
X150475010Y-50250000D03*
X28749994Y-27000000D03*
X85000000Y-47000000D03*
X81900000Y-64400000D03*
X35750000Y-42500000D03*
D13*
X175024990Y-56475010D02*
X180200012Y-51299988D01*
X55446000Y-51214600D02*
X57280284Y-51214600D01*
X175024990Y-65250000D02*
X175024990Y-56475010D01*
X175024990Y-65250000D02*
X175024990Y-81225009D01*
X21500000Y-38250000D02*
X31500000Y-48250000D01*
X175024990Y-81225009D02*
X174499999Y-81750000D01*
X173399999Y-22649997D02*
X173000000Y-22249998D01*
X32587339Y-58637341D02*
X32987338Y-58237342D01*
X21750000Y-75000000D02*
X31499994Y-65250006D01*
X31500000Y-65250006D02*
X31500000Y-59724680D01*
X31500000Y-59724680D02*
X32587339Y-58637341D01*
X64674980Y-64185908D02*
X65074979Y-64585907D01*
X180200012Y-29450010D02*
X173399999Y-22649997D01*
X64250000Y-62050000D02*
X64250000Y-63760928D01*
X180200012Y-51299988D02*
X180200012Y-29450010D01*
X31499994Y-65250006D02*
X31500000Y-65250006D01*
X64249992Y-58184308D02*
X64249992Y-58684315D01*
X64250000Y-62050000D02*
X64250000Y-59250008D01*
X64249992Y-58684315D02*
X64249992Y-59250000D01*
X64250000Y-59250008D02*
X64249992Y-59250000D01*
X64250000Y-63760928D02*
X64674980Y-64185908D01*
X31500000Y-48250000D02*
X31500000Y-65250006D01*
X57280284Y-51214600D02*
X64249992Y-58184308D01*
X103000000Y-55025320D02*
X95512660Y-62512660D01*
X103000000Y-48500000D02*
X103000000Y-55025320D01*
X65799980Y-64933908D02*
X65799980Y-63489982D01*
X60500000Y-78250000D02*
X67250000Y-71500000D01*
X65619999Y-63310001D02*
X65619999Y-62419999D01*
X55000000Y-78250000D02*
X53750000Y-78250000D01*
X47475010Y-46524990D02*
X47475010Y-64648915D01*
X47475010Y-71975010D02*
X47475010Y-65214600D01*
X55000000Y-78250000D02*
X60500000Y-78250000D01*
X111750000Y-43000000D02*
X115500000Y-39250000D01*
X65619999Y-62419999D02*
X65250000Y-62050000D01*
X65799980Y-63489982D02*
X65619999Y-63310001D01*
X115500000Y-39250000D02*
X118000000Y-39250000D01*
X53750000Y-78250000D02*
X47475010Y-71975010D01*
X67250000Y-71500000D02*
X67250000Y-66383928D01*
X111750000Y-51000000D02*
X111750000Y-43000000D01*
X47475010Y-64648915D02*
X47475010Y-65214600D01*
X67250000Y-66383928D02*
X65799980Y-64933908D01*
X55500000Y-38500000D02*
X47475010Y-46524990D01*
X95845991Y-65614607D02*
X95445992Y-65214608D01*
X125250000Y-75724680D02*
X125250000Y-53500000D01*
X29939027Y-26909564D02*
X29939027Y-26343879D01*
X144000000Y-44000000D02*
X145000000Y-45000000D01*
X84664496Y-81475001D02*
X84689495Y-81500000D01*
X34750000Y-39250000D02*
X33250000Y-39250000D01*
X119421655Y-80987340D02*
X119987340Y-80987340D01*
X98000000Y-70065685D02*
X108921655Y-80987340D01*
X125250000Y-53500000D02*
X124500000Y-52750000D01*
X29250000Y-27598591D02*
X29939027Y-26909564D01*
X46750000Y-51250000D02*
X46750000Y-72499998D01*
X84689495Y-81500000D02*
X86500000Y-81500000D01*
X98000000Y-70065685D02*
X98000000Y-67768616D01*
X67750000Y-66247518D02*
X67750000Y-77209305D01*
X66250000Y-64747518D02*
X67750000Y-66247518D01*
X67524990Y-77434315D02*
X67524990Y-78000000D01*
X108921655Y-80987340D02*
X119421655Y-80987340D01*
X150250000Y-24750000D02*
X144000000Y-31000000D01*
X66250000Y-62050000D02*
X66250000Y-64747518D01*
X98000000Y-67768616D02*
X95845991Y-65614607D01*
X67750000Y-77209305D02*
X67524990Y-77434315D01*
X52100003Y-77850001D02*
X52500002Y-78250000D01*
X97934315Y-70065685D02*
X98000000Y-70065685D01*
X29250000Y-35250000D02*
X29250000Y-27598591D01*
X46750000Y-72499998D02*
X52100003Y-77850001D01*
X119987340Y-80987340D02*
X125250000Y-75724680D01*
X144000000Y-31000000D02*
X144000000Y-44000000D01*
X86500000Y-81500000D02*
X97934315Y-70065685D01*
X34750000Y-39250000D02*
X46750000Y-51250000D01*
X33250000Y-39250000D02*
X29250000Y-35250000D01*
X109750000Y-54750000D02*
X109999996Y-54999996D01*
X68250000Y-54750000D02*
X65750000Y-57250000D01*
X152500000Y-78250000D02*
X150675013Y-76425013D01*
X58250000Y-38250000D02*
X58250000Y-28525500D01*
X109999996Y-54999996D02*
X109999996Y-62660604D01*
X58250000Y-39500000D02*
X58250000Y-38250000D01*
X150525022Y-57065607D02*
X150525022Y-52583289D01*
X107750000Y-41000000D02*
X107750000Y-38250000D01*
X109999996Y-62660604D02*
X107446000Y-65214600D01*
X68250000Y-50926996D02*
X63824987Y-46501983D01*
X109999996Y-54500004D02*
X109999996Y-43249996D01*
X58250000Y-28525500D02*
X58224500Y-28500000D01*
X67250000Y-60750000D02*
X68250000Y-59750000D01*
X109750000Y-54750000D02*
X109999996Y-54500004D01*
X150675013Y-76425013D02*
X150675013Y-57215598D01*
X63824987Y-46501983D02*
X63824987Y-45074987D01*
X109999996Y-43249996D02*
X107750000Y-41000000D01*
X63824987Y-45074987D02*
X58250000Y-39500000D01*
X98250000Y-54750000D02*
X91500000Y-54750000D01*
X91500000Y-54750000D02*
X89750000Y-53000000D01*
X150675013Y-57215598D02*
X150525022Y-57065607D01*
X150525022Y-52583289D02*
X150925021Y-52183290D01*
X67250000Y-62050000D02*
X67250000Y-60750000D01*
X68250000Y-59750000D02*
X68250000Y-50926996D01*
X137888720Y-59747690D02*
X145661409Y-51975001D01*
X133500000Y-45750000D02*
X132750000Y-46500000D01*
X186399999Y-62649999D02*
X186000000Y-62250000D01*
X156250000Y-34750000D02*
X151149967Y-39850033D01*
X64250000Y-24250000D02*
X72624968Y-32624968D01*
X132750000Y-46500000D02*
X132750000Y-57620685D01*
X115500010Y-61268610D02*
X115500010Y-61250000D01*
X134877005Y-59747690D02*
X137888720Y-59747690D01*
X68750000Y-60000000D02*
X68750000Y-47500000D01*
X132750000Y-57620685D02*
X134877005Y-59747690D01*
X186750000Y-68525320D02*
X186750000Y-63000000D01*
X145661409Y-51975001D02*
X149500000Y-55813592D01*
X115100011Y-60850001D02*
X115500010Y-61250000D01*
X72624968Y-37656249D02*
X72624968Y-38221934D01*
X137677321Y-58572679D02*
X135363713Y-58572679D01*
X156250004Y-34750000D02*
X156250000Y-34750000D01*
X149500000Y-55813592D02*
X149500000Y-58425021D01*
X151149967Y-45100033D02*
X137677321Y-58572679D01*
X72624968Y-44221934D02*
X72624968Y-38221934D01*
X151149967Y-39850033D02*
X151149967Y-45100033D01*
X68250000Y-60500000D02*
X68750000Y-60000000D01*
X134250000Y-57458966D02*
X134250000Y-46500000D01*
X135363713Y-58572679D02*
X134250000Y-57458966D01*
X68750000Y-47500000D02*
X72028066Y-44221934D01*
X72059283Y-44221934D02*
X72624968Y-44221934D01*
X134250000Y-46500000D02*
X133500000Y-45750000D01*
X110750000Y-43000000D02*
X110750000Y-56499990D01*
X72028066Y-44221934D02*
X72059283Y-44221934D01*
X186012660Y-69262660D02*
X186750000Y-68525320D01*
X110750000Y-56499990D02*
X115100011Y-60850001D01*
X119446000Y-65214600D02*
X115500010Y-61268610D01*
X68250000Y-62050000D02*
X68250000Y-60500000D01*
X186750000Y-63000000D02*
X186399999Y-62649999D01*
X72624968Y-32624968D02*
X72624968Y-37656249D01*
X152000006Y-63974686D02*
X152000006Y-56815685D01*
X172000000Y-24500000D02*
X178000000Y-30500000D01*
X178000000Y-30500000D02*
X178000000Y-49750000D01*
X83350001Y-28650003D02*
X83750000Y-28250004D01*
X161992600Y-78214600D02*
X161992600Y-73967280D01*
X153262660Y-65237340D02*
X152000006Y-63974686D01*
X81250000Y-30750004D02*
X83350001Y-28650003D01*
X69250000Y-62050000D02*
X69250000Y-48025320D01*
X152000006Y-56815685D02*
X152000006Y-56250000D01*
X77500000Y-47500002D02*
X76250000Y-48750002D01*
X178000000Y-49750000D02*
X175000000Y-52750000D01*
X161992600Y-73967280D02*
X153662659Y-65637339D01*
X69250000Y-48025320D02*
X70112661Y-47162659D01*
X70112661Y-47162659D02*
X70512660Y-46762660D01*
X81250000Y-38250000D02*
X81250000Y-30750004D01*
X153662659Y-65637339D02*
X153262660Y-65237340D01*
X77500000Y-42000000D02*
X77500000Y-47500002D01*
X142080504Y-56580504D02*
X142080504Y-56581228D01*
X178725010Y-50300310D02*
X178725010Y-46315685D01*
X135992600Y-62669132D02*
X135992600Y-65214600D01*
X178725010Y-46315685D02*
X178725010Y-45750000D01*
X69750000Y-59934999D02*
X69750000Y-48750000D01*
X70250000Y-62050000D02*
X70250000Y-64250000D01*
X69750000Y-48750000D02*
X73349978Y-45150022D01*
X70250000Y-62050000D02*
X70250000Y-60434999D01*
X30750000Y-78250000D02*
X41500000Y-67500000D01*
X73349978Y-45150022D02*
X73349978Y-28084329D01*
X178725010Y-45750000D02*
X178725010Y-29611777D01*
X77434315Y-23999992D02*
X78000000Y-23999992D01*
X41500000Y-67500000D02*
X41500000Y-51250000D01*
X142080504Y-56581228D02*
X135992600Y-62669132D01*
X73349978Y-28084329D02*
X77434315Y-23999992D01*
X70250000Y-60434999D02*
X69750000Y-59934999D01*
X175012663Y-54012657D02*
X178725010Y-50300310D01*
X178725010Y-29611777D02*
X173817939Y-24704706D01*
X68250000Y-80250000D02*
X68500000Y-80500000D01*
X173817939Y-24704706D02*
X173417940Y-24304707D01*
X68250000Y-66250000D02*
X68250000Y-80250000D01*
X70250000Y-64250000D02*
X68250000Y-66250000D01*
X143262660Y-31012660D02*
X143262660Y-39446975D01*
X104656162Y-37593838D02*
X104656162Y-28523525D01*
X71250000Y-67000000D02*
X70500000Y-67750000D01*
X100250000Y-20250000D02*
X101000000Y-21000000D01*
X70250000Y-68000000D02*
X70500000Y-67750000D01*
X71250000Y-62050000D02*
X71250000Y-67000000D01*
X143262660Y-40012660D02*
X143262660Y-43026230D01*
X104457840Y-27957840D02*
X104656162Y-27957840D01*
X104656162Y-28523525D02*
X104656162Y-27957840D01*
X101000000Y-21000000D02*
X101000000Y-24500000D01*
X136499998Y-24249998D02*
X143262660Y-31012660D01*
X70250000Y-72750000D02*
X70250000Y-68000000D01*
X104000000Y-38250000D02*
X104000000Y-64749990D01*
X143262660Y-39446975D02*
X143262660Y-40012660D01*
X104000000Y-38250000D02*
X104656162Y-37593838D01*
X143262660Y-43026230D02*
X136675020Y-49613870D01*
X101000000Y-24500000D02*
X104457840Y-27957840D01*
X72250000Y-62050000D02*
X72250000Y-68250000D01*
X72250000Y-57000000D02*
X71250000Y-56000000D01*
X57500000Y-39386410D02*
X63350001Y-45236411D01*
X55446000Y-24214600D02*
X57500000Y-26268600D01*
X72250000Y-62050000D02*
X72250000Y-57000000D01*
X57500000Y-26268600D02*
X57500000Y-39386410D01*
X63350001Y-45236411D02*
X63350001Y-47100001D01*
X72250000Y-68250000D02*
X71250000Y-69250000D01*
X63350001Y-47100001D02*
X65000000Y-48750000D01*
X73250000Y-60500000D02*
X73250000Y-62050000D01*
X73250000Y-62050000D02*
X73250000Y-68750000D01*
X179475010Y-34000000D02*
X179475010Y-51024998D01*
X73250000Y-68750000D02*
X71250000Y-70750000D01*
X73799989Y-59950011D02*
X73250000Y-60500000D01*
X179475010Y-51024998D02*
X171649999Y-58850009D01*
X73799989Y-34450011D02*
X73799989Y-59950011D01*
X116250000Y-34000000D02*
X113250000Y-31000000D01*
X127538775Y-26616324D02*
X127538775Y-26050639D01*
X113250000Y-31000000D02*
X113250000Y-24250000D01*
X127538775Y-32307375D02*
X127538775Y-26616324D01*
X129231400Y-34000000D02*
X127538775Y-32307375D01*
X171649999Y-58850009D02*
X171250000Y-59250008D01*
X75000000Y-33250000D02*
X73799989Y-34450011D01*
X74250000Y-36275319D02*
X75349862Y-35175457D01*
X74250000Y-69250000D02*
X73500000Y-70000000D01*
X74250000Y-62050000D02*
X74250000Y-36275319D01*
X74250000Y-62050000D02*
X74250000Y-69250000D01*
X131000000Y-32999986D02*
X135350001Y-28649985D01*
X152500000Y-41880593D02*
X160423665Y-33956928D01*
X76250000Y-65000000D02*
X76250000Y-74285718D01*
X131750000Y-45903002D02*
X132557001Y-45096001D01*
X119750000Y-82250000D02*
X124500000Y-77500000D01*
X151024998Y-56848002D02*
X151024998Y-54997824D01*
X75250000Y-57000000D02*
X75250000Y-62050000D01*
X131000000Y-38250000D02*
X131000000Y-32999986D01*
X151125024Y-73875024D02*
X151125024Y-56948028D01*
X132557001Y-45096001D02*
X132557001Y-39807001D01*
X155500000Y-78250000D02*
X151125024Y-73875024D01*
X75250000Y-62050000D02*
X75250000Y-64000000D01*
X75250000Y-64000000D02*
X76250000Y-65000000D01*
X160423665Y-33956928D02*
X160823664Y-33556929D01*
X129250000Y-77500000D02*
X131750000Y-75000000D01*
X77149520Y-75149520D02*
X84250000Y-82250000D01*
X131750000Y-75000000D02*
X131750000Y-45903002D01*
X124500000Y-77500000D02*
X129250000Y-77500000D01*
X160823664Y-33556929D02*
X160823664Y-24901346D01*
X160823664Y-24901346D02*
X160975010Y-24750000D01*
X84250000Y-82250000D02*
X119750000Y-82250000D01*
X152500000Y-53522822D02*
X152500000Y-47815685D01*
X77113802Y-75149520D02*
X77149520Y-75149520D01*
X152500000Y-47815685D02*
X152500000Y-47250000D01*
X76250000Y-74285718D02*
X77113802Y-75149520D01*
X132557001Y-39807001D02*
X131000000Y-38250000D01*
X151024998Y-54997824D02*
X152500000Y-53522822D01*
X151125024Y-56948028D02*
X151024998Y-56848002D01*
X135350001Y-28649985D02*
X135750000Y-28249986D01*
X152500000Y-47250000D02*
X152500000Y-41880593D01*
X133475001Y-47250321D02*
X133475001Y-57320380D01*
X185600001Y-68400001D02*
X186000000Y-68000002D01*
X137977316Y-59022684D02*
X135177305Y-59022684D01*
X133475001Y-57320380D02*
X133524990Y-57370369D01*
X78250000Y-25274863D02*
X77974832Y-24999695D01*
X76250000Y-62050000D02*
X76619999Y-61680001D01*
X76619999Y-61680001D02*
X76619999Y-60789999D01*
X146360669Y-50525742D02*
X146360669Y-50914636D01*
X151599978Y-40650024D02*
X151599978Y-45286433D01*
X175762660Y-78237340D02*
X176162661Y-77837341D01*
X77000000Y-60409998D02*
X77000000Y-48752016D01*
X135177305Y-59022684D02*
X133924989Y-57770368D01*
X76619999Y-60789999D02*
X77000000Y-60409998D01*
X145960670Y-51314635D02*
X145685365Y-51314635D01*
X78250000Y-47502016D02*
X78250000Y-25274863D01*
X176162661Y-77837341D02*
X185600001Y-68400001D01*
X145685365Y-51314635D02*
X137977316Y-59022684D01*
X133924989Y-57770368D02*
X133524990Y-57370369D01*
X151599978Y-45286433D02*
X146360669Y-50525742D01*
X146360669Y-50914636D02*
X145960670Y-51314635D01*
X152750002Y-39500000D02*
X151599978Y-40650024D01*
X77000000Y-48752016D02*
X78250000Y-47502016D01*
X175750000Y-57000000D02*
X175750000Y-78224680D01*
X175750000Y-78224680D02*
X175762660Y-78237340D01*
X78815685Y-48750006D02*
X78250000Y-48750006D01*
X77250000Y-62050000D02*
X77450011Y-61849989D01*
X125750000Y-70500000D02*
X125750000Y-49500000D01*
X81499994Y-48750006D02*
X78815685Y-48750006D01*
X129000000Y-73750000D02*
X125750000Y-70500000D01*
X77450011Y-49549995D02*
X77850001Y-49150005D01*
X77850001Y-49150005D02*
X78250000Y-48750006D01*
X83250000Y-47000000D02*
X81499994Y-48750006D01*
X77450011Y-61849989D02*
X77450011Y-49549995D01*
X125750000Y-49500000D02*
X125750000Y-25000000D01*
X125750000Y-25000000D02*
X125500000Y-24750000D01*
X85441460Y-80750490D02*
X85466470Y-80775500D01*
X78250000Y-62050000D02*
X78250000Y-63500000D01*
X150075011Y-57252007D02*
X150075011Y-50649999D01*
X149500000Y-71500000D02*
X149500000Y-67582400D01*
X150475010Y-50250000D02*
X150475010Y-47047810D01*
X78250000Y-59000000D02*
X78250000Y-56499994D01*
X40500000Y-78250000D02*
X42750000Y-76000000D01*
X78250000Y-63500000D02*
X76782479Y-64967521D01*
X77300000Y-74700000D02*
X77335718Y-74700000D01*
X149500000Y-67582400D02*
X150225002Y-66857398D01*
X77335718Y-74700000D02*
X83386208Y-80750490D01*
X150225002Y-57401998D02*
X150075011Y-57252007D01*
X76782479Y-64967521D02*
X76782479Y-74182479D01*
X150075011Y-50649999D02*
X150475010Y-50250000D01*
X160250000Y-24305746D02*
X160500471Y-24055275D01*
X42750000Y-76000000D02*
X42750000Y-65250000D01*
X83386208Y-80750490D02*
X85441460Y-80750490D01*
X150225002Y-66857398D02*
X150225002Y-57401998D01*
X152049989Y-45472833D02*
X152049989Y-41313600D01*
X78250000Y-62050000D02*
X78250000Y-59000000D01*
X143000000Y-78000000D02*
X149500000Y-71500000D01*
X152049989Y-41313600D02*
X160250000Y-33113589D01*
X76782479Y-74182479D02*
X77300000Y-74700000D01*
X150475010Y-47047810D02*
X152049989Y-45472833D01*
X160500471Y-24055275D02*
X160500471Y-23489590D01*
X160250000Y-33113589D02*
X160250000Y-24305746D01*
X79250000Y-54500000D02*
X79250000Y-61750000D01*
X28749994Y-35499994D02*
X28749994Y-27000000D01*
X81600000Y-64400000D02*
X81900000Y-64400000D01*
X35750000Y-42500000D02*
X28749994Y-35499994D01*
X85000000Y-48750000D02*
X79250000Y-54500000D01*
X79250000Y-62050000D02*
X81600000Y-64400000D01*
X85000000Y-47000000D02*
X85000000Y-48750000D01*
M02*
