G04 #@! TF.GenerationSoftware,KiCad,Pcbnew,6.0.4-6f826c9f35~116~ubuntu20.04.1*
G04 #@! TF.CreationDate,2022-04-24T22:14:45+02:00*
G04 #@! TF.ProjectId,keyboard,6b657962-6f61-4726-942e-6b696361645f,rev?*
G04 #@! TF.SameCoordinates,Original*
G04 #@! TF.FileFunction,Legend,Top*
G04 #@! TF.FilePolarity,Positive*
%FSLAX46Y46*%
G04 Gerber Fmt 4.6, Leading zero omitted, Abs format (unit mm)*
G04 Created by KiCad (PCBNEW 6.0.4-6f826c9f35~116~ubuntu20.04.1) date 2022-04-24 22:14:45*
%MOMM*%
%LPD*%
G01*
G04 APERTURE LIST*
%ADD10C,0.500000*%
%ADD11C,0.150000*%
G04 APERTURE END LIST*
D10*
X100542857Y-77856428D02*
X100400000Y-77999285D01*
X99971428Y-78142142D01*
X99685714Y-78142142D01*
X99257142Y-77999285D01*
X98971428Y-77713571D01*
X98828571Y-77427857D01*
X98685714Y-76856428D01*
X98685714Y-76427857D01*
X98828571Y-75856428D01*
X98971428Y-75570714D01*
X99257142Y-75285000D01*
X99685714Y-75142142D01*
X99971428Y-75142142D01*
X100400000Y-75285000D01*
X100542857Y-75427857D01*
X101542857Y-76142142D02*
X102257142Y-78142142D01*
X102971428Y-76142142D02*
X102257142Y-78142142D01*
X101971428Y-78856428D01*
X101828571Y-78999285D01*
X101542857Y-79142142D01*
X104114285Y-78142142D02*
X104114285Y-75142142D01*
X104114285Y-76285000D02*
X104400000Y-76142142D01*
X104971428Y-76142142D01*
X105257142Y-76285000D01*
X105400000Y-76427857D01*
X105542857Y-76713571D01*
X105542857Y-77570714D01*
X105400000Y-77856428D01*
X105257142Y-77999285D01*
X104971428Y-78142142D01*
X104400000Y-78142142D01*
X104114285Y-77999285D01*
X107971428Y-77999285D02*
X107685714Y-78142142D01*
X107114285Y-78142142D01*
X106828571Y-77999285D01*
X106685714Y-77713571D01*
X106685714Y-76570714D01*
X106828571Y-76285000D01*
X107114285Y-76142142D01*
X107685714Y-76142142D01*
X107971428Y-76285000D01*
X108114285Y-76570714D01*
X108114285Y-76856428D01*
X106685714Y-77142142D01*
X109400000Y-78142142D02*
X109400000Y-76142142D01*
X109400000Y-76713571D02*
X109542857Y-76427857D01*
X109685714Y-76285000D01*
X109971428Y-76142142D01*
X110257142Y-76142142D01*
X111257142Y-76142142D02*
X111257142Y-79142142D01*
X111257142Y-76285000D02*
X111542857Y-76142142D01*
X112114285Y-76142142D01*
X112400000Y-76285000D01*
X112542857Y-76427857D01*
X112685714Y-76713571D01*
X112685714Y-77570714D01*
X112542857Y-77856428D01*
X112400000Y-77999285D01*
X112114285Y-78142142D01*
X111542857Y-78142142D01*
X111257142Y-77999285D01*
X113971428Y-78142142D02*
X113971428Y-76142142D01*
X113971428Y-75142142D02*
X113828571Y-75285000D01*
X113971428Y-75427857D01*
X114114285Y-75285000D01*
X113971428Y-75142142D01*
X113971428Y-75427857D01*
X96828571Y-82972142D02*
X96828571Y-79972142D01*
X98542857Y-82972142D02*
X97257142Y-81257857D01*
X98542857Y-79972142D02*
X96828571Y-81686428D01*
X100971428Y-82829285D02*
X100685714Y-82972142D01*
X100114285Y-82972142D01*
X99828571Y-82829285D01*
X99685714Y-82543571D01*
X99685714Y-81400714D01*
X99828571Y-81115000D01*
X100114285Y-80972142D01*
X100685714Y-80972142D01*
X100971428Y-81115000D01*
X101114285Y-81400714D01*
X101114285Y-81686428D01*
X99685714Y-81972142D01*
X102114285Y-80972142D02*
X102828571Y-82972142D01*
X103542857Y-80972142D02*
X102828571Y-82972142D01*
X102542857Y-83686428D01*
X102400000Y-83829285D01*
X102114285Y-83972142D01*
X104685714Y-82972142D02*
X104685714Y-79972142D01*
X104685714Y-81115000D02*
X104971428Y-80972142D01*
X105542857Y-80972142D01*
X105828571Y-81115000D01*
X105971428Y-81257857D01*
X106114285Y-81543571D01*
X106114285Y-82400714D01*
X105971428Y-82686428D01*
X105828571Y-82829285D01*
X105542857Y-82972142D01*
X104971428Y-82972142D01*
X104685714Y-82829285D01*
X107828571Y-82972142D02*
X107542857Y-82829285D01*
X107400000Y-82686428D01*
X107257142Y-82400714D01*
X107257142Y-81543571D01*
X107400000Y-81257857D01*
X107542857Y-81115000D01*
X107828571Y-80972142D01*
X108257142Y-80972142D01*
X108542857Y-81115000D01*
X108685714Y-81257857D01*
X108828571Y-81543571D01*
X108828571Y-82400714D01*
X108685714Y-82686428D01*
X108542857Y-82829285D01*
X108257142Y-82972142D01*
X107828571Y-82972142D01*
X111400000Y-82972142D02*
X111400000Y-81400714D01*
X111257142Y-81115000D01*
X110971428Y-80972142D01*
X110400000Y-80972142D01*
X110114285Y-81115000D01*
X111400000Y-82829285D02*
X111114285Y-82972142D01*
X110400000Y-82972142D01*
X110114285Y-82829285D01*
X109971428Y-82543571D01*
X109971428Y-82257857D01*
X110114285Y-81972142D01*
X110400000Y-81829285D01*
X111114285Y-81829285D01*
X111400000Y-81686428D01*
X112828571Y-82972142D02*
X112828571Y-80972142D01*
X112828571Y-81543571D02*
X112971428Y-81257857D01*
X113114285Y-81115000D01*
X113400000Y-80972142D01*
X113685714Y-80972142D01*
X115971428Y-82972142D02*
X115971428Y-79972142D01*
X115971428Y-82829285D02*
X115685714Y-82972142D01*
X115114285Y-82972142D01*
X114828571Y-82829285D01*
X114685714Y-82686428D01*
X114542857Y-82400714D01*
X114542857Y-81543571D01*
X114685714Y-81257857D01*
X114828571Y-81115000D01*
X115114285Y-80972142D01*
X115685714Y-80972142D01*
X115971428Y-81115000D01*
D11*
X22684380Y-20485571D02*
X23017714Y-20485571D01*
X23160571Y-21009380D02*
X22684380Y-21009380D01*
X22684380Y-20009380D01*
X23160571Y-20009380D01*
X23541523Y-20961761D02*
X23636761Y-21009380D01*
X23827238Y-21009380D01*
X23922476Y-20961761D01*
X23970095Y-20866523D01*
X23970095Y-20818904D01*
X23922476Y-20723666D01*
X23827238Y-20676047D01*
X23684380Y-20676047D01*
X23589142Y-20628428D01*
X23541523Y-20533190D01*
X23541523Y-20485571D01*
X23589142Y-20390333D01*
X23684380Y-20342714D01*
X23827238Y-20342714D01*
X23922476Y-20390333D01*
X24827238Y-20961761D02*
X24732000Y-21009380D01*
X24541523Y-21009380D01*
X24446285Y-20961761D01*
X24398666Y-20914142D01*
X24351047Y-20818904D01*
X24351047Y-20533190D01*
X24398666Y-20437952D01*
X24446285Y-20390333D01*
X24541523Y-20342714D01*
X24732000Y-20342714D01*
X24827238Y-20390333D01*
X27755809Y-48009380D02*
X27279619Y-48009380D01*
X27279619Y-47009380D01*
X28232000Y-48009380D02*
X28136761Y-47961761D01*
X28089142Y-47914142D01*
X28041523Y-47818904D01*
X28041523Y-47533190D01*
X28089142Y-47437952D01*
X28136761Y-47390333D01*
X28232000Y-47342714D01*
X28374857Y-47342714D01*
X28470095Y-47390333D01*
X28517714Y-47437952D01*
X28565333Y-47533190D01*
X28565333Y-47818904D01*
X28517714Y-47914142D01*
X28470095Y-47961761D01*
X28374857Y-48009380D01*
X28232000Y-48009380D01*
X29422476Y-47961761D02*
X29327238Y-48009380D01*
X29136761Y-48009380D01*
X29041523Y-47961761D01*
X28993904Y-47914142D01*
X28946285Y-47818904D01*
X28946285Y-47533190D01*
X28993904Y-47437952D01*
X29041523Y-47390333D01*
X29136761Y-47342714D01*
X29327238Y-47342714D01*
X29422476Y-47390333D01*
X29851047Y-48009380D02*
X29851047Y-47009380D01*
X29946285Y-47628428D02*
X30232000Y-48009380D01*
X30232000Y-47342714D02*
X29851047Y-47723666D01*
X23184380Y-61961761D02*
X23327238Y-62009380D01*
X23565333Y-62009380D01*
X23660571Y-61961761D01*
X23708190Y-61914142D01*
X23755809Y-61818904D01*
X23755809Y-61723666D01*
X23708190Y-61628428D01*
X23660571Y-61580809D01*
X23565333Y-61533190D01*
X23374857Y-61485571D01*
X23279619Y-61437952D01*
X23232000Y-61390333D01*
X23184380Y-61295095D01*
X23184380Y-61199857D01*
X23232000Y-61104619D01*
X23279619Y-61057000D01*
X23374857Y-61009380D01*
X23612952Y-61009380D01*
X23755809Y-61057000D01*
X24184380Y-62009380D02*
X24184380Y-61009380D01*
X24612952Y-62009380D02*
X24612952Y-61485571D01*
X24565333Y-61390333D01*
X24470095Y-61342714D01*
X24327238Y-61342714D01*
X24232000Y-61390333D01*
X24184380Y-61437952D01*
X25089142Y-62009380D02*
X25089142Y-61342714D01*
X25089142Y-61009380D02*
X25041523Y-61057000D01*
X25089142Y-61104619D01*
X25136761Y-61057000D01*
X25089142Y-61009380D01*
X25089142Y-61104619D01*
X25422476Y-61342714D02*
X25803428Y-61342714D01*
X25565333Y-62009380D02*
X25565333Y-61152238D01*
X25612952Y-61057000D01*
X25708190Y-61009380D01*
X25803428Y-61009380D01*
X25993904Y-61342714D02*
X26374857Y-61342714D01*
X26136761Y-61009380D02*
X26136761Y-61866523D01*
X26184380Y-61961761D01*
X26279619Y-62009380D01*
X26374857Y-62009380D01*
X22208190Y-74723666D02*
X22684380Y-74723666D01*
X22112952Y-75009380D02*
X22446285Y-74009380D01*
X22779619Y-75009380D01*
X22970095Y-74342714D02*
X23351047Y-74342714D01*
X23112952Y-74009380D02*
X23112952Y-74866523D01*
X23160571Y-74961761D01*
X23255809Y-75009380D01*
X23351047Y-75009380D01*
X24112952Y-75009380D02*
X24112952Y-74485571D01*
X24065333Y-74390333D01*
X23970095Y-74342714D01*
X23779619Y-74342714D01*
X23684380Y-74390333D01*
X24112952Y-74961761D02*
X24017714Y-75009380D01*
X23779619Y-75009380D01*
X23684380Y-74961761D01*
X23636761Y-74866523D01*
X23636761Y-74771285D01*
X23684380Y-74676047D01*
X23779619Y-74628428D01*
X24017714Y-74628428D01*
X24112952Y-74580809D01*
X24589142Y-75009380D02*
X24589142Y-74342714D01*
X24589142Y-74533190D02*
X24636761Y-74437952D01*
X24684380Y-74390333D01*
X24779619Y-74342714D01*
X24874857Y-74342714D01*
X25208190Y-75009380D02*
X25208190Y-74342714D01*
X25208190Y-74009380D02*
X25160571Y-74057000D01*
X25208190Y-74104619D01*
X25255809Y-74057000D01*
X25208190Y-74009380D01*
X25208190Y-74104619D01*
X35017714Y-21009380D02*
X34446285Y-21009380D01*
X34732000Y-21009380D02*
X34732000Y-20009380D01*
X34636761Y-20152238D01*
X34541523Y-20247476D01*
X34446285Y-20295095D01*
X41112952Y-35104619D02*
X41017714Y-35057000D01*
X40922476Y-34961761D01*
X40779619Y-34818904D01*
X40684380Y-34771285D01*
X40589142Y-34771285D01*
X40636761Y-35009380D02*
X40541523Y-34961761D01*
X40446285Y-34866523D01*
X40398666Y-34676047D01*
X40398666Y-34342714D01*
X40446285Y-34152238D01*
X40541523Y-34057000D01*
X40636761Y-34009380D01*
X40827238Y-34009380D01*
X40922476Y-34057000D01*
X41017714Y-34152238D01*
X41065333Y-34342714D01*
X41065333Y-34676047D01*
X41017714Y-34866523D01*
X40922476Y-34961761D01*
X40827238Y-35009380D01*
X40636761Y-35009380D01*
X45493904Y-47723666D02*
X45970095Y-47723666D01*
X45398666Y-48009380D02*
X45732000Y-47009380D01*
X46065333Y-48009380D01*
X37303428Y-60914142D02*
X38160571Y-62199857D01*
X35422476Y-74485571D02*
X35089142Y-74485571D01*
X35089142Y-75009380D02*
X35089142Y-74009380D01*
X35565333Y-74009380D01*
X35946285Y-74342714D02*
X35946285Y-75009380D01*
X35946285Y-74437952D02*
X35993904Y-74390333D01*
X36089142Y-74342714D01*
X36232000Y-74342714D01*
X36327238Y-74390333D01*
X36374857Y-74485571D01*
X36374857Y-75009380D01*
X51303428Y-34009380D02*
X51541523Y-35009380D01*
X51732000Y-34295095D01*
X51922476Y-35009380D01*
X52160571Y-34009380D01*
X57446285Y-47961761D02*
X57589142Y-48009380D01*
X57827238Y-48009380D01*
X57922476Y-47961761D01*
X57970095Y-47914142D01*
X58017714Y-47818904D01*
X58017714Y-47723666D01*
X57970095Y-47628428D01*
X57922476Y-47580809D01*
X57827238Y-47533190D01*
X57636761Y-47485571D01*
X57541523Y-47437952D01*
X57493904Y-47390333D01*
X57446285Y-47295095D01*
X57446285Y-47199857D01*
X57493904Y-47104619D01*
X57541523Y-47057000D01*
X57636761Y-47009380D01*
X57874857Y-47009380D01*
X58017714Y-47057000D01*
X49398666Y-61009380D02*
X50065333Y-61009380D01*
X49398666Y-62009380D01*
X50065333Y-62009380D01*
X47184380Y-74914142D02*
X47136761Y-74961761D01*
X46993904Y-75009380D01*
X46898666Y-75009380D01*
X46755809Y-74961761D01*
X46660571Y-74866523D01*
X46612952Y-74771285D01*
X46565333Y-74580809D01*
X46565333Y-74437952D01*
X46612952Y-74247476D01*
X46660571Y-74152238D01*
X46755809Y-74057000D01*
X46898666Y-74009380D01*
X46993904Y-74009380D01*
X47136761Y-74057000D01*
X47184380Y-74104619D01*
X47470095Y-74342714D02*
X47851047Y-74342714D01*
X47612952Y-74009380D02*
X47612952Y-74866523D01*
X47660571Y-74961761D01*
X47755809Y-75009380D01*
X47851047Y-75009380D01*
X48184380Y-75009380D02*
X48184380Y-74342714D01*
X48184380Y-74533190D02*
X48232000Y-74437952D01*
X48279619Y-74390333D01*
X48374857Y-74342714D01*
X48470095Y-74342714D01*
X48946285Y-75009380D02*
X48851047Y-74961761D01*
X48803428Y-74866523D01*
X48803428Y-74009380D01*
X63517714Y-34485571D02*
X63851047Y-34485571D01*
X63993904Y-35009380D02*
X63517714Y-35009380D01*
X63517714Y-34009380D01*
X63993904Y-34009380D01*
X69470095Y-48009380D02*
X69470095Y-47009380D01*
X69708190Y-47009380D01*
X69851047Y-47057000D01*
X69946285Y-47152238D01*
X69993904Y-47247476D01*
X70041523Y-47437952D01*
X70041523Y-47580809D01*
X69993904Y-47771285D01*
X69946285Y-47866523D01*
X69851047Y-47961761D01*
X69708190Y-48009380D01*
X69470095Y-48009380D01*
X61398666Y-61009380D02*
X62065333Y-62009380D01*
X62065333Y-61009380D02*
X61398666Y-62009380D01*
X58946285Y-74723666D02*
X59422476Y-74723666D01*
X58851047Y-75009380D02*
X59184380Y-74009380D01*
X59517714Y-75009380D01*
X59993904Y-75009380D02*
X59898666Y-74961761D01*
X59851047Y-74866523D01*
X59851047Y-74009380D01*
X60232000Y-74342714D02*
X60612952Y-74342714D01*
X60374857Y-74009380D02*
X60374857Y-74866523D01*
X60422476Y-74961761D01*
X60517714Y-75009380D01*
X60612952Y-75009380D01*
X71922476Y-20342714D02*
X71922476Y-21009380D01*
X71684380Y-19961761D02*
X71446285Y-20676047D01*
X72065333Y-20676047D01*
X77041523Y-35009380D02*
X76708190Y-34533190D01*
X76470095Y-35009380D02*
X76470095Y-34009380D01*
X76851047Y-34009380D01*
X76946285Y-34057000D01*
X76993904Y-34104619D01*
X77041523Y-34199857D01*
X77041523Y-34342714D01*
X76993904Y-34437952D01*
X76946285Y-34485571D01*
X76851047Y-34533190D01*
X76470095Y-34533190D01*
X81874857Y-47485571D02*
X81541523Y-47485571D01*
X81541523Y-48009380D02*
X81541523Y-47009380D01*
X82017714Y-47009380D01*
X74041523Y-61914142D02*
X73993904Y-61961761D01*
X73851047Y-62009380D01*
X73755809Y-62009380D01*
X73612952Y-61961761D01*
X73517714Y-61866523D01*
X73470095Y-61771285D01*
X73422476Y-61580809D01*
X73422476Y-61437952D01*
X73470095Y-61247476D01*
X73517714Y-61152238D01*
X73612952Y-61057000D01*
X73755809Y-61009380D01*
X73851047Y-61009380D01*
X73993904Y-61057000D01*
X74041523Y-61104619D01*
X77684380Y-74961761D02*
X77827238Y-75009380D01*
X78065333Y-75009380D01*
X78160571Y-74961761D01*
X78208190Y-74914142D01*
X78255809Y-74818904D01*
X78255809Y-74723666D01*
X78208190Y-74628428D01*
X78160571Y-74580809D01*
X78065333Y-74533190D01*
X77874857Y-74485571D01*
X77779619Y-74437952D01*
X77732000Y-74390333D01*
X77684380Y-74295095D01*
X77684380Y-74199857D01*
X77732000Y-74104619D01*
X77779619Y-74057000D01*
X77874857Y-74009380D01*
X78112952Y-74009380D01*
X78255809Y-74057000D01*
X78684380Y-74342714D02*
X78684380Y-75342714D01*
X78684380Y-74390333D02*
X78779619Y-74342714D01*
X78970095Y-74342714D01*
X79065333Y-74390333D01*
X79112952Y-74437952D01*
X79160571Y-74533190D01*
X79160571Y-74818904D01*
X79112952Y-74914142D01*
X79065333Y-74961761D01*
X78970095Y-75009380D01*
X78779619Y-75009380D01*
X78684380Y-74961761D01*
X80017714Y-75009380D02*
X80017714Y-74485571D01*
X79970095Y-74390333D01*
X79874857Y-74342714D01*
X79684380Y-74342714D01*
X79589142Y-74390333D01*
X80017714Y-74961761D02*
X79922476Y-75009380D01*
X79684380Y-75009380D01*
X79589142Y-74961761D01*
X79541523Y-74866523D01*
X79541523Y-74771285D01*
X79589142Y-74676047D01*
X79684380Y-74628428D01*
X79922476Y-74628428D01*
X80017714Y-74580809D01*
X80922476Y-74961761D02*
X80827238Y-75009380D01*
X80636761Y-75009380D01*
X80541523Y-74961761D01*
X80493904Y-74914142D01*
X80446285Y-74818904D01*
X80446285Y-74533190D01*
X80493904Y-74437952D01*
X80541523Y-74390333D01*
X80636761Y-74342714D01*
X80827238Y-74342714D01*
X80922476Y-74390333D01*
X81732000Y-74961761D02*
X81636761Y-75009380D01*
X81446285Y-75009380D01*
X81351047Y-74961761D01*
X81303428Y-74866523D01*
X81303428Y-74485571D01*
X81351047Y-74390333D01*
X81446285Y-74342714D01*
X81636761Y-74342714D01*
X81732000Y-74390333D01*
X81779619Y-74485571D01*
X81779619Y-74580809D01*
X81303428Y-74676047D01*
X83970095Y-20009380D02*
X83493904Y-20009380D01*
X83446285Y-20485571D01*
X83493904Y-20437952D01*
X83589142Y-20390333D01*
X83827238Y-20390333D01*
X83922476Y-20437952D01*
X83970095Y-20485571D01*
X84017714Y-20580809D01*
X84017714Y-20818904D01*
X83970095Y-20914142D01*
X83922476Y-20961761D01*
X83827238Y-21009380D01*
X83589142Y-21009380D01*
X83493904Y-20961761D01*
X83446285Y-20914142D01*
X87446285Y-34009380D02*
X88017714Y-34009380D01*
X87732000Y-35009380D02*
X87732000Y-34009380D01*
X93993904Y-47057000D02*
X93898666Y-47009380D01*
X93755809Y-47009380D01*
X93612952Y-47057000D01*
X93517714Y-47152238D01*
X93470095Y-47247476D01*
X93422476Y-47437952D01*
X93422476Y-47580809D01*
X93470095Y-47771285D01*
X93517714Y-47866523D01*
X93612952Y-47961761D01*
X93755809Y-48009380D01*
X93851047Y-48009380D01*
X93993904Y-47961761D01*
X94041523Y-47914142D01*
X94041523Y-47580809D01*
X93851047Y-47580809D01*
X85398666Y-61009380D02*
X85732000Y-62009380D01*
X86065333Y-61009380D01*
X147041523Y-75009380D02*
X146565333Y-75009380D01*
X146565333Y-74009380D01*
X147755809Y-74961761D02*
X147660571Y-75009380D01*
X147470095Y-75009380D01*
X147374857Y-74961761D01*
X147327238Y-74866523D01*
X147327238Y-74485571D01*
X147374857Y-74390333D01*
X147470095Y-74342714D01*
X147660571Y-74342714D01*
X147755809Y-74390333D01*
X147803428Y-74485571D01*
X147803428Y-74580809D01*
X147327238Y-74676047D01*
X148089142Y-74342714D02*
X148470095Y-74342714D01*
X148232000Y-75009380D02*
X148232000Y-74152238D01*
X148279619Y-74057000D01*
X148374857Y-74009380D01*
X148470095Y-74009380D01*
X148660571Y-74342714D02*
X149041523Y-74342714D01*
X148803428Y-74009380D02*
X148803428Y-74866523D01*
X148851047Y-74961761D01*
X148946285Y-75009380D01*
X149041523Y-75009380D01*
X99732000Y-34533190D02*
X99732000Y-35009380D01*
X99398666Y-34009380D02*
X99732000Y-34533190D01*
X100065333Y-34009380D01*
X105446285Y-48009380D02*
X105446285Y-47009380D01*
X105446285Y-47485571D02*
X106017714Y-47485571D01*
X106017714Y-48009380D02*
X106017714Y-47009380D01*
X97803428Y-61485571D02*
X97946285Y-61533190D01*
X97993904Y-61580809D01*
X98041523Y-61676047D01*
X98041523Y-61818904D01*
X97993904Y-61914142D01*
X97946285Y-61961761D01*
X97851047Y-62009380D01*
X97470095Y-62009380D01*
X97470095Y-61009380D01*
X97803428Y-61009380D01*
X97898666Y-61057000D01*
X97946285Y-61104619D01*
X97993904Y-61199857D01*
X97993904Y-61295095D01*
X97946285Y-61390333D01*
X97898666Y-61437952D01*
X97803428Y-61485571D01*
X97470095Y-61485571D01*
X158993904Y-74009380D02*
X158993904Y-74818904D01*
X159041523Y-74914142D01*
X159089142Y-74961761D01*
X159184380Y-75009380D01*
X159374857Y-75009380D01*
X159470095Y-74961761D01*
X159517714Y-74914142D01*
X159565333Y-74818904D01*
X159565333Y-74009380D01*
X160041523Y-74342714D02*
X160041523Y-75342714D01*
X160041523Y-74390333D02*
X160136761Y-74342714D01*
X160327238Y-74342714D01*
X160422476Y-74390333D01*
X160470095Y-74437952D01*
X160517714Y-74533190D01*
X160517714Y-74818904D01*
X160470095Y-74914142D01*
X160422476Y-74961761D01*
X160327238Y-75009380D01*
X160136761Y-75009380D01*
X160041523Y-74961761D01*
X107398666Y-20009380D02*
X108065333Y-20009380D01*
X107636761Y-21009380D01*
X112446285Y-34009380D02*
X112446285Y-34818904D01*
X112493904Y-34914142D01*
X112541523Y-34961761D01*
X112636761Y-35009380D01*
X112827238Y-35009380D01*
X112922476Y-34961761D01*
X112970095Y-34914142D01*
X113017714Y-34818904D01*
X113017714Y-34009380D01*
X117874857Y-47009380D02*
X117874857Y-47723666D01*
X117827238Y-47866523D01*
X117732000Y-47961761D01*
X117589142Y-48009380D01*
X117493904Y-48009380D01*
X109446285Y-62009380D02*
X109446285Y-61009380D01*
X110017714Y-62009380D01*
X110017714Y-61009380D01*
X170041523Y-75009380D02*
X170041523Y-74009380D01*
X170279619Y-74009380D01*
X170422476Y-74057000D01*
X170517714Y-74152238D01*
X170565333Y-74247476D01*
X170612952Y-74437952D01*
X170612952Y-74580809D01*
X170565333Y-74771285D01*
X170517714Y-74866523D01*
X170422476Y-74961761D01*
X170279619Y-75009380D01*
X170041523Y-75009380D01*
X171184380Y-75009380D02*
X171089142Y-74961761D01*
X171041523Y-74914142D01*
X170993904Y-74818904D01*
X170993904Y-74533190D01*
X171041523Y-74437952D01*
X171089142Y-74390333D01*
X171184380Y-74342714D01*
X171327238Y-74342714D01*
X171422476Y-74390333D01*
X171470095Y-74437952D01*
X171517714Y-74533190D01*
X171517714Y-74818904D01*
X171470095Y-74914142D01*
X171422476Y-74961761D01*
X171327238Y-75009380D01*
X171184380Y-75009380D01*
X171851047Y-74342714D02*
X172041523Y-75009380D01*
X172232000Y-74533190D01*
X172422476Y-75009380D01*
X172612952Y-74342714D01*
X172993904Y-74342714D02*
X172993904Y-75009380D01*
X172993904Y-74437952D02*
X173041523Y-74390333D01*
X173136761Y-74342714D01*
X173279619Y-74342714D01*
X173374857Y-74390333D01*
X173422476Y-74485571D01*
X173422476Y-75009380D01*
X119636761Y-20437952D02*
X119541523Y-20390333D01*
X119493904Y-20342714D01*
X119446285Y-20247476D01*
X119446285Y-20199857D01*
X119493904Y-20104619D01*
X119541523Y-20057000D01*
X119636761Y-20009380D01*
X119827238Y-20009380D01*
X119922476Y-20057000D01*
X119970095Y-20104619D01*
X120017714Y-20199857D01*
X120017714Y-20247476D01*
X119970095Y-20342714D01*
X119922476Y-20390333D01*
X119827238Y-20437952D01*
X119636761Y-20437952D01*
X119541523Y-20485571D01*
X119493904Y-20533190D01*
X119446285Y-20628428D01*
X119446285Y-20818904D01*
X119493904Y-20914142D01*
X119541523Y-20961761D01*
X119636761Y-21009380D01*
X119827238Y-21009380D01*
X119922476Y-20961761D01*
X119970095Y-20914142D01*
X120017714Y-20818904D01*
X120017714Y-20628428D01*
X119970095Y-20533190D01*
X119922476Y-20485571D01*
X119827238Y-20437952D01*
X123732000Y-35009380D02*
X123732000Y-34009380D01*
X129470095Y-48009380D02*
X129470095Y-47009380D01*
X130041523Y-48009380D02*
X129612952Y-47437952D01*
X130041523Y-47009380D02*
X129470095Y-47580809D01*
X121398666Y-62009380D02*
X121398666Y-61009380D01*
X121732000Y-61723666D01*
X122065333Y-61009380D01*
X122065333Y-62009380D01*
X182612952Y-75009380D02*
X182279619Y-74533190D01*
X182041523Y-75009380D02*
X182041523Y-74009380D01*
X182422476Y-74009380D01*
X182517714Y-74057000D01*
X182565333Y-74104619D01*
X182612952Y-74199857D01*
X182612952Y-74342714D01*
X182565333Y-74437952D01*
X182517714Y-74485571D01*
X182422476Y-74533190D01*
X182041523Y-74533190D01*
X183041523Y-75009380D02*
X183041523Y-74342714D01*
X183041523Y-74009380D02*
X182993904Y-74057000D01*
X183041523Y-74104619D01*
X183089142Y-74057000D01*
X183041523Y-74009380D01*
X183041523Y-74104619D01*
X183946285Y-74342714D02*
X183946285Y-75152238D01*
X183898666Y-75247476D01*
X183851047Y-75295095D01*
X183755809Y-75342714D01*
X183612952Y-75342714D01*
X183517714Y-75295095D01*
X183946285Y-74961761D02*
X183851047Y-75009380D01*
X183660571Y-75009380D01*
X183565333Y-74961761D01*
X183517714Y-74914142D01*
X183470095Y-74818904D01*
X183470095Y-74533190D01*
X183517714Y-74437952D01*
X183565333Y-74390333D01*
X183660571Y-74342714D01*
X183851047Y-74342714D01*
X183946285Y-74390333D01*
X184422476Y-75009380D02*
X184422476Y-74009380D01*
X184851047Y-75009380D02*
X184851047Y-74485571D01*
X184803428Y-74390333D01*
X184708190Y-74342714D01*
X184565333Y-74342714D01*
X184470095Y-74390333D01*
X184422476Y-74437952D01*
X185184380Y-74342714D02*
X185565333Y-74342714D01*
X185327238Y-74009380D02*
X185327238Y-74866523D01*
X185374857Y-74961761D01*
X185470095Y-75009380D01*
X185565333Y-75009380D01*
X131541523Y-21009380D02*
X131732000Y-21009380D01*
X131827238Y-20961761D01*
X131874857Y-20914142D01*
X131970095Y-20771285D01*
X132017714Y-20580809D01*
X132017714Y-20199857D01*
X131970095Y-20104619D01*
X131922476Y-20057000D01*
X131827238Y-20009380D01*
X131636761Y-20009380D01*
X131541523Y-20057000D01*
X131493904Y-20104619D01*
X131446285Y-20199857D01*
X131446285Y-20437952D01*
X131493904Y-20533190D01*
X131541523Y-20580809D01*
X131636761Y-20628428D01*
X131827238Y-20628428D01*
X131922476Y-20580809D01*
X131970095Y-20533190D01*
X132017714Y-20437952D01*
X135636761Y-34009380D02*
X135827238Y-34009380D01*
X135922476Y-34057000D01*
X136017714Y-34152238D01*
X136065333Y-34342714D01*
X136065333Y-34676047D01*
X136017714Y-34866523D01*
X135922476Y-34961761D01*
X135827238Y-35009380D01*
X135636761Y-35009380D01*
X135541523Y-34961761D01*
X135446285Y-34866523D01*
X135398666Y-34676047D01*
X135398666Y-34342714D01*
X135446285Y-34152238D01*
X135541523Y-34057000D01*
X135636761Y-34009380D01*
X142041523Y-48009380D02*
X141565333Y-48009380D01*
X141565333Y-47009380D01*
X133779619Y-61961761D02*
X133779619Y-62009380D01*
X133732000Y-62104619D01*
X133684380Y-62152238D01*
X153779619Y-47961761D02*
X153779619Y-48009380D01*
X153732000Y-48104619D01*
X153684380Y-48152238D01*
X153732000Y-47390333D02*
X153779619Y-47437952D01*
X153732000Y-47485571D01*
X153684380Y-47437952D01*
X153732000Y-47390333D01*
X153732000Y-47485571D01*
X145732000Y-61914142D02*
X145779619Y-61961761D01*
X145732000Y-62009380D01*
X145684380Y-61961761D01*
X145732000Y-61914142D01*
X145732000Y-62009380D01*
X155351047Y-20628428D02*
X156112952Y-20628428D01*
X159922476Y-35342714D02*
X159684380Y-35342714D01*
X159684380Y-33914142D01*
X159922476Y-33914142D01*
X165779619Y-47009380D02*
X165684380Y-47199857D01*
X158160571Y-60961761D02*
X157303428Y-62247476D01*
X167351047Y-20485571D02*
X168112952Y-20485571D01*
X168112952Y-20771285D02*
X167351047Y-20771285D01*
X171541523Y-35342714D02*
X171779619Y-35342714D01*
X171779619Y-33914142D01*
X171541523Y-33914142D01*
X168874857Y-62009380D02*
X168874857Y-61009380D01*
X169351047Y-61342714D02*
X169351047Y-62009380D01*
X169351047Y-61437952D02*
X169398666Y-61390333D01*
X169493904Y-61342714D01*
X169636761Y-61342714D01*
X169732000Y-61390333D01*
X169779619Y-61485571D01*
X169779619Y-62009380D01*
X170208190Y-61961761D02*
X170303428Y-62009380D01*
X170493904Y-62009380D01*
X170589142Y-61961761D01*
X170636761Y-61866523D01*
X170636761Y-61818904D01*
X170589142Y-61723666D01*
X170493904Y-61676047D01*
X170351047Y-61676047D01*
X170255809Y-61628428D01*
X170208190Y-61533190D01*
X170208190Y-61485571D01*
X170255809Y-61390333D01*
X170351047Y-61342714D01*
X170493904Y-61342714D01*
X170589142Y-61390333D01*
X178351047Y-20485571D02*
X178493904Y-20533190D01*
X178541523Y-20580809D01*
X178589142Y-20676047D01*
X178589142Y-20818904D01*
X178541523Y-20914142D01*
X178493904Y-20961761D01*
X178398666Y-21009380D01*
X178017714Y-21009380D01*
X178017714Y-20009380D01*
X178351047Y-20009380D01*
X178446285Y-20057000D01*
X178493904Y-20104619D01*
X178541523Y-20199857D01*
X178541523Y-20295095D01*
X178493904Y-20390333D01*
X178446285Y-20437952D01*
X178351047Y-20485571D01*
X178017714Y-20485571D01*
X179446285Y-21009380D02*
X179446285Y-20485571D01*
X179398666Y-20390333D01*
X179303428Y-20342714D01*
X179112952Y-20342714D01*
X179017714Y-20390333D01*
X179446285Y-20961761D02*
X179351047Y-21009380D01*
X179112952Y-21009380D01*
X179017714Y-20961761D01*
X178970095Y-20866523D01*
X178970095Y-20771285D01*
X179017714Y-20676047D01*
X179112952Y-20628428D01*
X179351047Y-20628428D01*
X179446285Y-20580809D01*
X180351047Y-20961761D02*
X180255809Y-21009380D01*
X180065333Y-21009380D01*
X179970095Y-20961761D01*
X179922476Y-20914142D01*
X179874857Y-20818904D01*
X179874857Y-20533190D01*
X179922476Y-20437952D01*
X179970095Y-20390333D01*
X180065333Y-20342714D01*
X180255809Y-20342714D01*
X180351047Y-20390333D01*
X180779619Y-21009380D02*
X180779619Y-20009380D01*
X180874857Y-20628428D02*
X181160571Y-21009380D01*
X181160571Y-20342714D02*
X180779619Y-20723666D01*
X181541523Y-20961761D02*
X181636761Y-21009380D01*
X181827238Y-21009380D01*
X181922476Y-20961761D01*
X181970095Y-20866523D01*
X181970095Y-20818904D01*
X181922476Y-20723666D01*
X181827238Y-20676047D01*
X181684380Y-20676047D01*
X181589142Y-20628428D01*
X181541523Y-20533190D01*
X181541523Y-20485571D01*
X181589142Y-20390333D01*
X181684380Y-20342714D01*
X181827238Y-20342714D01*
X181922476Y-20390333D01*
X182398666Y-20342714D02*
X182398666Y-21342714D01*
X182398666Y-20390333D02*
X182493904Y-20342714D01*
X182684380Y-20342714D01*
X182779619Y-20390333D01*
X182827238Y-20437952D01*
X182874857Y-20533190D01*
X182874857Y-20818904D01*
X182827238Y-20914142D01*
X182779619Y-20961761D01*
X182684380Y-21009380D01*
X182493904Y-21009380D01*
X182398666Y-20961761D01*
X183732000Y-21009380D02*
X183732000Y-20485571D01*
X183684380Y-20390333D01*
X183589142Y-20342714D01*
X183398666Y-20342714D01*
X183303428Y-20390333D01*
X183732000Y-20961761D02*
X183636761Y-21009380D01*
X183398666Y-21009380D01*
X183303428Y-20961761D01*
X183255809Y-20866523D01*
X183255809Y-20771285D01*
X183303428Y-20676047D01*
X183398666Y-20628428D01*
X183636761Y-20628428D01*
X183732000Y-20580809D01*
X184636761Y-20961761D02*
X184541523Y-21009380D01*
X184351047Y-21009380D01*
X184255809Y-20961761D01*
X184208190Y-20914142D01*
X184160571Y-20818904D01*
X184160571Y-20533190D01*
X184208190Y-20437952D01*
X184255809Y-20390333D01*
X184351047Y-20342714D01*
X184541523Y-20342714D01*
X184636761Y-20390333D01*
X185446285Y-20961761D02*
X185351047Y-21009380D01*
X185160571Y-21009380D01*
X185065333Y-20961761D01*
X185017714Y-20866523D01*
X185017714Y-20485571D01*
X185065333Y-20390333D01*
X185160571Y-20342714D01*
X185351047Y-20342714D01*
X185446285Y-20390333D01*
X185493904Y-20485571D01*
X185493904Y-20580809D01*
X185017714Y-20676047D01*
X182041523Y-40485571D02*
X182374857Y-40485571D01*
X182517714Y-41009380D02*
X182041523Y-41009380D01*
X182041523Y-40009380D01*
X182517714Y-40009380D01*
X182946285Y-40342714D02*
X182946285Y-41009380D01*
X182946285Y-40437952D02*
X182993904Y-40390333D01*
X183089142Y-40342714D01*
X183232000Y-40342714D01*
X183327238Y-40390333D01*
X183374857Y-40485571D01*
X183374857Y-41009380D01*
X183708190Y-40342714D02*
X184089142Y-40342714D01*
X183851047Y-40009380D02*
X183851047Y-40866523D01*
X183898666Y-40961761D01*
X183993904Y-41009380D01*
X184089142Y-41009380D01*
X184803428Y-40961761D02*
X184708190Y-41009380D01*
X184517714Y-41009380D01*
X184422476Y-40961761D01*
X184374857Y-40866523D01*
X184374857Y-40485571D01*
X184422476Y-40390333D01*
X184517714Y-40342714D01*
X184708190Y-40342714D01*
X184803428Y-40390333D01*
X184851047Y-40485571D01*
X184851047Y-40580809D01*
X184374857Y-40676047D01*
X185279619Y-41009380D02*
X185279619Y-40342714D01*
X185279619Y-40533190D02*
X185327238Y-40437952D01*
X185374857Y-40390333D01*
X185470095Y-40342714D01*
X185565333Y-40342714D01*
X178874857Y-61961761D02*
X179017714Y-62009380D01*
X179255809Y-62009380D01*
X179351047Y-61961761D01*
X179398666Y-61914142D01*
X179446285Y-61818904D01*
X179446285Y-61723666D01*
X179398666Y-61628428D01*
X179351047Y-61580809D01*
X179255809Y-61533190D01*
X179065333Y-61485571D01*
X178970095Y-61437952D01*
X178922476Y-61390333D01*
X178874857Y-61295095D01*
X178874857Y-61199857D01*
X178922476Y-61104619D01*
X178970095Y-61057000D01*
X179065333Y-61009380D01*
X179303428Y-61009380D01*
X179446285Y-61057000D01*
X179874857Y-62009380D02*
X179874857Y-61009380D01*
X180303428Y-62009380D02*
X180303428Y-61485571D01*
X180255809Y-61390333D01*
X180160571Y-61342714D01*
X180017714Y-61342714D01*
X179922476Y-61390333D01*
X179874857Y-61437952D01*
X180779619Y-62009380D02*
X180779619Y-61342714D01*
X180779619Y-61009380D02*
X180732000Y-61057000D01*
X180779619Y-61104619D01*
X180827238Y-61057000D01*
X180779619Y-61009380D01*
X180779619Y-61104619D01*
X181112952Y-61342714D02*
X181493904Y-61342714D01*
X181255809Y-62009380D02*
X181255809Y-61152238D01*
X181303428Y-61057000D01*
X181398666Y-61009380D01*
X181493904Y-61009380D01*
X181684380Y-61342714D02*
X182065333Y-61342714D01*
X181827238Y-61009380D02*
X181827238Y-61866523D01*
X181874857Y-61961761D01*
X181970095Y-62009380D01*
X182065333Y-62009380D01*
X182160571Y-62104619D02*
X182922476Y-62104619D01*
X183732000Y-62009380D02*
X183398666Y-61533190D01*
X183160571Y-62009380D02*
X183160571Y-61009380D01*
X183541523Y-61009380D01*
X183636761Y-61057000D01*
X183684380Y-61104619D01*
X183732000Y-61199857D01*
X183732000Y-61342714D01*
X183684380Y-61437952D01*
X183636761Y-61485571D01*
X183541523Y-61533190D01*
X183160571Y-61533190D01*
X184160571Y-62009380D02*
X184160571Y-61342714D01*
X184160571Y-61009380D02*
X184112952Y-61057000D01*
X184160571Y-61104619D01*
X184208190Y-61057000D01*
X184160571Y-61009380D01*
X184160571Y-61104619D01*
X185065333Y-61342714D02*
X185065333Y-62152238D01*
X185017714Y-62247476D01*
X184970095Y-62295095D01*
X184874857Y-62342714D01*
X184732000Y-62342714D01*
X184636761Y-62295095D01*
X185065333Y-61961761D02*
X184970095Y-62009380D01*
X184779619Y-62009380D01*
X184684380Y-61961761D01*
X184636761Y-61914142D01*
X184589142Y-61818904D01*
X184589142Y-61533190D01*
X184636761Y-61437952D01*
X184684380Y-61390333D01*
X184779619Y-61342714D01*
X184970095Y-61342714D01*
X185065333Y-61390333D01*
X185541523Y-62009380D02*
X185541523Y-61009380D01*
X185970095Y-62009380D02*
X185970095Y-61485571D01*
X185922476Y-61390333D01*
X185827238Y-61342714D01*
X185684380Y-61342714D01*
X185589142Y-61390333D01*
X185541523Y-61437952D01*
X186303428Y-61342714D02*
X186684380Y-61342714D01*
X186446285Y-61009380D02*
X186446285Y-61866523D01*
X186493904Y-61961761D01*
X186589142Y-62009380D01*
X186684380Y-62009380D01*
X143684380Y-20009380D02*
X143779619Y-20009380D01*
X143874857Y-20057000D01*
X143922476Y-20104619D01*
X143970095Y-20199857D01*
X144017714Y-20390333D01*
X144017714Y-20628428D01*
X143970095Y-20818904D01*
X143922476Y-20914142D01*
X143874857Y-20961761D01*
X143779619Y-21009380D01*
X143684380Y-21009380D01*
X143589142Y-20961761D01*
X143541523Y-20914142D01*
X143493904Y-20818904D01*
X143446285Y-20628428D01*
X143446285Y-20390333D01*
X143493904Y-20199857D01*
X143541523Y-20104619D01*
X143589142Y-20057000D01*
X143684380Y-20009380D01*
X24541523Y-34009380D02*
X25112952Y-34009380D01*
X24827238Y-35009380D02*
X24827238Y-34009380D01*
X25874857Y-35009380D02*
X25874857Y-34485571D01*
X25827238Y-34390333D01*
X25732000Y-34342714D01*
X25541523Y-34342714D01*
X25446285Y-34390333D01*
X25874857Y-34961761D02*
X25779619Y-35009380D01*
X25541523Y-35009380D01*
X25446285Y-34961761D01*
X25398666Y-34866523D01*
X25398666Y-34771285D01*
X25446285Y-34676047D01*
X25541523Y-34628428D01*
X25779619Y-34628428D01*
X25874857Y-34580809D01*
X26351047Y-35009380D02*
X26351047Y-34009380D01*
X26351047Y-34390333D02*
X26446285Y-34342714D01*
X26636761Y-34342714D01*
X26732000Y-34390333D01*
X26779619Y-34437952D01*
X26827238Y-34533190D01*
X26827238Y-34818904D01*
X26779619Y-34914142D01*
X26732000Y-34961761D01*
X26636761Y-35009380D01*
X26446285Y-35009380D01*
X26351047Y-34961761D01*
X46446285Y-20104619D02*
X46493904Y-20057000D01*
X46589142Y-20009380D01*
X46827238Y-20009380D01*
X46922476Y-20057000D01*
X46970095Y-20104619D01*
X47017714Y-20199857D01*
X47017714Y-20295095D01*
X46970095Y-20437952D01*
X46398666Y-21009380D01*
X47017714Y-21009380D01*
X57398666Y-20009380D02*
X58017714Y-20009380D01*
X57684380Y-20390333D01*
X57827238Y-20390333D01*
X57922476Y-20437952D01*
X57970095Y-20485571D01*
X58017714Y-20580809D01*
X58017714Y-20818904D01*
X57970095Y-20914142D01*
X57922476Y-20961761D01*
X57827238Y-21009380D01*
X57541523Y-21009380D01*
X57446285Y-20961761D01*
X57398666Y-20914142D01*
X95922476Y-20009380D02*
X95732000Y-20009380D01*
X95636761Y-20057000D01*
X95589142Y-20104619D01*
X95493904Y-20247476D01*
X95446285Y-20437952D01*
X95446285Y-20818904D01*
X95493904Y-20914142D01*
X95541523Y-20961761D01*
X95636761Y-21009380D01*
X95827238Y-21009380D01*
X95922476Y-20961761D01*
X95970095Y-20914142D01*
X96017714Y-20818904D01*
X96017714Y-20580809D01*
X95970095Y-20485571D01*
X95922476Y-20437952D01*
X95827238Y-20390333D01*
X95636761Y-20390333D01*
X95541523Y-20437952D01*
X95493904Y-20485571D01*
X95446285Y-20580809D01*
X125208190Y-74961761D02*
X125351047Y-75009380D01*
X125589142Y-75009380D01*
X125684380Y-74961761D01*
X125732000Y-74914142D01*
X125779619Y-74818904D01*
X125779619Y-74723666D01*
X125732000Y-74628428D01*
X125684380Y-74580809D01*
X125589142Y-74533190D01*
X125398666Y-74485571D01*
X125303428Y-74437952D01*
X125255809Y-74390333D01*
X125208190Y-74295095D01*
X125208190Y-74199857D01*
X125255809Y-74104619D01*
X125303428Y-74057000D01*
X125398666Y-74009380D01*
X125636761Y-74009380D01*
X125779619Y-74057000D01*
X126208190Y-74342714D02*
X126208190Y-75342714D01*
X126208190Y-74390333D02*
X126303428Y-74342714D01*
X126493904Y-74342714D01*
X126589142Y-74390333D01*
X126636761Y-74437952D01*
X126684380Y-74533190D01*
X126684380Y-74818904D01*
X126636761Y-74914142D01*
X126589142Y-74961761D01*
X126493904Y-75009380D01*
X126303428Y-75009380D01*
X126208190Y-74961761D01*
X127541523Y-75009380D02*
X127541523Y-74485571D01*
X127493904Y-74390333D01*
X127398666Y-74342714D01*
X127208190Y-74342714D01*
X127112952Y-74390333D01*
X127541523Y-74961761D02*
X127446285Y-75009380D01*
X127208190Y-75009380D01*
X127112952Y-74961761D01*
X127065333Y-74866523D01*
X127065333Y-74771285D01*
X127112952Y-74676047D01*
X127208190Y-74628428D01*
X127446285Y-74628428D01*
X127541523Y-74580809D01*
X128446285Y-74961761D02*
X128351047Y-75009380D01*
X128160571Y-75009380D01*
X128065333Y-74961761D01*
X128017714Y-74914142D01*
X127970095Y-74818904D01*
X127970095Y-74533190D01*
X128017714Y-74437952D01*
X128065333Y-74390333D01*
X128160571Y-74342714D01*
X128351047Y-74342714D01*
X128446285Y-74390333D01*
X129255809Y-74961761D02*
X129160571Y-75009380D01*
X128970095Y-75009380D01*
X128874857Y-74961761D01*
X128827238Y-74866523D01*
X128827238Y-74485571D01*
X128874857Y-74390333D01*
X128970095Y-74342714D01*
X129160571Y-74342714D01*
X129255809Y-74390333D01*
X129303428Y-74485571D01*
X129303428Y-74580809D01*
X128827238Y-74676047D01*
X129684380Y-74104619D02*
X129732000Y-74057000D01*
X129827238Y-74009380D01*
X130065333Y-74009380D01*
X130160571Y-74057000D01*
X130208190Y-74104619D01*
X130255809Y-74199857D01*
X130255809Y-74295095D01*
X130208190Y-74437952D01*
X129636761Y-75009380D01*
X130255809Y-75009380D01*
X147470095Y-35009380D02*
X147470095Y-34009380D01*
X147851047Y-34009380D01*
X147946285Y-34057000D01*
X147993904Y-34104619D01*
X148041523Y-34199857D01*
X148041523Y-34342714D01*
X147993904Y-34437952D01*
X147946285Y-34485571D01*
X147851047Y-34533190D01*
X147470095Y-34533190D01*
M02*
