G04 #@! TF.GenerationSoftware,KiCad,Pcbnew,6.0.4-6f826c9f35~116~ubuntu20.04.1*
G04 #@! TF.CreationDate,2022-04-24T22:14:46+02:00*
G04 #@! TF.ProjectId,keyboard,6b657962-6f61-4726-942e-6b696361645f,rev?*
G04 #@! TF.SameCoordinates,Original*
G04 #@! TF.FileFunction,Soldermask,Top*
G04 #@! TF.FilePolarity,Negative*
%FSLAX46Y46*%
G04 Gerber Fmt 4.6, Leading zero omitted, Abs format (unit mm)*
G04 Created by KiCad (PCBNEW 6.0.4-6f826c9f35~116~ubuntu20.04.1) date 2022-04-24 22:14:46*
%MOMM*%
%LPD*%
G01*
G04 APERTURE LIST*
G04 Aperture macros list*
%AMFreePoly0*
4,1,103,0.422812,1.999002,0.439619,1.993171,0.440305,1.991756,0.441755,1.991155,0.448553,1.974744,0.456314,1.958736,0.455799,1.957251,0.456400,1.955800,0.456400,-0.935780,2.413800,-2.023224,2.413800,1.422400,2.417334,1.430931,2.417061,1.440161,2.424368,1.447914,2.428445,1.457755,2.436975,1.461288,2.443309,1.468008,2.453957,1.468323,2.463800,1.472400,2.472331,1.468866,
2.481561,1.469139,3.751561,0.986539,3.759314,0.979232,3.769155,0.975155,3.772688,0.966625,3.779408,0.960291,3.779723,0.949643,3.783800,0.939800,3.783800,-2.260600,3.782370,-2.264052,3.783297,-2.267671,3.775221,-2.281311,3.769155,-2.295955,3.765704,-2.297385,3.763800,-2.300600,3.560600,-2.453000,3.554370,-2.454596,3.549831,-2.459154,3.245031,-2.586154,3.241949,-2.586160,
3.239536,-2.588076,2.883936,-2.689676,2.881796,-2.689430,2.880006,-2.690629,2.499006,-2.766829,2.493956,-2.765830,2.489200,-2.767800,2.032000,-2.767800,2.028200,-2.766226,2.024202,-2.767188,1.541602,-2.690988,1.537909,-2.688727,1.533589,-2.689034,1.076389,-2.536634,1.071884,-2.532727,1.065995,-2.531783,0.735795,-2.328583,0.733473,-2.325375,0.729703,-2.324169,0.399503,-2.044769,
0.398489,-2.042802,0.396444,-2.041955,0.117045,-1.762555,0.115214,-1.758134,0.111198,-1.755527,-0.168202,-1.349126,-0.169400,-1.343493,-0.173424,-1.339370,-0.325824,-0.958370,-0.325797,-0.956186,-0.327189,-0.954504,-0.428789,-0.624304,-0.428380,-0.619972,-0.430561,-0.616208,-0.481361,-0.235208,-0.480462,-0.231830,-0.481800,-0.228600,-0.481800,0.203200,-0.480370,0.206652,-0.481297,0.210271,
-0.430498,0.565871,-0.428402,0.569410,-0.428789,0.573504,-0.327189,0.903704,-0.324938,0.906424,-0.324798,0.909953,-0.172398,1.240153,-0.171085,1.241365,-0.170895,1.243143,-0.018495,1.522543,-0.015193,1.525207,-0.014068,1.529297,0.163733,1.757897,0.165256,1.758763,0.165830,1.760418,0.369030,1.989019,0.370444,1.989705,0.371045,1.991155,0.387459,1.997954,0.403464,2.005714,
0.404949,2.005199,0.406400,2.005800,0.422812,1.999002,0.422812,1.999002,$1*%
%AMFreePoly1*
4,1,94,-2.235111,2.741264,-2.232081,2.742303,-1.825681,2.716903,-1.821113,2.714668,-1.816075,2.715354,-1.333475,2.588354,-1.329741,2.585515,-1.325056,2.585309,-0.944056,2.407509,-0.941067,2.404245,-0.936740,2.403310,-0.606540,2.174710,-0.605988,2.173853,-0.605000,2.173600,-0.300200,1.945000,-0.297615,1.940634,-0.293035,1.938448,-0.064435,1.684448,-0.062855,1.679982,-0.059017,1.677205,
0.144183,1.347005,0.144553,1.344694,0.146321,1.343161,0.324121,0.987561,0.324386,0.983834,0.326834,0.981011,0.453834,0.600012,0.453469,0.594877,0.456014,0.590402,0.506814,0.184001,0.505943,0.180834,0.507200,0.177800,0.507200,-0.203200,0.505543,-0.207200,0.506520,-0.211419,0.430320,-0.668620,0.428143,-0.672110,0.428434,-0.676211,0.276034,-1.133411,0.273146,-1.136741,
0.272718,-1.141129,0.069518,-1.522129,0.064272,-1.526442,0.061877,-1.532797,-0.319123,-1.939197,-0.319914,-1.939555,-0.320245,-1.940355,-0.337228,-1.947390,-0.353988,-1.954974,-0.354799,-1.954668,-0.355600,-1.955000,-0.372581,-1.947966,-0.389797,-1.941477,-0.390155,-1.940686,-0.390955,-1.940355,-0.397990,-1.923372,-0.405574,-1.906612,-0.405268,-1.905801,-0.405600,-1.905000,-0.405600,1.311106,
-2.413800,2.036962,-2.413800,-1.320800,-2.419036,-1.333440,-2.421184,-1.346951,-2.426114,-1.350528,-2.428445,-1.356155,-2.441085,-1.361391,-2.452158,-1.369425,-2.458172,-1.368469,-2.463800,-1.370800,-2.476440,-1.365564,-2.489951,-1.363416,-3.607551,-0.677616,-3.611128,-0.672686,-3.616755,-0.670355,-3.621990,-0.657716,-3.630025,-0.646643,-3.629069,-0.640628,-3.631400,-0.635000,-3.631400,2.362200,
-3.627829,2.370821,-3.628067,2.380149,-3.620795,2.387803,-3.616755,2.397555,-3.608136,2.401125,-3.601707,2.407891,-3.144507,2.611091,-3.139306,2.611224,-3.135047,2.614209,-2.677846,2.715809,-2.673713,2.715082,-2.669936,2.716914,-2.238137,2.742314,-2.235111,2.741264,-2.235111,2.741264,$1*%
G04 Aperture macros list end*
%ADD10C,0.100000*%
%ADD11C,5.000000*%
%ADD12FreePoly0,0.000000*%
%ADD13FreePoly1,0.000000*%
%ADD14C,3.000000*%
G04 APERTURE END LIST*
G36*
X24836900Y-21776200D02*
G01*
X25637000Y-22309600D01*
X26373600Y-23503400D01*
X26373600Y-24849600D01*
X25916400Y-25814800D01*
X25103600Y-26500600D01*
X24113000Y-26881600D01*
X23097000Y-26856200D01*
X22106400Y-26399000D01*
X21319000Y-25510000D01*
X20988800Y-24240000D01*
X21141200Y-23300200D01*
X21649200Y-22487400D01*
X22411200Y-21852400D01*
X23592300Y-21522200D01*
X24836900Y-21776200D01*
G37*
D10*
X24836900Y-21776200D02*
X25637000Y-22309600D01*
X26373600Y-23503400D01*
X26373600Y-24849600D01*
X25916400Y-25814800D01*
X25103600Y-26500600D01*
X24113000Y-26881600D01*
X23097000Y-26856200D01*
X22106400Y-26399000D01*
X21319000Y-25510000D01*
X20988800Y-24240000D01*
X21141200Y-23300200D01*
X21649200Y-22487400D01*
X22411200Y-21852400D01*
X23592300Y-21522200D01*
X24836900Y-21776200D01*
G36*
X29836900Y-48776200D02*
G01*
X30637000Y-49309600D01*
X31373600Y-50503400D01*
X31373600Y-51849600D01*
X30916400Y-52814800D01*
X30103600Y-53500600D01*
X29113000Y-53881600D01*
X28097000Y-53856200D01*
X27106400Y-53399000D01*
X26319000Y-52510000D01*
X25988800Y-51240000D01*
X26141200Y-50300200D01*
X26649200Y-49487400D01*
X27411200Y-48852400D01*
X28592300Y-48522200D01*
X29836900Y-48776200D01*
G37*
X29836900Y-48776200D02*
X30637000Y-49309600D01*
X31373600Y-50503400D01*
X31373600Y-51849600D01*
X30916400Y-52814800D01*
X30103600Y-53500600D01*
X29113000Y-53881600D01*
X28097000Y-53856200D01*
X27106400Y-53399000D01*
X26319000Y-52510000D01*
X25988800Y-51240000D01*
X26141200Y-50300200D01*
X26649200Y-49487400D01*
X27411200Y-48852400D01*
X28592300Y-48522200D01*
X29836900Y-48776200D01*
G36*
X25836900Y-62776200D02*
G01*
X26637000Y-63309600D01*
X27373600Y-64503400D01*
X27373600Y-65849600D01*
X26916400Y-66814800D01*
X26103600Y-67500600D01*
X25113000Y-67881600D01*
X24097000Y-67856200D01*
X23106400Y-67399000D01*
X22319000Y-66510000D01*
X21988800Y-65240000D01*
X22141200Y-64300200D01*
X22649200Y-63487400D01*
X23411200Y-62852400D01*
X24592300Y-62522200D01*
X25836900Y-62776200D01*
G37*
X25836900Y-62776200D02*
X26637000Y-63309600D01*
X27373600Y-64503400D01*
X27373600Y-65849600D01*
X26916400Y-66814800D01*
X26103600Y-67500600D01*
X25113000Y-67881600D01*
X24097000Y-67856200D01*
X23106400Y-67399000D01*
X22319000Y-66510000D01*
X21988800Y-65240000D01*
X22141200Y-64300200D01*
X22649200Y-63487400D01*
X23411200Y-62852400D01*
X24592300Y-62522200D01*
X25836900Y-62776200D01*
G36*
X24836900Y-75776200D02*
G01*
X25637000Y-76309600D01*
X26373600Y-77503400D01*
X26373600Y-78849600D01*
X25916400Y-79814800D01*
X25103600Y-80500600D01*
X24113000Y-80881600D01*
X23097000Y-80856200D01*
X22106400Y-80399000D01*
X21319000Y-79510000D01*
X20988800Y-78240000D01*
X21141200Y-77300200D01*
X21649200Y-76487400D01*
X22411200Y-75852400D01*
X23592300Y-75522200D01*
X24836900Y-75776200D01*
G37*
X24836900Y-75776200D02*
X25637000Y-76309600D01*
X26373600Y-77503400D01*
X26373600Y-78849600D01*
X25916400Y-79814800D01*
X25103600Y-80500600D01*
X24113000Y-80881600D01*
X23097000Y-80856200D01*
X22106400Y-80399000D01*
X21319000Y-79510000D01*
X20988800Y-78240000D01*
X21141200Y-77300200D01*
X21649200Y-76487400D01*
X22411200Y-75852400D01*
X23592300Y-75522200D01*
X24836900Y-75776200D01*
G36*
X35836900Y-21776200D02*
G01*
X36637000Y-22309600D01*
X37373600Y-23503400D01*
X37373600Y-24849600D01*
X36916400Y-25814800D01*
X36103600Y-26500600D01*
X35113000Y-26881600D01*
X34097000Y-26856200D01*
X33106400Y-26399000D01*
X32319000Y-25510000D01*
X31988800Y-24240000D01*
X32141200Y-23300200D01*
X32649200Y-22487400D01*
X33411200Y-21852400D01*
X34592300Y-21522200D01*
X35836900Y-21776200D01*
G37*
X35836900Y-21776200D02*
X36637000Y-22309600D01*
X37373600Y-23503400D01*
X37373600Y-24849600D01*
X36916400Y-25814800D01*
X36103600Y-26500600D01*
X35113000Y-26881600D01*
X34097000Y-26856200D01*
X33106400Y-26399000D01*
X32319000Y-25510000D01*
X31988800Y-24240000D01*
X32141200Y-23300200D01*
X32649200Y-22487400D01*
X33411200Y-21852400D01*
X34592300Y-21522200D01*
X35836900Y-21776200D01*
G36*
X41836900Y-35776200D02*
G01*
X42637000Y-36309600D01*
X43373600Y-37503400D01*
X43373600Y-38849600D01*
X42916400Y-39814800D01*
X42103600Y-40500600D01*
X41113000Y-40881600D01*
X40097000Y-40856200D01*
X39106400Y-40399000D01*
X38319000Y-39510000D01*
X37988800Y-38240000D01*
X38141200Y-37300200D01*
X38649200Y-36487400D01*
X39411200Y-35852400D01*
X40592300Y-35522200D01*
X41836900Y-35776200D01*
G37*
X41836900Y-35776200D02*
X42637000Y-36309600D01*
X43373600Y-37503400D01*
X43373600Y-38849600D01*
X42916400Y-39814800D01*
X42103600Y-40500600D01*
X41113000Y-40881600D01*
X40097000Y-40856200D01*
X39106400Y-40399000D01*
X38319000Y-39510000D01*
X37988800Y-38240000D01*
X38141200Y-37300200D01*
X38649200Y-36487400D01*
X39411200Y-35852400D01*
X40592300Y-35522200D01*
X41836900Y-35776200D01*
G36*
X46836900Y-48776200D02*
G01*
X47637000Y-49309600D01*
X48373600Y-50503400D01*
X48373600Y-51849600D01*
X47916400Y-52814800D01*
X47103600Y-53500600D01*
X46113000Y-53881600D01*
X45097000Y-53856200D01*
X44106400Y-53399000D01*
X43319000Y-52510000D01*
X42988800Y-51240000D01*
X43141200Y-50300200D01*
X43649200Y-49487400D01*
X44411200Y-48852400D01*
X45592300Y-48522200D01*
X46836900Y-48776200D01*
G37*
X46836900Y-48776200D02*
X47637000Y-49309600D01*
X48373600Y-50503400D01*
X48373600Y-51849600D01*
X47916400Y-52814800D01*
X47103600Y-53500600D01*
X46113000Y-53881600D01*
X45097000Y-53856200D01*
X44106400Y-53399000D01*
X43319000Y-52510000D01*
X42988800Y-51240000D01*
X43141200Y-50300200D01*
X43649200Y-49487400D01*
X44411200Y-48852400D01*
X45592300Y-48522200D01*
X46836900Y-48776200D01*
G36*
X38836900Y-62776200D02*
G01*
X39637000Y-63309600D01*
X40373600Y-64503400D01*
X40373600Y-65849600D01*
X39916400Y-66814800D01*
X39103600Y-67500600D01*
X38113000Y-67881600D01*
X37097000Y-67856200D01*
X36106400Y-67399000D01*
X35319000Y-66510000D01*
X34988800Y-65240000D01*
X35141200Y-64300200D01*
X35649200Y-63487400D01*
X36411200Y-62852400D01*
X37592300Y-62522200D01*
X38836900Y-62776200D01*
G37*
X38836900Y-62776200D02*
X39637000Y-63309600D01*
X40373600Y-64503400D01*
X40373600Y-65849600D01*
X39916400Y-66814800D01*
X39103600Y-67500600D01*
X38113000Y-67881600D01*
X37097000Y-67856200D01*
X36106400Y-67399000D01*
X35319000Y-66510000D01*
X34988800Y-65240000D01*
X35141200Y-64300200D01*
X35649200Y-63487400D01*
X36411200Y-62852400D01*
X37592300Y-62522200D01*
X38836900Y-62776200D01*
G36*
X36836900Y-75776200D02*
G01*
X37637000Y-76309600D01*
X38373600Y-77503400D01*
X38373600Y-78849600D01*
X37916400Y-79814800D01*
X37103600Y-80500600D01*
X36113000Y-80881600D01*
X35097000Y-80856200D01*
X34106400Y-80399000D01*
X33319000Y-79510000D01*
X32988800Y-78240000D01*
X33141200Y-77300200D01*
X33649200Y-76487400D01*
X34411200Y-75852400D01*
X35592300Y-75522200D01*
X36836900Y-75776200D01*
G37*
X36836900Y-75776200D02*
X37637000Y-76309600D01*
X38373600Y-77503400D01*
X38373600Y-78849600D01*
X37916400Y-79814800D01*
X37103600Y-80500600D01*
X36113000Y-80881600D01*
X35097000Y-80856200D01*
X34106400Y-80399000D01*
X33319000Y-79510000D01*
X32988800Y-78240000D01*
X33141200Y-77300200D01*
X33649200Y-76487400D01*
X34411200Y-75852400D01*
X35592300Y-75522200D01*
X36836900Y-75776200D01*
G36*
X52836900Y-35776200D02*
G01*
X53637000Y-36309600D01*
X54373600Y-37503400D01*
X54373600Y-38849600D01*
X53916400Y-39814800D01*
X53103600Y-40500600D01*
X52113000Y-40881600D01*
X51097000Y-40856200D01*
X50106400Y-40399000D01*
X49319000Y-39510000D01*
X48988800Y-38240000D01*
X49141200Y-37300200D01*
X49649200Y-36487400D01*
X50411200Y-35852400D01*
X51592300Y-35522200D01*
X52836900Y-35776200D01*
G37*
X52836900Y-35776200D02*
X53637000Y-36309600D01*
X54373600Y-37503400D01*
X54373600Y-38849600D01*
X53916400Y-39814800D01*
X53103600Y-40500600D01*
X52113000Y-40881600D01*
X51097000Y-40856200D01*
X50106400Y-40399000D01*
X49319000Y-39510000D01*
X48988800Y-38240000D01*
X49141200Y-37300200D01*
X49649200Y-36487400D01*
X50411200Y-35852400D01*
X51592300Y-35522200D01*
X52836900Y-35776200D01*
G36*
X58836900Y-48776200D02*
G01*
X59637000Y-49309600D01*
X60373600Y-50503400D01*
X60373600Y-51849600D01*
X59916400Y-52814800D01*
X59103600Y-53500600D01*
X58113000Y-53881600D01*
X57097000Y-53856200D01*
X56106400Y-53399000D01*
X55319000Y-52510000D01*
X54988800Y-51240000D01*
X55141200Y-50300200D01*
X55649200Y-49487400D01*
X56411200Y-48852400D01*
X57592300Y-48522200D01*
X58836900Y-48776200D01*
G37*
X58836900Y-48776200D02*
X59637000Y-49309600D01*
X60373600Y-50503400D01*
X60373600Y-51849600D01*
X59916400Y-52814800D01*
X59103600Y-53500600D01*
X58113000Y-53881600D01*
X57097000Y-53856200D01*
X56106400Y-53399000D01*
X55319000Y-52510000D01*
X54988800Y-51240000D01*
X55141200Y-50300200D01*
X55649200Y-49487400D01*
X56411200Y-48852400D01*
X57592300Y-48522200D01*
X58836900Y-48776200D01*
G36*
X50836900Y-62776200D02*
G01*
X51637000Y-63309600D01*
X52373600Y-64503400D01*
X52373600Y-65849600D01*
X51916400Y-66814800D01*
X51103600Y-67500600D01*
X50113000Y-67881600D01*
X49097000Y-67856200D01*
X48106400Y-67399000D01*
X47319000Y-66510000D01*
X46988800Y-65240000D01*
X47141200Y-64300200D01*
X47649200Y-63487400D01*
X48411200Y-62852400D01*
X49592300Y-62522200D01*
X50836900Y-62776200D01*
G37*
X50836900Y-62776200D02*
X51637000Y-63309600D01*
X52373600Y-64503400D01*
X52373600Y-65849600D01*
X51916400Y-66814800D01*
X51103600Y-67500600D01*
X50113000Y-67881600D01*
X49097000Y-67856200D01*
X48106400Y-67399000D01*
X47319000Y-66510000D01*
X46988800Y-65240000D01*
X47141200Y-64300200D01*
X47649200Y-63487400D01*
X48411200Y-62852400D01*
X49592300Y-62522200D01*
X50836900Y-62776200D01*
G36*
X48836900Y-75776200D02*
G01*
X49637000Y-76309600D01*
X50373600Y-77503400D01*
X50373600Y-78849600D01*
X49916400Y-79814800D01*
X49103600Y-80500600D01*
X48113000Y-80881600D01*
X47097000Y-80856200D01*
X46106400Y-80399000D01*
X45319000Y-79510000D01*
X44988800Y-78240000D01*
X45141200Y-77300200D01*
X45649200Y-76487400D01*
X46411200Y-75852400D01*
X47592300Y-75522200D01*
X48836900Y-75776200D01*
G37*
X48836900Y-75776200D02*
X49637000Y-76309600D01*
X50373600Y-77503400D01*
X50373600Y-78849600D01*
X49916400Y-79814800D01*
X49103600Y-80500600D01*
X48113000Y-80881600D01*
X47097000Y-80856200D01*
X46106400Y-80399000D01*
X45319000Y-79510000D01*
X44988800Y-78240000D01*
X45141200Y-77300200D01*
X45649200Y-76487400D01*
X46411200Y-75852400D01*
X47592300Y-75522200D01*
X48836900Y-75776200D01*
G36*
X64836900Y-35776200D02*
G01*
X65637000Y-36309600D01*
X66373600Y-37503400D01*
X66373600Y-38849600D01*
X65916400Y-39814800D01*
X65103600Y-40500600D01*
X64113000Y-40881600D01*
X63097000Y-40856200D01*
X62106400Y-40399000D01*
X61319000Y-39510000D01*
X60988800Y-38240000D01*
X61141200Y-37300200D01*
X61649200Y-36487400D01*
X62411200Y-35852400D01*
X63592300Y-35522200D01*
X64836900Y-35776200D01*
G37*
X64836900Y-35776200D02*
X65637000Y-36309600D01*
X66373600Y-37503400D01*
X66373600Y-38849600D01*
X65916400Y-39814800D01*
X65103600Y-40500600D01*
X64113000Y-40881600D01*
X63097000Y-40856200D01*
X62106400Y-40399000D01*
X61319000Y-39510000D01*
X60988800Y-38240000D01*
X61141200Y-37300200D01*
X61649200Y-36487400D01*
X62411200Y-35852400D01*
X63592300Y-35522200D01*
X64836900Y-35776200D01*
G36*
X70836900Y-48776200D02*
G01*
X71637000Y-49309600D01*
X72373600Y-50503400D01*
X72373600Y-51849600D01*
X71916400Y-52814800D01*
X71103600Y-53500600D01*
X70113000Y-53881600D01*
X69097000Y-53856200D01*
X68106400Y-53399000D01*
X67319000Y-52510000D01*
X66988800Y-51240000D01*
X67141200Y-50300200D01*
X67649200Y-49487400D01*
X68411200Y-48852400D01*
X69592300Y-48522200D01*
X70836900Y-48776200D01*
G37*
X70836900Y-48776200D02*
X71637000Y-49309600D01*
X72373600Y-50503400D01*
X72373600Y-51849600D01*
X71916400Y-52814800D01*
X71103600Y-53500600D01*
X70113000Y-53881600D01*
X69097000Y-53856200D01*
X68106400Y-53399000D01*
X67319000Y-52510000D01*
X66988800Y-51240000D01*
X67141200Y-50300200D01*
X67649200Y-49487400D01*
X68411200Y-48852400D01*
X69592300Y-48522200D01*
X70836900Y-48776200D01*
G36*
X62836900Y-62776200D02*
G01*
X63637000Y-63309600D01*
X64373600Y-64503400D01*
X64373600Y-65849600D01*
X63916400Y-66814800D01*
X63103600Y-67500600D01*
X62113000Y-67881600D01*
X61097000Y-67856200D01*
X60106400Y-67399000D01*
X59319000Y-66510000D01*
X58988800Y-65240000D01*
X59141200Y-64300200D01*
X59649200Y-63487400D01*
X60411200Y-62852400D01*
X61592300Y-62522200D01*
X62836900Y-62776200D01*
G37*
X62836900Y-62776200D02*
X63637000Y-63309600D01*
X64373600Y-64503400D01*
X64373600Y-65849600D01*
X63916400Y-66814800D01*
X63103600Y-67500600D01*
X62113000Y-67881600D01*
X61097000Y-67856200D01*
X60106400Y-67399000D01*
X59319000Y-66510000D01*
X58988800Y-65240000D01*
X59141200Y-64300200D01*
X59649200Y-63487400D01*
X60411200Y-62852400D01*
X61592300Y-62522200D01*
X62836900Y-62776200D01*
G36*
X60836900Y-75776200D02*
G01*
X61637000Y-76309600D01*
X62373600Y-77503400D01*
X62373600Y-78849600D01*
X61916400Y-79814800D01*
X61103600Y-80500600D01*
X60113000Y-80881600D01*
X59097000Y-80856200D01*
X58106400Y-80399000D01*
X57319000Y-79510000D01*
X56988800Y-78240000D01*
X57141200Y-77300200D01*
X57649200Y-76487400D01*
X58411200Y-75852400D01*
X59592300Y-75522200D01*
X60836900Y-75776200D01*
G37*
X60836900Y-75776200D02*
X61637000Y-76309600D01*
X62373600Y-77503400D01*
X62373600Y-78849600D01*
X61916400Y-79814800D01*
X61103600Y-80500600D01*
X60113000Y-80881600D01*
X59097000Y-80856200D01*
X58106400Y-80399000D01*
X57319000Y-79510000D01*
X56988800Y-78240000D01*
X57141200Y-77300200D01*
X57649200Y-76487400D01*
X58411200Y-75852400D01*
X59592300Y-75522200D01*
X60836900Y-75776200D01*
G36*
X72836900Y-21776200D02*
G01*
X73637000Y-22309600D01*
X74373600Y-23503400D01*
X74373600Y-24849600D01*
X73916400Y-25814800D01*
X73103600Y-26500600D01*
X72113000Y-26881600D01*
X71097000Y-26856200D01*
X70106400Y-26399000D01*
X69319000Y-25510000D01*
X68988800Y-24240000D01*
X69141200Y-23300200D01*
X69649200Y-22487400D01*
X70411200Y-21852400D01*
X71592300Y-21522200D01*
X72836900Y-21776200D01*
G37*
X72836900Y-21776200D02*
X73637000Y-22309600D01*
X74373600Y-23503400D01*
X74373600Y-24849600D01*
X73916400Y-25814800D01*
X73103600Y-26500600D01*
X72113000Y-26881600D01*
X71097000Y-26856200D01*
X70106400Y-26399000D01*
X69319000Y-25510000D01*
X68988800Y-24240000D01*
X69141200Y-23300200D01*
X69649200Y-22487400D01*
X70411200Y-21852400D01*
X71592300Y-21522200D01*
X72836900Y-21776200D01*
G36*
X77836900Y-35776200D02*
G01*
X78637000Y-36309600D01*
X79373600Y-37503400D01*
X79373600Y-38849600D01*
X78916400Y-39814800D01*
X78103600Y-40500600D01*
X77113000Y-40881600D01*
X76097000Y-40856200D01*
X75106400Y-40399000D01*
X74319000Y-39510000D01*
X73988800Y-38240000D01*
X74141200Y-37300200D01*
X74649200Y-36487400D01*
X75411200Y-35852400D01*
X76592300Y-35522200D01*
X77836900Y-35776200D01*
G37*
X77836900Y-35776200D02*
X78637000Y-36309600D01*
X79373600Y-37503400D01*
X79373600Y-38849600D01*
X78916400Y-39814800D01*
X78103600Y-40500600D01*
X77113000Y-40881600D01*
X76097000Y-40856200D01*
X75106400Y-40399000D01*
X74319000Y-39510000D01*
X73988800Y-38240000D01*
X74141200Y-37300200D01*
X74649200Y-36487400D01*
X75411200Y-35852400D01*
X76592300Y-35522200D01*
X77836900Y-35776200D01*
G36*
X82836900Y-48776200D02*
G01*
X83637000Y-49309600D01*
X84373600Y-50503400D01*
X84373600Y-51849600D01*
X83916400Y-52814800D01*
X83103600Y-53500600D01*
X82113000Y-53881600D01*
X81097000Y-53856200D01*
X80106400Y-53399000D01*
X79319000Y-52510000D01*
X78988800Y-51240000D01*
X79141200Y-50300200D01*
X79649200Y-49487400D01*
X80411200Y-48852400D01*
X81592300Y-48522200D01*
X82836900Y-48776200D01*
G37*
X82836900Y-48776200D02*
X83637000Y-49309600D01*
X84373600Y-50503400D01*
X84373600Y-51849600D01*
X83916400Y-52814800D01*
X83103600Y-53500600D01*
X82113000Y-53881600D01*
X81097000Y-53856200D01*
X80106400Y-53399000D01*
X79319000Y-52510000D01*
X78988800Y-51240000D01*
X79141200Y-50300200D01*
X79649200Y-49487400D01*
X80411200Y-48852400D01*
X81592300Y-48522200D01*
X82836900Y-48776200D01*
G36*
X74836900Y-62776200D02*
G01*
X75637000Y-63309600D01*
X76373600Y-64503400D01*
X76373600Y-65849600D01*
X75916400Y-66814800D01*
X75103600Y-67500600D01*
X74113000Y-67881600D01*
X73097000Y-67856200D01*
X72106400Y-67399000D01*
X71319000Y-66510000D01*
X70988800Y-65240000D01*
X71141200Y-64300200D01*
X71649200Y-63487400D01*
X72411200Y-62852400D01*
X73592300Y-62522200D01*
X74836900Y-62776200D01*
G37*
X74836900Y-62776200D02*
X75637000Y-63309600D01*
X76373600Y-64503400D01*
X76373600Y-65849600D01*
X75916400Y-66814800D01*
X75103600Y-67500600D01*
X74113000Y-67881600D01*
X73097000Y-67856200D01*
X72106400Y-67399000D01*
X71319000Y-66510000D01*
X70988800Y-65240000D01*
X71141200Y-64300200D01*
X71649200Y-63487400D01*
X72411200Y-62852400D01*
X73592300Y-62522200D01*
X74836900Y-62776200D01*
G36*
X80836900Y-75776200D02*
G01*
X81637000Y-76309600D01*
X82373600Y-77503400D01*
X82373600Y-78849600D01*
X81916400Y-79814800D01*
X81103600Y-80500600D01*
X80113000Y-80881600D01*
X79097000Y-80856200D01*
X78106400Y-80399000D01*
X77319000Y-79510000D01*
X76988800Y-78240000D01*
X77141200Y-77300200D01*
X77649200Y-76487400D01*
X78411200Y-75852400D01*
X79592300Y-75522200D01*
X80836900Y-75776200D01*
G37*
X80836900Y-75776200D02*
X81637000Y-76309600D01*
X82373600Y-77503400D01*
X82373600Y-78849600D01*
X81916400Y-79814800D01*
X81103600Y-80500600D01*
X80113000Y-80881600D01*
X79097000Y-80856200D01*
X78106400Y-80399000D01*
X77319000Y-79510000D01*
X76988800Y-78240000D01*
X77141200Y-77300200D01*
X77649200Y-76487400D01*
X78411200Y-75852400D01*
X79592300Y-75522200D01*
X80836900Y-75776200D01*
G36*
X84836900Y-21776200D02*
G01*
X85637000Y-22309600D01*
X86373600Y-23503400D01*
X86373600Y-24849600D01*
X85916400Y-25814800D01*
X85103600Y-26500600D01*
X84113000Y-26881600D01*
X83097000Y-26856200D01*
X82106400Y-26399000D01*
X81319000Y-25510000D01*
X80988800Y-24240000D01*
X81141200Y-23300200D01*
X81649200Y-22487400D01*
X82411200Y-21852400D01*
X83592300Y-21522200D01*
X84836900Y-21776200D01*
G37*
X84836900Y-21776200D02*
X85637000Y-22309600D01*
X86373600Y-23503400D01*
X86373600Y-24849600D01*
X85916400Y-25814800D01*
X85103600Y-26500600D01*
X84113000Y-26881600D01*
X83097000Y-26856200D01*
X82106400Y-26399000D01*
X81319000Y-25510000D01*
X80988800Y-24240000D01*
X81141200Y-23300200D01*
X81649200Y-22487400D01*
X82411200Y-21852400D01*
X83592300Y-21522200D01*
X84836900Y-21776200D01*
G36*
X88836900Y-35776200D02*
G01*
X89637000Y-36309600D01*
X90373600Y-37503400D01*
X90373600Y-38849600D01*
X89916400Y-39814800D01*
X89103600Y-40500600D01*
X88113000Y-40881600D01*
X87097000Y-40856200D01*
X86106400Y-40399000D01*
X85319000Y-39510000D01*
X84988800Y-38240000D01*
X85141200Y-37300200D01*
X85649200Y-36487400D01*
X86411200Y-35852400D01*
X87592300Y-35522200D01*
X88836900Y-35776200D01*
G37*
X88836900Y-35776200D02*
X89637000Y-36309600D01*
X90373600Y-37503400D01*
X90373600Y-38849600D01*
X89916400Y-39814800D01*
X89103600Y-40500600D01*
X88113000Y-40881600D01*
X87097000Y-40856200D01*
X86106400Y-40399000D01*
X85319000Y-39510000D01*
X84988800Y-38240000D01*
X85141200Y-37300200D01*
X85649200Y-36487400D01*
X86411200Y-35852400D01*
X87592300Y-35522200D01*
X88836900Y-35776200D01*
G36*
X94836900Y-48776200D02*
G01*
X95637000Y-49309600D01*
X96373600Y-50503400D01*
X96373600Y-51849600D01*
X95916400Y-52814800D01*
X95103600Y-53500600D01*
X94113000Y-53881600D01*
X93097000Y-53856200D01*
X92106400Y-53399000D01*
X91319000Y-52510000D01*
X90988800Y-51240000D01*
X91141200Y-50300200D01*
X91649200Y-49487400D01*
X92411200Y-48852400D01*
X93592300Y-48522200D01*
X94836900Y-48776200D01*
G37*
X94836900Y-48776200D02*
X95637000Y-49309600D01*
X96373600Y-50503400D01*
X96373600Y-51849600D01*
X95916400Y-52814800D01*
X95103600Y-53500600D01*
X94113000Y-53881600D01*
X93097000Y-53856200D01*
X92106400Y-53399000D01*
X91319000Y-52510000D01*
X90988800Y-51240000D01*
X91141200Y-50300200D01*
X91649200Y-49487400D01*
X92411200Y-48852400D01*
X93592300Y-48522200D01*
X94836900Y-48776200D01*
G36*
X86836900Y-62776200D02*
G01*
X87637000Y-63309600D01*
X88373600Y-64503400D01*
X88373600Y-65849600D01*
X87916400Y-66814800D01*
X87103600Y-67500600D01*
X86113000Y-67881600D01*
X85097000Y-67856200D01*
X84106400Y-67399000D01*
X83319000Y-66510000D01*
X82988800Y-65240000D01*
X83141200Y-64300200D01*
X83649200Y-63487400D01*
X84411200Y-62852400D01*
X85592300Y-62522200D01*
X86836900Y-62776200D01*
G37*
X86836900Y-62776200D02*
X87637000Y-63309600D01*
X88373600Y-64503400D01*
X88373600Y-65849600D01*
X87916400Y-66814800D01*
X87103600Y-67500600D01*
X86113000Y-67881600D01*
X85097000Y-67856200D01*
X84106400Y-67399000D01*
X83319000Y-66510000D01*
X82988800Y-65240000D01*
X83141200Y-64300200D01*
X83649200Y-63487400D01*
X84411200Y-62852400D01*
X85592300Y-62522200D01*
X86836900Y-62776200D01*
G36*
X148836900Y-75776200D02*
G01*
X149637000Y-76309600D01*
X150373600Y-77503400D01*
X150373600Y-78849600D01*
X149916400Y-79814800D01*
X149103600Y-80500600D01*
X148113000Y-80881600D01*
X147097000Y-80856200D01*
X146106400Y-80399000D01*
X145319000Y-79510000D01*
X144988800Y-78240000D01*
X145141200Y-77300200D01*
X145649200Y-76487400D01*
X146411200Y-75852400D01*
X147592300Y-75522200D01*
X148836900Y-75776200D01*
G37*
X148836900Y-75776200D02*
X149637000Y-76309600D01*
X150373600Y-77503400D01*
X150373600Y-78849600D01*
X149916400Y-79814800D01*
X149103600Y-80500600D01*
X148113000Y-80881600D01*
X147097000Y-80856200D01*
X146106400Y-80399000D01*
X145319000Y-79510000D01*
X144988800Y-78240000D01*
X145141200Y-77300200D01*
X145649200Y-76487400D01*
X146411200Y-75852400D01*
X147592300Y-75522200D01*
X148836900Y-75776200D01*
G36*
X100836900Y-35776200D02*
G01*
X101637000Y-36309600D01*
X102373600Y-37503400D01*
X102373600Y-38849600D01*
X101916400Y-39814800D01*
X101103600Y-40500600D01*
X100113000Y-40881600D01*
X99097000Y-40856200D01*
X98106400Y-40399000D01*
X97319000Y-39510000D01*
X96988800Y-38240000D01*
X97141200Y-37300200D01*
X97649200Y-36487400D01*
X98411200Y-35852400D01*
X99592300Y-35522200D01*
X100836900Y-35776200D01*
G37*
X100836900Y-35776200D02*
X101637000Y-36309600D01*
X102373600Y-37503400D01*
X102373600Y-38849600D01*
X101916400Y-39814800D01*
X101103600Y-40500600D01*
X100113000Y-40881600D01*
X99097000Y-40856200D01*
X98106400Y-40399000D01*
X97319000Y-39510000D01*
X96988800Y-38240000D01*
X97141200Y-37300200D01*
X97649200Y-36487400D01*
X98411200Y-35852400D01*
X99592300Y-35522200D01*
X100836900Y-35776200D01*
G36*
X106836900Y-48776200D02*
G01*
X107637000Y-49309600D01*
X108373600Y-50503400D01*
X108373600Y-51849600D01*
X107916400Y-52814800D01*
X107103600Y-53500600D01*
X106113000Y-53881600D01*
X105097000Y-53856200D01*
X104106400Y-53399000D01*
X103319000Y-52510000D01*
X102988800Y-51240000D01*
X103141200Y-50300200D01*
X103649200Y-49487400D01*
X104411200Y-48852400D01*
X105592300Y-48522200D01*
X106836900Y-48776200D01*
G37*
X106836900Y-48776200D02*
X107637000Y-49309600D01*
X108373600Y-50503400D01*
X108373600Y-51849600D01*
X107916400Y-52814800D01*
X107103600Y-53500600D01*
X106113000Y-53881600D01*
X105097000Y-53856200D01*
X104106400Y-53399000D01*
X103319000Y-52510000D01*
X102988800Y-51240000D01*
X103141200Y-50300200D01*
X103649200Y-49487400D01*
X104411200Y-48852400D01*
X105592300Y-48522200D01*
X106836900Y-48776200D01*
G36*
X98836900Y-62776200D02*
G01*
X99637000Y-63309600D01*
X100373600Y-64503400D01*
X100373600Y-65849600D01*
X99916400Y-66814800D01*
X99103600Y-67500600D01*
X98113000Y-67881600D01*
X97097000Y-67856200D01*
X96106400Y-67399000D01*
X95319000Y-66510000D01*
X94988800Y-65240000D01*
X95141200Y-64300200D01*
X95649200Y-63487400D01*
X96411200Y-62852400D01*
X97592300Y-62522200D01*
X98836900Y-62776200D01*
G37*
X98836900Y-62776200D02*
X99637000Y-63309600D01*
X100373600Y-64503400D01*
X100373600Y-65849600D01*
X99916400Y-66814800D01*
X99103600Y-67500600D01*
X98113000Y-67881600D01*
X97097000Y-67856200D01*
X96106400Y-67399000D01*
X95319000Y-66510000D01*
X94988800Y-65240000D01*
X95141200Y-64300200D01*
X95649200Y-63487400D01*
X96411200Y-62852400D01*
X97592300Y-62522200D01*
X98836900Y-62776200D01*
G36*
X160836900Y-75776200D02*
G01*
X161637000Y-76309600D01*
X162373600Y-77503400D01*
X162373600Y-78849600D01*
X161916400Y-79814800D01*
X161103600Y-80500600D01*
X160113000Y-80881600D01*
X159097000Y-80856200D01*
X158106400Y-80399000D01*
X157319000Y-79510000D01*
X156988800Y-78240000D01*
X157141200Y-77300200D01*
X157649200Y-76487400D01*
X158411200Y-75852400D01*
X159592300Y-75522200D01*
X160836900Y-75776200D01*
G37*
X160836900Y-75776200D02*
X161637000Y-76309600D01*
X162373600Y-77503400D01*
X162373600Y-78849600D01*
X161916400Y-79814800D01*
X161103600Y-80500600D01*
X160113000Y-80881600D01*
X159097000Y-80856200D01*
X158106400Y-80399000D01*
X157319000Y-79510000D01*
X156988800Y-78240000D01*
X157141200Y-77300200D01*
X157649200Y-76487400D01*
X158411200Y-75852400D01*
X159592300Y-75522200D01*
X160836900Y-75776200D01*
G36*
X108836900Y-21776200D02*
G01*
X109637000Y-22309600D01*
X110373600Y-23503400D01*
X110373600Y-24849600D01*
X109916400Y-25814800D01*
X109103600Y-26500600D01*
X108113000Y-26881600D01*
X107097000Y-26856200D01*
X106106400Y-26399000D01*
X105319000Y-25510000D01*
X104988800Y-24240000D01*
X105141200Y-23300200D01*
X105649200Y-22487400D01*
X106411200Y-21852400D01*
X107592300Y-21522200D01*
X108836900Y-21776200D01*
G37*
X108836900Y-21776200D02*
X109637000Y-22309600D01*
X110373600Y-23503400D01*
X110373600Y-24849600D01*
X109916400Y-25814800D01*
X109103600Y-26500600D01*
X108113000Y-26881600D01*
X107097000Y-26856200D01*
X106106400Y-26399000D01*
X105319000Y-25510000D01*
X104988800Y-24240000D01*
X105141200Y-23300200D01*
X105649200Y-22487400D01*
X106411200Y-21852400D01*
X107592300Y-21522200D01*
X108836900Y-21776200D01*
G36*
X113836900Y-35776200D02*
G01*
X114637000Y-36309600D01*
X115373600Y-37503400D01*
X115373600Y-38849600D01*
X114916400Y-39814800D01*
X114103600Y-40500600D01*
X113113000Y-40881600D01*
X112097000Y-40856200D01*
X111106400Y-40399000D01*
X110319000Y-39510000D01*
X109988800Y-38240000D01*
X110141200Y-37300200D01*
X110649200Y-36487400D01*
X111411200Y-35852400D01*
X112592300Y-35522200D01*
X113836900Y-35776200D01*
G37*
X113836900Y-35776200D02*
X114637000Y-36309600D01*
X115373600Y-37503400D01*
X115373600Y-38849600D01*
X114916400Y-39814800D01*
X114103600Y-40500600D01*
X113113000Y-40881600D01*
X112097000Y-40856200D01*
X111106400Y-40399000D01*
X110319000Y-39510000D01*
X109988800Y-38240000D01*
X110141200Y-37300200D01*
X110649200Y-36487400D01*
X111411200Y-35852400D01*
X112592300Y-35522200D01*
X113836900Y-35776200D01*
G36*
X118836900Y-48776200D02*
G01*
X119637000Y-49309600D01*
X120373600Y-50503400D01*
X120373600Y-51849600D01*
X119916400Y-52814800D01*
X119103600Y-53500600D01*
X118113000Y-53881600D01*
X117097000Y-53856200D01*
X116106400Y-53399000D01*
X115319000Y-52510000D01*
X114988800Y-51240000D01*
X115141200Y-50300200D01*
X115649200Y-49487400D01*
X116411200Y-48852400D01*
X117592300Y-48522200D01*
X118836900Y-48776200D01*
G37*
X118836900Y-48776200D02*
X119637000Y-49309600D01*
X120373600Y-50503400D01*
X120373600Y-51849600D01*
X119916400Y-52814800D01*
X119103600Y-53500600D01*
X118113000Y-53881600D01*
X117097000Y-53856200D01*
X116106400Y-53399000D01*
X115319000Y-52510000D01*
X114988800Y-51240000D01*
X115141200Y-50300200D01*
X115649200Y-49487400D01*
X116411200Y-48852400D01*
X117592300Y-48522200D01*
X118836900Y-48776200D01*
G36*
X110836900Y-62776200D02*
G01*
X111637000Y-63309600D01*
X112373600Y-64503400D01*
X112373600Y-65849600D01*
X111916400Y-66814800D01*
X111103600Y-67500600D01*
X110113000Y-67881600D01*
X109097000Y-67856200D01*
X108106400Y-67399000D01*
X107319000Y-66510000D01*
X106988800Y-65240000D01*
X107141200Y-64300200D01*
X107649200Y-63487400D01*
X108411200Y-62852400D01*
X109592300Y-62522200D01*
X110836900Y-62776200D01*
G37*
X110836900Y-62776200D02*
X111637000Y-63309600D01*
X112373600Y-64503400D01*
X112373600Y-65849600D01*
X111916400Y-66814800D01*
X111103600Y-67500600D01*
X110113000Y-67881600D01*
X109097000Y-67856200D01*
X108106400Y-67399000D01*
X107319000Y-66510000D01*
X106988800Y-65240000D01*
X107141200Y-64300200D01*
X107649200Y-63487400D01*
X108411200Y-62852400D01*
X109592300Y-62522200D01*
X110836900Y-62776200D01*
G36*
X172836900Y-75776200D02*
G01*
X173637000Y-76309600D01*
X174373600Y-77503400D01*
X174373600Y-78849600D01*
X173916400Y-79814800D01*
X173103600Y-80500600D01*
X172113000Y-80881600D01*
X171097000Y-80856200D01*
X170106400Y-80399000D01*
X169319000Y-79510000D01*
X168988800Y-78240000D01*
X169141200Y-77300200D01*
X169649200Y-76487400D01*
X170411200Y-75852400D01*
X171592300Y-75522200D01*
X172836900Y-75776200D01*
G37*
X172836900Y-75776200D02*
X173637000Y-76309600D01*
X174373600Y-77503400D01*
X174373600Y-78849600D01*
X173916400Y-79814800D01*
X173103600Y-80500600D01*
X172113000Y-80881600D01*
X171097000Y-80856200D01*
X170106400Y-80399000D01*
X169319000Y-79510000D01*
X168988800Y-78240000D01*
X169141200Y-77300200D01*
X169649200Y-76487400D01*
X170411200Y-75852400D01*
X171592300Y-75522200D01*
X172836900Y-75776200D01*
G36*
X120836900Y-21776200D02*
G01*
X121637000Y-22309600D01*
X122373600Y-23503400D01*
X122373600Y-24849600D01*
X121916400Y-25814800D01*
X121103600Y-26500600D01*
X120113000Y-26881600D01*
X119097000Y-26856200D01*
X118106400Y-26399000D01*
X117319000Y-25510000D01*
X116988800Y-24240000D01*
X117141200Y-23300200D01*
X117649200Y-22487400D01*
X118411200Y-21852400D01*
X119592300Y-21522200D01*
X120836900Y-21776200D01*
G37*
X120836900Y-21776200D02*
X121637000Y-22309600D01*
X122373600Y-23503400D01*
X122373600Y-24849600D01*
X121916400Y-25814800D01*
X121103600Y-26500600D01*
X120113000Y-26881600D01*
X119097000Y-26856200D01*
X118106400Y-26399000D01*
X117319000Y-25510000D01*
X116988800Y-24240000D01*
X117141200Y-23300200D01*
X117649200Y-22487400D01*
X118411200Y-21852400D01*
X119592300Y-21522200D01*
X120836900Y-21776200D01*
G36*
X124836900Y-35776200D02*
G01*
X125637000Y-36309600D01*
X126373600Y-37503400D01*
X126373600Y-38849600D01*
X125916400Y-39814800D01*
X125103600Y-40500600D01*
X124113000Y-40881600D01*
X123097000Y-40856200D01*
X122106400Y-40399000D01*
X121319000Y-39510000D01*
X120988800Y-38240000D01*
X121141200Y-37300200D01*
X121649200Y-36487400D01*
X122411200Y-35852400D01*
X123592300Y-35522200D01*
X124836900Y-35776200D01*
G37*
X124836900Y-35776200D02*
X125637000Y-36309600D01*
X126373600Y-37503400D01*
X126373600Y-38849600D01*
X125916400Y-39814800D01*
X125103600Y-40500600D01*
X124113000Y-40881600D01*
X123097000Y-40856200D01*
X122106400Y-40399000D01*
X121319000Y-39510000D01*
X120988800Y-38240000D01*
X121141200Y-37300200D01*
X121649200Y-36487400D01*
X122411200Y-35852400D01*
X123592300Y-35522200D01*
X124836900Y-35776200D01*
G36*
X130836900Y-48776200D02*
G01*
X131637000Y-49309600D01*
X132373600Y-50503400D01*
X132373600Y-51849600D01*
X131916400Y-52814800D01*
X131103600Y-53500600D01*
X130113000Y-53881600D01*
X129097000Y-53856200D01*
X128106400Y-53399000D01*
X127319000Y-52510000D01*
X126988800Y-51240000D01*
X127141200Y-50300200D01*
X127649200Y-49487400D01*
X128411200Y-48852400D01*
X129592300Y-48522200D01*
X130836900Y-48776200D01*
G37*
X130836900Y-48776200D02*
X131637000Y-49309600D01*
X132373600Y-50503400D01*
X132373600Y-51849600D01*
X131916400Y-52814800D01*
X131103600Y-53500600D01*
X130113000Y-53881600D01*
X129097000Y-53856200D01*
X128106400Y-53399000D01*
X127319000Y-52510000D01*
X126988800Y-51240000D01*
X127141200Y-50300200D01*
X127649200Y-49487400D01*
X128411200Y-48852400D01*
X129592300Y-48522200D01*
X130836900Y-48776200D01*
G36*
X122836900Y-62776200D02*
G01*
X123637000Y-63309600D01*
X124373600Y-64503400D01*
X124373600Y-65849600D01*
X123916400Y-66814800D01*
X123103600Y-67500600D01*
X122113000Y-67881600D01*
X121097000Y-67856200D01*
X120106400Y-67399000D01*
X119319000Y-66510000D01*
X118988800Y-65240000D01*
X119141200Y-64300200D01*
X119649200Y-63487400D01*
X120411200Y-62852400D01*
X121592300Y-62522200D01*
X122836900Y-62776200D01*
G37*
X122836900Y-62776200D02*
X123637000Y-63309600D01*
X124373600Y-64503400D01*
X124373600Y-65849600D01*
X123916400Y-66814800D01*
X123103600Y-67500600D01*
X122113000Y-67881600D01*
X121097000Y-67856200D01*
X120106400Y-67399000D01*
X119319000Y-66510000D01*
X118988800Y-65240000D01*
X119141200Y-64300200D01*
X119649200Y-63487400D01*
X120411200Y-62852400D01*
X121592300Y-62522200D01*
X122836900Y-62776200D01*
G36*
X184836900Y-75776200D02*
G01*
X185637000Y-76309600D01*
X186373600Y-77503400D01*
X186373600Y-78849600D01*
X185916400Y-79814800D01*
X185103600Y-80500600D01*
X184113000Y-80881600D01*
X183097000Y-80856200D01*
X182106400Y-80399000D01*
X181319000Y-79510000D01*
X180988800Y-78240000D01*
X181141200Y-77300200D01*
X181649200Y-76487400D01*
X182411200Y-75852400D01*
X183592300Y-75522200D01*
X184836900Y-75776200D01*
G37*
X184836900Y-75776200D02*
X185637000Y-76309600D01*
X186373600Y-77503400D01*
X186373600Y-78849600D01*
X185916400Y-79814800D01*
X185103600Y-80500600D01*
X184113000Y-80881600D01*
X183097000Y-80856200D01*
X182106400Y-80399000D01*
X181319000Y-79510000D01*
X180988800Y-78240000D01*
X181141200Y-77300200D01*
X181649200Y-76487400D01*
X182411200Y-75852400D01*
X183592300Y-75522200D01*
X184836900Y-75776200D01*
G36*
X132836900Y-21776200D02*
G01*
X133637000Y-22309600D01*
X134373600Y-23503400D01*
X134373600Y-24849600D01*
X133916400Y-25814800D01*
X133103600Y-26500600D01*
X132113000Y-26881600D01*
X131097000Y-26856200D01*
X130106400Y-26399000D01*
X129319000Y-25510000D01*
X128988800Y-24240000D01*
X129141200Y-23300200D01*
X129649200Y-22487400D01*
X130411200Y-21852400D01*
X131592300Y-21522200D01*
X132836900Y-21776200D01*
G37*
X132836900Y-21776200D02*
X133637000Y-22309600D01*
X134373600Y-23503400D01*
X134373600Y-24849600D01*
X133916400Y-25814800D01*
X133103600Y-26500600D01*
X132113000Y-26881600D01*
X131097000Y-26856200D01*
X130106400Y-26399000D01*
X129319000Y-25510000D01*
X128988800Y-24240000D01*
X129141200Y-23300200D01*
X129649200Y-22487400D01*
X130411200Y-21852400D01*
X131592300Y-21522200D01*
X132836900Y-21776200D01*
G36*
X136836900Y-35776200D02*
G01*
X137637000Y-36309600D01*
X138373600Y-37503400D01*
X138373600Y-38849600D01*
X137916400Y-39814800D01*
X137103600Y-40500600D01*
X136113000Y-40881600D01*
X135097000Y-40856200D01*
X134106400Y-40399000D01*
X133319000Y-39510000D01*
X132988800Y-38240000D01*
X133141200Y-37300200D01*
X133649200Y-36487400D01*
X134411200Y-35852400D01*
X135592300Y-35522200D01*
X136836900Y-35776200D01*
G37*
X136836900Y-35776200D02*
X137637000Y-36309600D01*
X138373600Y-37503400D01*
X138373600Y-38849600D01*
X137916400Y-39814800D01*
X137103600Y-40500600D01*
X136113000Y-40881600D01*
X135097000Y-40856200D01*
X134106400Y-40399000D01*
X133319000Y-39510000D01*
X132988800Y-38240000D01*
X133141200Y-37300200D01*
X133649200Y-36487400D01*
X134411200Y-35852400D01*
X135592300Y-35522200D01*
X136836900Y-35776200D01*
G36*
X142836900Y-48776200D02*
G01*
X143637000Y-49309600D01*
X144373600Y-50503400D01*
X144373600Y-51849600D01*
X143916400Y-52814800D01*
X143103600Y-53500600D01*
X142113000Y-53881600D01*
X141097000Y-53856200D01*
X140106400Y-53399000D01*
X139319000Y-52510000D01*
X138988800Y-51240000D01*
X139141200Y-50300200D01*
X139649200Y-49487400D01*
X140411200Y-48852400D01*
X141592300Y-48522200D01*
X142836900Y-48776200D01*
G37*
X142836900Y-48776200D02*
X143637000Y-49309600D01*
X144373600Y-50503400D01*
X144373600Y-51849600D01*
X143916400Y-52814800D01*
X143103600Y-53500600D01*
X142113000Y-53881600D01*
X141097000Y-53856200D01*
X140106400Y-53399000D01*
X139319000Y-52510000D01*
X138988800Y-51240000D01*
X139141200Y-50300200D01*
X139649200Y-49487400D01*
X140411200Y-48852400D01*
X141592300Y-48522200D01*
X142836900Y-48776200D01*
G36*
X134836900Y-62776200D02*
G01*
X135637000Y-63309600D01*
X136373600Y-64503400D01*
X136373600Y-65849600D01*
X135916400Y-66814800D01*
X135103600Y-67500600D01*
X134113000Y-67881600D01*
X133097000Y-67856200D01*
X132106400Y-67399000D01*
X131319000Y-66510000D01*
X130988800Y-65240000D01*
X131141200Y-64300200D01*
X131649200Y-63487400D01*
X132411200Y-62852400D01*
X133592300Y-62522200D01*
X134836900Y-62776200D01*
G37*
X134836900Y-62776200D02*
X135637000Y-63309600D01*
X136373600Y-64503400D01*
X136373600Y-65849600D01*
X135916400Y-66814800D01*
X135103600Y-67500600D01*
X134113000Y-67881600D01*
X133097000Y-67856200D01*
X132106400Y-67399000D01*
X131319000Y-66510000D01*
X130988800Y-65240000D01*
X131141200Y-64300200D01*
X131649200Y-63487400D01*
X132411200Y-62852400D01*
X133592300Y-62522200D01*
X134836900Y-62776200D01*
G36*
X154836900Y-48776200D02*
G01*
X155637000Y-49309600D01*
X156373600Y-50503400D01*
X156373600Y-51849600D01*
X155916400Y-52814800D01*
X155103600Y-53500600D01*
X154113000Y-53881600D01*
X153097000Y-53856200D01*
X152106400Y-53399000D01*
X151319000Y-52510000D01*
X150988800Y-51240000D01*
X151141200Y-50300200D01*
X151649200Y-49487400D01*
X152411200Y-48852400D01*
X153592300Y-48522200D01*
X154836900Y-48776200D01*
G37*
X154836900Y-48776200D02*
X155637000Y-49309600D01*
X156373600Y-50503400D01*
X156373600Y-51849600D01*
X155916400Y-52814800D01*
X155103600Y-53500600D01*
X154113000Y-53881600D01*
X153097000Y-53856200D01*
X152106400Y-53399000D01*
X151319000Y-52510000D01*
X150988800Y-51240000D01*
X151141200Y-50300200D01*
X151649200Y-49487400D01*
X152411200Y-48852400D01*
X153592300Y-48522200D01*
X154836900Y-48776200D01*
G36*
X146836900Y-62776200D02*
G01*
X147637000Y-63309600D01*
X148373600Y-64503400D01*
X148373600Y-65849600D01*
X147916400Y-66814800D01*
X147103600Y-67500600D01*
X146113000Y-67881600D01*
X145097000Y-67856200D01*
X144106400Y-67399000D01*
X143319000Y-66510000D01*
X142988800Y-65240000D01*
X143141200Y-64300200D01*
X143649200Y-63487400D01*
X144411200Y-62852400D01*
X145592300Y-62522200D01*
X146836900Y-62776200D01*
G37*
X146836900Y-62776200D02*
X147637000Y-63309600D01*
X148373600Y-64503400D01*
X148373600Y-65849600D01*
X147916400Y-66814800D01*
X147103600Y-67500600D01*
X146113000Y-67881600D01*
X145097000Y-67856200D01*
X144106400Y-67399000D01*
X143319000Y-66510000D01*
X142988800Y-65240000D01*
X143141200Y-64300200D01*
X143649200Y-63487400D01*
X144411200Y-62852400D01*
X145592300Y-62522200D01*
X146836900Y-62776200D01*
G36*
X156836900Y-21776200D02*
G01*
X157637000Y-22309600D01*
X158373600Y-23503400D01*
X158373600Y-24849600D01*
X157916400Y-25814800D01*
X157103600Y-26500600D01*
X156113000Y-26881600D01*
X155097000Y-26856200D01*
X154106400Y-26399000D01*
X153319000Y-25510000D01*
X152988800Y-24240000D01*
X153141200Y-23300200D01*
X153649200Y-22487400D01*
X154411200Y-21852400D01*
X155592300Y-21522200D01*
X156836900Y-21776200D01*
G37*
X156836900Y-21776200D02*
X157637000Y-22309600D01*
X158373600Y-23503400D01*
X158373600Y-24849600D01*
X157916400Y-25814800D01*
X157103600Y-26500600D01*
X156113000Y-26881600D01*
X155097000Y-26856200D01*
X154106400Y-26399000D01*
X153319000Y-25510000D01*
X152988800Y-24240000D01*
X153141200Y-23300200D01*
X153649200Y-22487400D01*
X154411200Y-21852400D01*
X155592300Y-21522200D01*
X156836900Y-21776200D01*
G36*
X160836900Y-35776200D02*
G01*
X161637000Y-36309600D01*
X162373600Y-37503400D01*
X162373600Y-38849600D01*
X161916400Y-39814800D01*
X161103600Y-40500600D01*
X160113000Y-40881600D01*
X159097000Y-40856200D01*
X158106400Y-40399000D01*
X157319000Y-39510000D01*
X156988800Y-38240000D01*
X157141200Y-37300200D01*
X157649200Y-36487400D01*
X158411200Y-35852400D01*
X159592300Y-35522200D01*
X160836900Y-35776200D01*
G37*
X160836900Y-35776200D02*
X161637000Y-36309600D01*
X162373600Y-37503400D01*
X162373600Y-38849600D01*
X161916400Y-39814800D01*
X161103600Y-40500600D01*
X160113000Y-40881600D01*
X159097000Y-40856200D01*
X158106400Y-40399000D01*
X157319000Y-39510000D01*
X156988800Y-38240000D01*
X157141200Y-37300200D01*
X157649200Y-36487400D01*
X158411200Y-35852400D01*
X159592300Y-35522200D01*
X160836900Y-35776200D01*
G36*
X166836900Y-48776200D02*
G01*
X167637000Y-49309600D01*
X168373600Y-50503400D01*
X168373600Y-51849600D01*
X167916400Y-52814800D01*
X167103600Y-53500600D01*
X166113000Y-53881600D01*
X165097000Y-53856200D01*
X164106400Y-53399000D01*
X163319000Y-52510000D01*
X162988800Y-51240000D01*
X163141200Y-50300200D01*
X163649200Y-49487400D01*
X164411200Y-48852400D01*
X165592300Y-48522200D01*
X166836900Y-48776200D01*
G37*
X166836900Y-48776200D02*
X167637000Y-49309600D01*
X168373600Y-50503400D01*
X168373600Y-51849600D01*
X167916400Y-52814800D01*
X167103600Y-53500600D01*
X166113000Y-53881600D01*
X165097000Y-53856200D01*
X164106400Y-53399000D01*
X163319000Y-52510000D01*
X162988800Y-51240000D01*
X163141200Y-50300200D01*
X163649200Y-49487400D01*
X164411200Y-48852400D01*
X165592300Y-48522200D01*
X166836900Y-48776200D01*
G36*
X158836900Y-62776200D02*
G01*
X159637000Y-63309600D01*
X160373600Y-64503400D01*
X160373600Y-65849600D01*
X159916400Y-66814800D01*
X159103600Y-67500600D01*
X158113000Y-67881600D01*
X157097000Y-67856200D01*
X156106400Y-67399000D01*
X155319000Y-66510000D01*
X154988800Y-65240000D01*
X155141200Y-64300200D01*
X155649200Y-63487400D01*
X156411200Y-62852400D01*
X157592300Y-62522200D01*
X158836900Y-62776200D01*
G37*
X158836900Y-62776200D02*
X159637000Y-63309600D01*
X160373600Y-64503400D01*
X160373600Y-65849600D01*
X159916400Y-66814800D01*
X159103600Y-67500600D01*
X158113000Y-67881600D01*
X157097000Y-67856200D01*
X156106400Y-67399000D01*
X155319000Y-66510000D01*
X154988800Y-65240000D01*
X155141200Y-64300200D01*
X155649200Y-63487400D01*
X156411200Y-62852400D01*
X157592300Y-62522200D01*
X158836900Y-62776200D01*
G36*
X168836900Y-21776200D02*
G01*
X169637000Y-22309600D01*
X170373600Y-23503400D01*
X170373600Y-24849600D01*
X169916400Y-25814800D01*
X169103600Y-26500600D01*
X168113000Y-26881600D01*
X167097000Y-26856200D01*
X166106400Y-26399000D01*
X165319000Y-25510000D01*
X164988800Y-24240000D01*
X165141200Y-23300200D01*
X165649200Y-22487400D01*
X166411200Y-21852400D01*
X167592300Y-21522200D01*
X168836900Y-21776200D01*
G37*
X168836900Y-21776200D02*
X169637000Y-22309600D01*
X170373600Y-23503400D01*
X170373600Y-24849600D01*
X169916400Y-25814800D01*
X169103600Y-26500600D01*
X168113000Y-26881600D01*
X167097000Y-26856200D01*
X166106400Y-26399000D01*
X165319000Y-25510000D01*
X164988800Y-24240000D01*
X165141200Y-23300200D01*
X165649200Y-22487400D01*
X166411200Y-21852400D01*
X167592300Y-21522200D01*
X168836900Y-21776200D01*
G36*
X172836900Y-35776200D02*
G01*
X173637000Y-36309600D01*
X174373600Y-37503400D01*
X174373600Y-38849600D01*
X173916400Y-39814800D01*
X173103600Y-40500600D01*
X172113000Y-40881600D01*
X171097000Y-40856200D01*
X170106400Y-40399000D01*
X169319000Y-39510000D01*
X168988800Y-38240000D01*
X169141200Y-37300200D01*
X169649200Y-36487400D01*
X170411200Y-35852400D01*
X171592300Y-35522200D01*
X172836900Y-35776200D01*
G37*
X172836900Y-35776200D02*
X173637000Y-36309600D01*
X174373600Y-37503400D01*
X174373600Y-38849600D01*
X173916400Y-39814800D01*
X173103600Y-40500600D01*
X172113000Y-40881600D01*
X171097000Y-40856200D01*
X170106400Y-40399000D01*
X169319000Y-39510000D01*
X168988800Y-38240000D01*
X169141200Y-37300200D01*
X169649200Y-36487400D01*
X170411200Y-35852400D01*
X171592300Y-35522200D01*
X172836900Y-35776200D01*
G36*
X170836900Y-62776200D02*
G01*
X171637000Y-63309600D01*
X172373600Y-64503400D01*
X172373600Y-65849600D01*
X171916400Y-66814800D01*
X171103600Y-67500600D01*
X170113000Y-67881600D01*
X169097000Y-67856200D01*
X168106400Y-67399000D01*
X167319000Y-66510000D01*
X166988800Y-65240000D01*
X167141200Y-64300200D01*
X167649200Y-63487400D01*
X168411200Y-62852400D01*
X169592300Y-62522200D01*
X170836900Y-62776200D01*
G37*
X170836900Y-62776200D02*
X171637000Y-63309600D01*
X172373600Y-64503400D01*
X172373600Y-65849600D01*
X171916400Y-66814800D01*
X171103600Y-67500600D01*
X170113000Y-67881600D01*
X169097000Y-67856200D01*
X168106400Y-67399000D01*
X167319000Y-66510000D01*
X166988800Y-65240000D01*
X167141200Y-64300200D01*
X167649200Y-63487400D01*
X168411200Y-62852400D01*
X169592300Y-62522200D01*
X170836900Y-62776200D01*
G36*
X182836900Y-21776200D02*
G01*
X183637000Y-22309600D01*
X184373600Y-23503400D01*
X184373600Y-24849600D01*
X183916400Y-25814800D01*
X183103600Y-26500600D01*
X182113000Y-26881600D01*
X181097000Y-26856200D01*
X180106400Y-26399000D01*
X179319000Y-25510000D01*
X178988800Y-24240000D01*
X179141200Y-23300200D01*
X179649200Y-22487400D01*
X180411200Y-21852400D01*
X181592300Y-21522200D01*
X182836900Y-21776200D01*
G37*
X182836900Y-21776200D02*
X183637000Y-22309600D01*
X184373600Y-23503400D01*
X184373600Y-24849600D01*
X183916400Y-25814800D01*
X183103600Y-26500600D01*
X182113000Y-26881600D01*
X181097000Y-26856200D01*
X180106400Y-26399000D01*
X179319000Y-25510000D01*
X178988800Y-24240000D01*
X179141200Y-23300200D01*
X179649200Y-22487400D01*
X180411200Y-21852400D01*
X181592300Y-21522200D01*
X182836900Y-21776200D01*
G36*
X184836900Y-41776200D02*
G01*
X185637000Y-42309600D01*
X186373600Y-43503400D01*
X186373600Y-44849600D01*
X185916400Y-45814800D01*
X185103600Y-46500600D01*
X184113000Y-46881600D01*
X183097000Y-46856200D01*
X182106400Y-46399000D01*
X181319000Y-45510000D01*
X180988800Y-44240000D01*
X181141200Y-43300200D01*
X181649200Y-42487400D01*
X182411200Y-41852400D01*
X183592300Y-41522200D01*
X184836900Y-41776200D01*
G37*
X184836900Y-41776200D02*
X185637000Y-42309600D01*
X186373600Y-43503400D01*
X186373600Y-44849600D01*
X185916400Y-45814800D01*
X185103600Y-46500600D01*
X184113000Y-46881600D01*
X183097000Y-46856200D01*
X182106400Y-46399000D01*
X181319000Y-45510000D01*
X180988800Y-44240000D01*
X181141200Y-43300200D01*
X181649200Y-42487400D01*
X182411200Y-41852400D01*
X183592300Y-41522200D01*
X184836900Y-41776200D01*
G36*
X183836900Y-62776200D02*
G01*
X184637000Y-63309600D01*
X185373600Y-64503400D01*
X185373600Y-65849600D01*
X184916400Y-66814800D01*
X184103600Y-67500600D01*
X183113000Y-67881600D01*
X182097000Y-67856200D01*
X181106400Y-67399000D01*
X180319000Y-66510000D01*
X179988800Y-65240000D01*
X180141200Y-64300200D01*
X180649200Y-63487400D01*
X181411200Y-62852400D01*
X182592300Y-62522200D01*
X183836900Y-62776200D01*
G37*
X183836900Y-62776200D02*
X184637000Y-63309600D01*
X185373600Y-64503400D01*
X185373600Y-65849600D01*
X184916400Y-66814800D01*
X184103600Y-67500600D01*
X183113000Y-67881600D01*
X182097000Y-67856200D01*
X181106400Y-67399000D01*
X180319000Y-66510000D01*
X179988800Y-65240000D01*
X180141200Y-64300200D01*
X180649200Y-63487400D01*
X181411200Y-62852400D01*
X182592300Y-62522200D01*
X183836900Y-62776200D01*
G36*
X144836900Y-21776200D02*
G01*
X145637000Y-22309600D01*
X146373600Y-23503400D01*
X146373600Y-24849600D01*
X145916400Y-25814800D01*
X145103600Y-26500600D01*
X144113000Y-26881600D01*
X143097000Y-26856200D01*
X142106400Y-26399000D01*
X141319000Y-25510000D01*
X140988800Y-24240000D01*
X141141200Y-23300200D01*
X141649200Y-22487400D01*
X142411200Y-21852400D01*
X143592300Y-21522200D01*
X144836900Y-21776200D01*
G37*
X144836900Y-21776200D02*
X145637000Y-22309600D01*
X146373600Y-23503400D01*
X146373600Y-24849600D01*
X145916400Y-25814800D01*
X145103600Y-26500600D01*
X144113000Y-26881600D01*
X143097000Y-26856200D01*
X142106400Y-26399000D01*
X141319000Y-25510000D01*
X140988800Y-24240000D01*
X141141200Y-23300200D01*
X141649200Y-22487400D01*
X142411200Y-21852400D01*
X143592300Y-21522200D01*
X144836900Y-21776200D01*
G36*
X26836900Y-35776200D02*
G01*
X27637000Y-36309600D01*
X28373600Y-37503400D01*
X28373600Y-38849600D01*
X27916400Y-39814800D01*
X27103600Y-40500600D01*
X26113000Y-40881600D01*
X25097000Y-40856200D01*
X24106400Y-40399000D01*
X23319000Y-39510000D01*
X22988800Y-38240000D01*
X23141200Y-37300200D01*
X23649200Y-36487400D01*
X24411200Y-35852400D01*
X25592300Y-35522200D01*
X26836900Y-35776200D01*
G37*
X26836900Y-35776200D02*
X27637000Y-36309600D01*
X28373600Y-37503400D01*
X28373600Y-38849600D01*
X27916400Y-39814800D01*
X27103600Y-40500600D01*
X26113000Y-40881600D01*
X25097000Y-40856200D01*
X24106400Y-40399000D01*
X23319000Y-39510000D01*
X22988800Y-38240000D01*
X23141200Y-37300200D01*
X23649200Y-36487400D01*
X24411200Y-35852400D01*
X25592300Y-35522200D01*
X26836900Y-35776200D01*
G36*
X47836900Y-21776200D02*
G01*
X48637000Y-22309600D01*
X49373600Y-23503400D01*
X49373600Y-24849600D01*
X48916400Y-25814800D01*
X48103600Y-26500600D01*
X47113000Y-26881600D01*
X46097000Y-26856200D01*
X45106400Y-26399000D01*
X44319000Y-25510000D01*
X43988800Y-24240000D01*
X44141200Y-23300200D01*
X44649200Y-22487400D01*
X45411200Y-21852400D01*
X46592300Y-21522200D01*
X47836900Y-21776200D01*
G37*
X47836900Y-21776200D02*
X48637000Y-22309600D01*
X49373600Y-23503400D01*
X49373600Y-24849600D01*
X48916400Y-25814800D01*
X48103600Y-26500600D01*
X47113000Y-26881600D01*
X46097000Y-26856200D01*
X45106400Y-26399000D01*
X44319000Y-25510000D01*
X43988800Y-24240000D01*
X44141200Y-23300200D01*
X44649200Y-22487400D01*
X45411200Y-21852400D01*
X46592300Y-21522200D01*
X47836900Y-21776200D01*
G36*
X58836900Y-21776200D02*
G01*
X59637000Y-22309600D01*
X60373600Y-23503400D01*
X60373600Y-24849600D01*
X59916400Y-25814800D01*
X59103600Y-26500600D01*
X58113000Y-26881600D01*
X57097000Y-26856200D01*
X56106400Y-26399000D01*
X55319000Y-25510000D01*
X54988800Y-24240000D01*
X55141200Y-23300200D01*
X55649200Y-22487400D01*
X56411200Y-21852400D01*
X57592300Y-21522200D01*
X58836900Y-21776200D01*
G37*
X58836900Y-21776200D02*
X59637000Y-22309600D01*
X60373600Y-23503400D01*
X60373600Y-24849600D01*
X59916400Y-25814800D01*
X59103600Y-26500600D01*
X58113000Y-26881600D01*
X57097000Y-26856200D01*
X56106400Y-26399000D01*
X55319000Y-25510000D01*
X54988800Y-24240000D01*
X55141200Y-23300200D01*
X55649200Y-22487400D01*
X56411200Y-21852400D01*
X57592300Y-21522200D01*
X58836900Y-21776200D01*
G36*
X96836900Y-21776200D02*
G01*
X97637000Y-22309600D01*
X98373600Y-23503400D01*
X98373600Y-24849600D01*
X97916400Y-25814800D01*
X97103600Y-26500600D01*
X96113000Y-26881600D01*
X95097000Y-26856200D01*
X94106400Y-26399000D01*
X93319000Y-25510000D01*
X92988800Y-24240000D01*
X93141200Y-23300200D01*
X93649200Y-22487400D01*
X94411200Y-21852400D01*
X95592300Y-21522200D01*
X96836900Y-21776200D01*
G37*
X96836900Y-21776200D02*
X97637000Y-22309600D01*
X98373600Y-23503400D01*
X98373600Y-24849600D01*
X97916400Y-25814800D01*
X97103600Y-26500600D01*
X96113000Y-26881600D01*
X95097000Y-26856200D01*
X94106400Y-26399000D01*
X93319000Y-25510000D01*
X92988800Y-24240000D01*
X93141200Y-23300200D01*
X93649200Y-22487400D01*
X94411200Y-21852400D01*
X95592300Y-21522200D01*
X96836900Y-21776200D01*
G36*
X128836900Y-75776200D02*
G01*
X129637000Y-76309600D01*
X130373600Y-77503400D01*
X130373600Y-78849600D01*
X129916400Y-79814800D01*
X129103600Y-80500600D01*
X128113000Y-80881600D01*
X127097000Y-80856200D01*
X126106400Y-80399000D01*
X125319000Y-79510000D01*
X124988800Y-78240000D01*
X125141200Y-77300200D01*
X125649200Y-76487400D01*
X126411200Y-75852400D01*
X127592300Y-75522200D01*
X128836900Y-75776200D01*
G37*
X128836900Y-75776200D02*
X129637000Y-76309600D01*
X130373600Y-77503400D01*
X130373600Y-78849600D01*
X129916400Y-79814800D01*
X129103600Y-80500600D01*
X128113000Y-80881600D01*
X127097000Y-80856200D01*
X126106400Y-80399000D01*
X125319000Y-79510000D01*
X124988800Y-78240000D01*
X125141200Y-77300200D01*
X125649200Y-76487400D01*
X126411200Y-75852400D01*
X127592300Y-75522200D01*
X128836900Y-75776200D01*
G36*
X148836900Y-35776200D02*
G01*
X149637000Y-36309600D01*
X150373600Y-37503400D01*
X150373600Y-38849600D01*
X149916400Y-39814800D01*
X149103600Y-40500600D01*
X148113000Y-40881600D01*
X147097000Y-40856200D01*
X146106400Y-40399000D01*
X145319000Y-39510000D01*
X144988800Y-38240000D01*
X145141200Y-37300200D01*
X145649200Y-36487400D01*
X146411200Y-35852400D01*
X147592300Y-35522200D01*
X148836900Y-35776200D01*
G37*
X148836900Y-35776200D02*
X149637000Y-36309600D01*
X150373600Y-37503400D01*
X150373600Y-38849600D01*
X149916400Y-39814800D01*
X149103600Y-40500600D01*
X148113000Y-40881600D01*
X147097000Y-40856200D01*
X146106400Y-40399000D01*
X145319000Y-39510000D01*
X144988800Y-38240000D01*
X145141200Y-37300200D01*
X145649200Y-36487400D01*
X146411200Y-35852400D01*
X147592300Y-35522200D01*
X148836900Y-35776200D01*
D11*
X53732000Y-30240000D03*
X101732000Y-30240000D03*
X81732000Y-43240000D03*
X31732000Y-70240000D03*
X66232000Y-84240000D03*
X177732000Y-84240000D03*
D12*
X21446000Y-24214600D03*
D13*
X25992600Y-24214600D03*
D12*
X26446000Y-51214600D03*
D13*
X30992600Y-51214600D03*
D12*
X22446000Y-65214600D03*
D13*
X26992600Y-65214600D03*
D12*
X21446000Y-78214600D03*
D13*
X25992600Y-78214600D03*
D12*
X32446000Y-24214600D03*
D13*
X36992600Y-24214600D03*
D12*
X38446000Y-38214600D03*
D13*
X42992600Y-38214600D03*
D12*
X43446000Y-51214600D03*
D13*
X47992600Y-51214600D03*
D12*
X35446000Y-65214600D03*
D13*
X39992600Y-65214600D03*
D12*
X33446000Y-78214600D03*
D13*
X37992600Y-78214600D03*
D12*
X49446000Y-38214600D03*
D13*
X53992600Y-38214600D03*
D12*
X55446000Y-51214600D03*
D13*
X59992600Y-51214600D03*
D12*
X47446000Y-65214600D03*
D13*
X51992600Y-65214600D03*
D12*
X45446000Y-78214600D03*
D13*
X49992600Y-78214600D03*
D12*
X61446000Y-38214600D03*
D13*
X65992600Y-38214600D03*
D12*
X67446000Y-51214600D03*
D13*
X71992600Y-51214600D03*
D12*
X59446000Y-65214600D03*
D13*
X63992600Y-65214600D03*
D12*
X57446000Y-78214600D03*
D13*
X61992600Y-78214600D03*
D12*
X69446000Y-24214600D03*
D13*
X73992600Y-24214600D03*
D12*
X74446000Y-38214600D03*
D13*
X78992600Y-38214600D03*
D12*
X79446000Y-51214600D03*
D13*
X83992600Y-51214600D03*
D12*
X71446000Y-65214600D03*
D13*
X75992600Y-65214600D03*
D12*
X77446000Y-78214600D03*
D13*
X81992600Y-78214600D03*
D12*
X81446000Y-24214600D03*
D13*
X85992600Y-24214600D03*
D12*
X85446000Y-38214600D03*
D13*
X89992600Y-38214600D03*
D12*
X91446000Y-51214600D03*
D13*
X95992600Y-51214600D03*
D12*
X83446000Y-65214600D03*
D13*
X87992600Y-65214600D03*
D12*
X145446000Y-78214600D03*
D13*
X149992600Y-78214600D03*
D12*
X97446000Y-38214600D03*
D13*
X101992600Y-38214600D03*
D12*
X103446000Y-51214600D03*
D13*
X107992600Y-51214600D03*
D12*
X95446000Y-65214600D03*
D13*
X99992600Y-65214600D03*
D12*
X157446000Y-78214600D03*
D13*
X161992600Y-78214600D03*
D12*
X105446000Y-24214600D03*
D13*
X109992600Y-24214600D03*
D12*
X110446000Y-38214600D03*
D13*
X114992600Y-38214600D03*
D12*
X115446000Y-51214600D03*
D13*
X119992600Y-51214600D03*
D12*
X107446000Y-65214600D03*
D13*
X111992600Y-65214600D03*
D12*
X169446000Y-78214600D03*
D13*
X173992600Y-78214600D03*
D12*
X117446000Y-24214600D03*
D13*
X121992600Y-24214600D03*
D12*
X121446000Y-38214600D03*
D13*
X125992600Y-38214600D03*
D12*
X127446000Y-51214600D03*
D13*
X131992600Y-51214600D03*
D12*
X119446000Y-65214600D03*
D13*
X123992600Y-65214600D03*
D12*
X181446000Y-78214600D03*
D13*
X185992600Y-78214600D03*
D12*
X129446000Y-24214600D03*
D13*
X133992600Y-24214600D03*
D12*
X133446000Y-38214600D03*
D13*
X137992600Y-38214600D03*
D12*
X139446000Y-51214600D03*
D13*
X143992600Y-51214600D03*
D12*
X131446000Y-65214600D03*
D13*
X135992600Y-65214600D03*
D12*
X151446000Y-51214600D03*
D13*
X155992600Y-51214600D03*
D12*
X143446000Y-65214600D03*
D13*
X147992600Y-65214600D03*
D12*
X153446000Y-24214600D03*
D13*
X157992600Y-24214600D03*
D12*
X157446000Y-38214600D03*
D13*
X161992600Y-38214600D03*
D12*
X163446000Y-51214600D03*
D13*
X167992600Y-51214600D03*
D12*
X155446000Y-65214600D03*
D13*
X159992600Y-65214600D03*
D12*
X165446000Y-24214600D03*
D13*
X169992600Y-24214600D03*
D12*
X169446000Y-38214600D03*
D13*
X173992600Y-38214600D03*
D12*
X167446000Y-65214600D03*
D13*
X171992600Y-65214600D03*
D12*
X179446000Y-24214600D03*
D13*
X183992600Y-24214600D03*
D12*
X181446000Y-44214600D03*
D13*
X185992600Y-44214600D03*
D12*
X180446000Y-65214600D03*
D13*
X184992600Y-65214600D03*
D12*
X141446000Y-24214600D03*
D13*
X145992600Y-24214600D03*
D12*
X23446000Y-38214600D03*
D13*
X27992600Y-38214600D03*
D12*
X44446000Y-24214600D03*
D13*
X48992600Y-24214600D03*
D12*
X55446000Y-24214600D03*
D13*
X59992600Y-24214600D03*
D12*
X93446000Y-24214600D03*
D13*
X97992600Y-24214600D03*
D12*
X125446000Y-78214600D03*
D13*
X129992600Y-78214600D03*
D12*
X145446000Y-38214600D03*
D13*
X149992600Y-38214600D03*
D11*
X103732000Y-71240000D03*
X79732000Y-71240000D03*
D14*
X53750000Y-17750000D03*
X89732000Y-17740000D03*
X125232000Y-17740000D03*
X162232000Y-17740000D03*
X189732000Y-57240000D03*
X189732000Y-84240000D03*
X153732000Y-84240000D03*
X125732000Y-85740000D03*
X89732000Y-85740000D03*
X53232000Y-84240000D03*
X17232000Y-84240000D03*
X17232000Y-57240000D03*
X57732000Y-43740000D03*
X129732000Y-43740000D03*
X165732000Y-43740000D03*
X87232000Y-57240000D03*
M02*
